<?xml version="1.0" encoding="UTF-8" standalone="no"?>
<!-- Created with Inkscape (http://www.inkscape.org/) -->

<svg
   xmlns:dc="http://purl.org/dc/elements/1.1/"
   xmlns:cc="http://creativecommons.org/ns#"
   xmlns:rdf="http://www.w3.org/1999/02/22-rdf-syntax-ns#"
   xmlns:svg="http://www.w3.org/2000/svg"
   xmlns="http://www.w3.org/2000/svg"
   xmlns:xlink="http://www.w3.org/1999/xlink"
   xmlns:sodipodi="http://sodipodi.sourceforge.net/DTD/sodipodi-0.dtd"
   xmlns:inkscape="http://www.inkscape.org/namespaces/inkscape"
   width="48px"
   height="48px"
   id="svg2465"
   sodipodi:version="0.32"
   inkscape:version="0.46+devel"
   sodipodi:docname="nautilus-flickr-uploader.svg"
   inkscape:output_extension="org.inkscape.output.svg.inkscape">
  <sodipodi:namedview
     id="base"
     pagecolor="#ffffff"
     bordercolor="#666666"
     borderopacity="1.0"
     inkscape:pageopacity="0.0"
     inkscape:pageshadow="2"
     inkscape:zoom="8"
     inkscape:cx="4.375"
     inkscape:cy="22.891967"
     inkscape:current-layer="layer1"
     showgrid="true"
     inkscape:grid-bbox="true"
     inkscape:document-units="px"
     inkscape:window-width="1280"
     inkscape:window-height="726"
     inkscape:window-x="0"
     inkscape:window-y="25" />
  <defs
     id="defs2467">
    <linearGradient
       id="linearGradient5080"
       inkscape:collect="always">
      <stop
         id="stop5082"
         offset="0"
         style="stop-color:#3465a4;stop-opacity:1;" />
      <stop
         id="stop5084"
         offset="1"
         style="stop-color:#3465a4;stop-opacity:0;" />
    </linearGradient>
    <linearGradient
       id="linearGradient4981"
       inkscape:collect="always">
      <stop
         id="stop4983"
         offset="0"
         style="stop-color:#000000;stop-opacity:1;" />
      <stop
         id="stop4985"
         offset="1"
         style="stop-color:#000000;stop-opacity:0;" />
    </linearGradient>
    <linearGradient
       id="linearGradient4961">
      <stop
         id="stop4963"
         offset="0"
         style="stop-color:#000000;stop-opacity:1;" />
      <stop
         id="stop4965"
         offset="1"
         style="stop-color:#ffffff;stop-opacity:0.68874174;" />
    </linearGradient>
    <inkscape:perspective
       id="perspective2473"
       inkscape:persp3d-origin="24 : 16 : 1"
       inkscape:vp_z="48 : 24 : 1"
       inkscape:vp_y="0 : 1000 : 0"
       inkscape:vp_x="0 : 24 : 1"
       sodipodi:type="inkscape:persp3d" />
    <inkscape:perspective
       sodipodi:type="inkscape:persp3d"
       inkscape:vp_x="0 : 526.18109 : 1"
       inkscape:vp_y="0 : 1000 : 0"
       inkscape:vp_z="744.09448 : 526.18109 : 1"
       inkscape:persp3d-origin="372.04724 : 350.78739 : 1"
       id="perspective4864" />
    <linearGradient
       gradientTransform="matrix(0.8483959,2.2627355e-8,0,0.6126033,22.916938,19.152252)"
       gradientUnits="userSpaceOnUse"
       y2="18.933525"
       x2="-3.1421082"
       y1="37.904266"
       x1="-7.0962129"
       id="linearGradient4967"
       xlink:href="#linearGradient4961"
       inkscape:collect="always" />
    <linearGradient
       gradientTransform="matrix(0.8594484,-1.02044e-8,1.02044e-8,0.8594484,5.9037782,10.059544)"
       gradientUnits="userSpaceOnUse"
       y2="20.743864"
       x2="14.314825"
       y1="61.111248"
       x1="46.87838"
       id="linearGradient4987"
       xlink:href="#linearGradient4981"
       inkscape:collect="always" />
    <linearGradient
       y2="20.743864"
       x2="14.314825"
       y1="61.111248"
       x1="46.87838"
       gradientTransform="matrix(0.8594484,-1.02044e-8,1.02044e-8,0.8594484,5.9037782,10.059544)"
       gradientUnits="userSpaceOnUse"
       id="linearGradient5048"
       xlink:href="#linearGradient4981"
       inkscape:collect="always" />
    <linearGradient
       y2="18.933525"
       x2="-3.1421082"
       y1="37.904266"
       x1="-7.0962129"
       gradientTransform="matrix(0.8483959,2.2627355e-8,0,0.6126033,22.916938,19.152252)"
       gradientUnits="userSpaceOnUse"
       id="linearGradient5050"
       xlink:href="#linearGradient4961"
       inkscape:collect="always" />
    <linearGradient
       gradientTransform="matrix(0.8689002,0,0,0.8689002,5.1584078,0.3680362)"
       gradientUnits="userSpaceOnUse"
       y2="-7.8222227"
       x2="17.09267"
       y1="4.0181365"
       x1="25.486176"
       id="linearGradient5088"
       xlink:href="#linearGradient5080"
       inkscape:collect="always" />
    <linearGradient
       y2="20.743864"
       x2="14.314825"
       y1="61.111248"
       x1="46.87838"
       gradientTransform="matrix(0.8594484,-1.02044e-8,1.02044e-8,0.8594484,4.7514133,9.7269051)"
       gradientUnits="userSpaceOnUse"
       id="linearGradient2416"
       xlink:href="#linearGradient4981"
       inkscape:collect="always" />
    <linearGradient
       y2="18.933525"
       x2="-3.1421082"
       y1="37.904266"
       x1="-7.0962129"
       gradientTransform="matrix(0.8483959,2.2627355e-8,0,0.6126033,21.764573,18.819613)"
       gradientUnits="userSpaceOnUse"
       id="linearGradient2418"
       xlink:href="#linearGradient4961"
       inkscape:collect="always" />
    <inkscape:perspective
       sodipodi:type="inkscape:persp3d"
       inkscape:vp_x="0 : 526.18109 : 1"
       inkscape:vp_y="0 : 1000 : 0"
       inkscape:vp_z="744.09448 : 526.18109 : 1"
       inkscape:persp3d-origin="372.04724 : 350.78739 : 1"
       id="perspective2487" />
    <linearGradient
       y2="20.743864"
       x2="14.314825"
       y1="61.111248"
       x1="46.87838"
       gradientTransform="matrix(0.8594484,-1.02044e-8,1.0204401e-8,0.8594484,4.7514133,9.7269051)"
       gradientUnits="userSpaceOnUse"
       id="linearGradient2571"
       xlink:href="#linearGradient4981"
       inkscape:collect="always" />
    <linearGradient
       y2="18.933525"
       x2="-3.1421082"
       y1="37.904266"
       x1="-7.0962129"
       gradientTransform="matrix(0.8483959,2.2627355e-8,0,0.6126033,21.764573,18.819613)"
       gradientUnits="userSpaceOnUse"
       id="linearGradient2573"
       xlink:href="#linearGradient4961"
       inkscape:collect="always" />
    <clipPath
       id="clipPath">
      <path
         id="path5076"
         d="M 26,0.6095341 L 18.01605,9.62358 L 21.461179,9.62358 L 21.461179,15.341978 L 30.538821,15.341978 L 30.538821,9.62358 L 33.98395,9.62358 L 26,0.6095341 z"
         style="fill:url(#linearGradient5088);fill-opacity:1;stroke:#888a85;stroke-width:0.47963798;stroke-linecap:round;stroke-linejoin:round;stroke-miterlimit:4;stroke-dasharray:none;stroke-opacity:1" />
    </clipPath>
    <filter
       y="-0.5"
       x="-0.5"
       width="2.0"
       height="2.0"
       id="filter">
      <feGaussianBlur
         id="feGaussianBlur3904"
         stdDeviation="5.0" />
    </filter>
    <linearGradient
       inkscape:collect="always"
       xlink:href="#linearGradient5080"
       id="linearGradient4027"
       x1="18.01605"
       y1="7.9757562"
       x2="33.983952"
       y2="7.9757562"
       gradientUnits="userSpaceOnUse" />
    <linearGradient
       inkscape:collect="always"
       xlink:href="#linearGradient5080"
       id="linearGradient4033"
       gradientUnits="userSpaceOnUse"
       x1="18.01605"
       y1="7.9757562"
       x2="33.983952"
       y2="7.9757562" />
    <linearGradient
       inkscape:collect="always"
       xlink:href="#linearGradient4981"
       id="linearGradient4037"
       gradientUnits="userSpaceOnUse"
       gradientTransform="matrix(0.99651505,0,0,0.99651505,0.0836394,0.24981483)"
       x1="25.391352"
       y1="20.089949"
       x2="24"
       y2="11.110973" />
    <linearGradient
       inkscape:collect="always"
       xlink:href="#linearGradient5080"
       id="linearGradient4041"
       x1="22.90123"
       y1="6.9757562"
       x2="19.15123"
       y2="-4.6492438"
       gradientUnits="userSpaceOnUse"
       gradientTransform="matrix(1.1468694,0,0,1.1468694,-3.5248654,-0.17227463)" />
  </defs>
  <metadata
     id="metadata2470">
    <rdf:RDF>
      <cc:Work
         rdf:about="">
        <dc:format>image/svg+xml</dc:format>
        <dc:type
           rdf:resource="http://purl.org/dc/dcmitype/StillImage" />
      </cc:Work>
    </rdf:RDF>
  </metadata>
  <g
     inkscape:groupmode="layer"
     inkscape:label="Layer 1"
     id="layer1">
    <path
       id="path3910"
       d="m 24,0.52678137 -9.156548,10.33793363 3.951113,0 0,6.558255 10.41087,0 0,-6.558255 3.951113,0 L 24,0.52678137 z"
       style="fill:url(#linearGradient4041);fill-opacity:1;stroke:#888a85;stroke-width:0.55008209;stroke-linecap:round;stroke-linejoin:round;stroke-miterlimit:4;stroke-opacity:1;stroke-dasharray:none" />
    <path
       id="rect5052"
       d="m 24.000001,0.47192317 -9.156547,10.33793283 3.951113,0 0,6.558256 10.410868,0 0,-6.558256 3.951111,0 L 24,0.47192317 z"
       style="fill:url(#linearGradient4037);fill-opacity:1;stroke:#888a85;stroke-width:0.55008209;stroke-linecap:round;stroke-linejoin:round;stroke-miterlimit:4;stroke-opacity:1;stroke-dasharray:none" />
    <g
       transform="matrix(0.85645327,0,0,0.85645327,10.186384,8.2494588)"
       id="g4942">
      <rect
         style="fill:none;stroke:#888a85;stroke-width:4.85955;stroke-linecap:round;stroke-linejoin:round;stroke-miterlimit:4;stroke-dasharray:none"
         id="rect2475"
         width="28.283308"
         height="22.692318"
         x="9.8374615"
         y="11.583347"
         transform="matrix(0.9553046,0.2956234,-0.2956234,0.9553046,0,0)" />
      <rect
         style="fill:#ffffff;fill-opacity:1;stroke:none"
         id="rect4774"
         width="30.857143"
         height="25.170588"
         x="8.5505438"
         y="10.439286"
         transform="matrix(0.9553046,0.2956234,-0.2956234,0.9553046,0,0)" />
      <rect
         style="fill:#eeeeec;fill-opacity:1;stroke:none"
         id="rect4792"
         width="27.714287"
         height="22.578609"
         x="10.050544"
         y="11.867857"
         transform="matrix(0.9553046,0.2956234,-0.2956234,0.9553046,0,0)" />
      <rect
         style="fill:#888a85;fill-opacity:1;stroke:none"
         id="rect4794"
         width="24.571428"
         height="16.428574"
         x="11.621971"
         y="14.29643"
         transform="matrix(0.9553046,0.2956234,-0.2956234,0.9553046,0,0)" />
    </g>
    <g
       transform="matrix(0.85645327,0,0,0.85645327,6.7402886,8.2494588)"
       id="g4953">
      <rect
         style="fill:none;stroke:#888a85;stroke-width:4.85955;stroke-linecap:round;stroke-linejoin:round;stroke-miterlimit:4;stroke-dasharray:none"
         id="rect4915"
         width="28.283306"
         height="22.692318"
         x="6.01089"
         y="14.468365" />
      <rect
         style="fill:#ffffff;fill-opacity:1;stroke:none"
         id="rect4917"
         width="30.857141"
         height="25.170588"
         x="4.7239723"
         y="13.324304" />
      <rect
         style="fill:#eeeeec;fill-opacity:1;stroke:none"
         id="rect4919"
         width="27.714285"
         height="22.578609"
         x="6.2239723"
         y="14.752874" />
      <rect
         style="fill:#888a85;fill-opacity:1;stroke:none"
         id="rect4921"
         width="24.571428"
         height="16.428574"
         x="7.7953997"
         y="17.181448" />
    </g>
    <g
       transform="matrix(0.96604788,-0.24452746,0.24452746,0.96604788,-48.43166,32.009763)"
       id="g2553">
      <g
         id="g2499"
         transform="matrix(0.8594484,0,0,0.8594484,54.429929,-9.436251)">
        <rect
           y="14.468365"
           x="6.01089"
           height="22.692318"
           width="28.283306"
           id="rect2501"
           style="fill:none;stroke:#888a85;stroke-width:4.85955;stroke-linecap:round;stroke-linejoin:round;stroke-miterlimit:4;stroke-dasharray:none" />
        <rect
           y="13.324304"
           x="4.7239723"
           height="25.170588"
           width="30.857141"
           id="rect2503"
           style="fill:#ffffff;fill-opacity:1;stroke:none" />
        <rect
           y="14.752874"
           x="6.2239723"
           height="22.578609"
           width="27.714285"
           id="rect2505"
           style="fill:#eeeeec;fill-opacity:1;stroke:none" />
        <rect
           y="17.181448"
           x="7.7953997"
           height="16.428574"
           width="24.571428"
           id="rect2507"
           style="fill:#888a85;fill-opacity:1;stroke:none" />
      </g>
      <g
         id="g2535">
        <path
           style="fill:#c6e7f9"
           d="M 61.875,12.375 C 61.875,6 61.875,6 71.6875,6 81.5,6 81.5,6 81.5,12.375 c 0,6.375 0,6.375 -9.8125,6.375 -9.8125,0 -9.8125,0 -9.8125,-6.375 z"
           id="path2551" />
        <path
           style="fill:#b0dbf5"
           d="m 61.875,15.095 c 0,-3.655 0,-3.655 1.76625,-3.64074 0.971438,0.0078 3.120375,0.06982 4.775417,0.137732 2.000597,0.08209 3.135629,0.06306 3.386479,-0.05676 0.239709,-0.114503 0.318991,-0.116761 0.217395,-0.0062 -0.0974,0.106006 0.236955,0.178509 0.855336,0.185473 0.55839,0.0063 0.960882,-0.04572 0.894428,-0.115579 -0.06645,-0.06986 -0.34292,-0.08928 -0.614368,-0.04316 -0.271447,0.04612 -0.567291,0.0063 -0.65743,-0.08843 -0.09642,-0.101359 0.43002,-0.252385 1.278801,-0.366863 C 74.570789,10.993456 75.22,10.834818 75.22,10.747947 75.22,10.661076 75.093839,10.59 74.939643,10.59 c -0.400441,0 0.43383,-0.508328 0.850416,-0.518165 C 76.1224,10.063987 74.766623,9.5216336 73.870442,9.3039284 73.631894,9.2459788 73.375659,9.0468719 73.301031,8.8614684 73.217381,8.6536483 72.982317,8.5426436 72.688089,8.5720175 72.128484,8.6278853 70.994389,8.2615261 70.690168,7.9266071 70.573385,7.7980402 70.367564,7.7371258 70.232788,7.7912417 70.098012,7.8453578 69.663687,7.7802193 69.26762,7.6464895 68.871554,7.5127598 68.0765,7.3088744 67.500833,7.193411 66.925167,7.0779475 65.946402,6.8227576 65.325801,6.6263222 64.359427,6.3204414 64.163353,6.3047587 63.960035,6.5170835 63.765151,6.7206005 63.628117,6.7269433 63.194868,6.5525 62.904596,6.435625 62.488878,6.34 62.271051,6.34 62.053223,6.34 61.875,6.2635 61.875,6.17 61.875,6.0596889 65.320278,6 71.6875,6 81.5,6 81.5,6 81.5,12.375 c 0,6.375 0,6.375 -9.8125,6.375 -9.8125,0 -9.8125,0 -9.8125,-3.655 z m 1.112083,-2.237588 c -0.179896,-0.04716 -0.47427,-0.04716 -0.654166,0 -0.179896,0.04716 -0.03271,0.08575 0.327083,0.08575 0.359792,0 0.506979,-0.03859 0.327083,-0.08575 z M 65.276667,12.715 c 0.274384,-0.214793 0.227864,-0.252884 -0.295044,-0.241579 -0.343598,0.0074 -0.461522,0.05457 -0.264098,0.105579 0.301144,0.07781 0.301144,0.115021 0,0.238975 -0.209136,0.08608 -0.234639,0.147896 -0.06165,0.149422 0.162274,0.0014 0.441629,-0.112147 0.62079,-0.252397 z m 1.635416,-0.197588 c -0.179896,-0.04716 -0.47427,-0.04716 -0.654166,0 -0.179896,0.04716 -0.03271,0.08575 0.327083,0.08575 0.359792,0 0.506979,-0.03859 0.327083,-0.08575 z m 1.553646,-0.0035 c -0.18889,-0.04911 -0.414578,-0.04307 -0.501528,0.01342 -0.08695,0.05649 0.0676,0.09667 0.343438,0.08929 0.304827,-0.0082 0.36683,-0.04844 0.15809,-0.102708 z"
           id="path2549" />
        <path
           style="fill:#cbb08d"
           d="m 61.93409,15.910003 c 0.07174,-2.839997 0.07174,-2.839997 0.72591,-2.971841 0.654167,-0.131845 0.654167,-0.131845 -0.03271,-0.07764 -0.553672,0.04369 -0.686875,-0.01645 -0.686875,-0.310119 0,-0.33078 0.147565,-0.366014 1.602708,-0.38268 2.897772,-0.03319 3.210178,-0.110442 0.838489,-0.207348 -1.557169,-0.06363 -2.371086,-0.167894 -2.444963,-0.313217 -0.109388,-0.215175 1.609407,-0.201182 6.218349,0.05062 0.791542,0.04324 3.440917,0.124507 5.8875,0.180582 2.446583,0.05607 4.978208,0.12822 5.625833,0.160322 0.647625,0.0321 1.324688,0.06353 1.504584,0.06984 0.24988,0.0088 0.327083,0.793927 0.327083,3.326474 0,3.315 0,3.315 -9.818827,3.315 -9.818827,0 -9.818827,0 -9.747083,-2.839997 z m 3.527046,-3.386824 c -0.194007,-0.126042 -2.022776,-0.113952 -2.203139,0.01457 -0.113023,0.08054 -0.02825,0.105574 0.18838,0.05564 0.478337,-0.110253 0.997914,0.213951 0.839064,0.523555 -0.06337,0.12352 0.19174,0.05118 0.56692,-0.160757 0.37518,-0.211935 0.649129,-0.406788 0.608775,-0.433006 z M 68.809167,12.97 c -0.08895,-0.0935 -0.213645,-0.17 -0.27711,-0.17 -0.06346,0 -0.11539,0.0765 -0.11539,0.17 0,0.0935 0.124699,0.17 0.277109,0.17 0.15241,0 0.204336,-0.0765 0.115391,-0.17 z M 68.155,12.811824 c 0,-0.087 0.264938,-0.191329 0.58875,-0.231849 0.323812,-0.04052 -0.176625,-0.08292 -1.112083,-0.09422 -1.156605,-0.01397 -1.575938,0.03075 -1.310508,0.139776 0.21468,0.08818 0.673805,0.114099 1.020279,0.0576 0.436144,-0.07112 0.572942,-0.04279 0.444648,0.09207 -0.101918,0.107136 -0.06061,0.194793 0.09181,0.194793 0.15241,0 0.277109,-0.07118 0.277109,-0.158176 z"
           id="path2547" />
        <path
           style="fill:#c4a279"
           d="m 61.947334,18.413347 c -0.02147,-0.185159 0.07694,-0.383219 0.218689,-0.440134 0.164562,-0.06608 0.151072,-0.18697 -0.03732,-0.334447 -0.209038,-0.163639 -0.215061,-0.32028 -0.02066,-0.537365 0.211499,-0.236182 0.277121,-0.247961 0.286343,-0.0514 0.0085,0.180816 0.06951,0.196198 0.20978,0.05288 0.244682,-0.25002 1.625834,-0.429789 1.625834,-0.211623 0,0.08731 -0.176625,0.158742 -0.3925,0.158742 -0.215875,0 -0.3925,0.11475 -0.3925,0.255 0,0.316537 0.419771,0.33554 0.601865,0.02725 0.145168,-0.245775 1.091642,-0.266952 1.420721,-0.03179 0.110869,0.07923 0.08383,0.103109 -0.06009,0.05307 -0.143917,-0.05004 -0.497167,-0.02943 -0.785,0.0458 -0.504725,0.131916 -0.50316,0.137204 0.04402,0.148728 0.312041,0.0066 0.738409,0.0546 0.947483,0.106718 0.211861,0.05282 0.451672,-0.02634 0.541738,-0.178829 0.08888,-0.15048 0.05334,-0.230129 -0.07899,-0.176997 C 65.72825,17.43888 65.535041,17.15853 65.793053,16.887305 66.042756,16.624813 65.86493,16.2 65.505353,16.2 c -0.131262,0 -0.158007,0.210375 -0.05943,0.4675 0.168038,0.438325 0.148885,0.451586 -0.30691,0.2125 -0.280447,-0.147108 -0.40299,-0.16509 -0.289628,-0.0425 0.108078,0.116875 0.07181,0.2125 -0.0806,0.2125 -0.350953,0 -0.361349,-0.28611 -0.01544,-0.425 0.419566,-0.168466 0.301934,-0.424771 -0.19625,-0.427603 -0.359606,-0.002 -0.381065,-0.03423 -0.09995,-0.149932 0.47806,-0.196758 1.75541,0.04972 1.659252,0.320165 -0.04645,0.130651 0.08102,0.174908 0.327083,0.113561 0.515885,-0.128613 0.510875,-0.03543 -0.01652,0.307206 -0.385179,0.250244 -0.357774,0.265593 0.333033,0.186525 0.414013,-0.04739 1.087345,0.02662 1.496295,0.16446 0.917239,0.309163 0.94539,0.309192 0.94539,9.53e-4 0,-0.15208 -0.153413,-0.211417 -0.3925,-0.151811 -0.215875,0.05382 -0.3925,0.01381 -0.3925,-0.08891 0,-0.109774 0.350549,-0.161824 0.850416,-0.126272 0.46773,0.03327 0.791542,0.128248 0.719584,0.211069 -0.07196,0.08282 -0.21197,0.133013 -0.311138,0.111537 -0.09917,-0.02148 -0.256992,0.117932 -0.350722,0.309795 -0.105524,0.216004 -0.316055,0.312533 -0.55287,0.253494 -0.227666,-0.05676 -0.313288,-0.02264 -0.21156,0.0843 0.09399,0.0988 0.327999,0.140474 0.520018,0.0926 0.19202,-0.04787 0.386172,-0.01729 0.431449,0.06796 0.04836,0.09106 0.244232,0.08712 0.474823,-0.0096 0.348888,-0.146268 0.348888,-0.184228 0,-0.341641 -0.324601,-0.146453 -0.301968,-0.16851 0.130833,-0.1275 0.385346,0.03651 0.523333,-0.04722 0.523333,-0.31755 0,-0.201927 0.09951,-0.431427 0.221127,-0.51 0.121619,-0.07857 0.181293,-0.02811 0.132609,0.112139 -0.04868,0.14025 0.02843,0.274125 0.171374,0.2975 0.142939,0.02338 0.25989,-0.04675 0.25989,-0.155833 0,-0.109084 0.137747,-0.228164 0.306104,-0.264624 0.321032,-0.06952 0.317554,0.122168 -0.01384,0.762926 -0.109507,0.211732 -0.284561,0.350655 -0.389009,0.308717 -0.104447,-0.04194 -0.360907,-0.0046 -0.569911,0.08301 -0.290414,0.121711 -0.243947,0.146934 0.197087,0.106984 0.317402,-0.02875 0.825028,-0.198048 1.128058,-0.376216 0.388771,-0.228579 0.605942,-0.266149 0.737719,-0.127624 0.230341,0.242136 1.15505,0.172656 1.2935,-0.09719 C 74.171311,17.138941 74.103115,17.05 73.963991,17.05 c -0.139125,0 -0.314539,-0.153 -0.389809,-0.34 -0.122453,-0.304221 -0.924558,-0.459316 -1.840715,-0.355919 -0.118635,0.01339 -0.147955,-0.04687 -0.06516,-0.133909 0.0828,-0.08704 0.385926,-0.118262 0.673616,-0.06939 0.29236,0.04967 0.523073,0.0051 0.523073,-0.10096 0,-0.104405 -0.08831,-0.177682 -0.19625,-0.162838 -0.107938,0.01484 -0.406698,-0.03268 -0.663912,-0.105618 -0.305532,-0.08663 -0.636709,-0.03322 -0.955273,0.154086 -0.32003,0.188162 -0.54681,0.224461 -0.659864,0.105617 -0.09739,-0.102378 0.03347,-0.182205 0.301106,-0.183677 0.401347,-0.0022 0.413648,-0.02767 0.08086,-0.167397 -0.319861,-0.134295 -0.283541,-0.169208 0.19625,-0.188647 0.323812,-0.01312 0.735937,-0.03598 0.915833,-0.05079 0.179896,-0.01482 0.402757,0.04335 0.495248,0.129259 0.223947,0.20801 1.598565,-0.02302 1.397094,-0.234805 -0.08634,-0.09076 -0.03228,-0.165016 0.120132,-0.165016 0.15241,0 0.277109,0.07602 0.277109,0.168933 0,0.09291 0.264938,0.136848 0.58875,0.09763 0.323813,-0.03922 0.647625,-0.07816 0.719584,-0.08654 0.07196,-0.0084 -0.04579,-0.08939 -0.261667,-0.180029 -0.315772,-0.132579 -0.274389,-0.165303 0.211693,-0.167397 0.336913,-0.0015 0.532652,0.0726 0.442474,0.167397 -0.08895,0.0935 -0.03702,0.17 0.11539,0.17 0.15241,0 0.27711,-0.207643 0.27711,-0.461429 0,-0.439484 0.02178,-0.447277 0.457916,-0.163852 0.40049,0.260258 0.408694,0.317799 0.06542,0.458826 -0.334598,0.137461 -0.324947,0.161633 0.06542,0.163852 0.315068,0.0018 0.457916,-0.129977 0.457916,-0.422397 0,-0.264445 0.148278,-0.425 0.3925,-0.425 0.342078,0 0.494681,0.182614 0.438024,0.524167 -0.009,0.05454 0.153634,0.09917 0.361513,0.09917 0.20788,0 0.377963,-0.148434 0.377963,-0.329854 0,-0.22697 0.125515,-0.298564 0.402405,-0.229533 0.228976,0.05709 0.466589,-0.0083 0.551329,-0.151812 C 79.918975,14.27346 80.257955,14.16 80.590356,14.16 c 0.332402,0 0.663758,-0.09563 0.736347,-0.2125 0.07259,-0.116875 0.141277,0.103703 0.152639,0.490173 0.01648,0.560413 -0.08275,0.720241 -0.490129,0.789453 -0.280933,0.04773 -0.559188,-7.24e-4 -0.618343,-0.107673 -0.05916,-0.106949 -0.194343,-0.142168 -0.300415,-0.07826 -0.333587,0.200972 0.125301,0.47881 0.790821,0.47881 0.91451,0 0.79507,0.41746 -0.211693,0.739896 -0.850416,0.272362 -0.850416,0.272362 -0.11539,0.276233 0.48995,0.0026 0.672774,-0.06157 0.54832,-0.192395 -0.116299,-0.122255 -0.07171,-0.150094 0.118236,-0.07383 0.167718,0.06734 0.278615,0.346913 0.246438,0.621266 -0.06624,0.564786 -0.757211,0.668726 -1.621153,0.243864 -0.273056,-0.134281 -0.626306,-0.202675 -0.785,-0.151987 -0.158694,0.05069 -0.05997,-0.02826 0.219395,-0.175445 C 79.53979,16.660423 79.64252,16.54 79.488719,16.54 c -0.153802,0 -0.423375,0.112519 -0.599051,0.250041 -0.213963,0.167494 -0.662795,0.228554 -1.359537,0.184953 -0.792302,-0.04958 -1.007888,-0.01051 -0.904827,0.163976 0.07441,0.125985 -0.0053,0.26128 -0.177087,0.300656 -0.171811,0.03937 0.180781,0.05037 0.783537,0.02444 0.820468,-0.0353 1.062615,0.0092 0.963411,0.177195 -0.07288,0.123389 -0.0038,0.276018 0.153479,0.339175 0.157294,0.06316 0.253634,0.01806 0.214089,-0.100208 -0.03954,-0.118271 0.1636,-0.24282 0.451434,-0.276774 0.430151,-0.05074 0.453447,-0.0303 0.130833,0.1148 -0.337951,0.152001 -0.328859,0.176898 0.06542,0.179139 0.251854,0.0014 0.457916,0.0767 0.457916,0.167268 0,0.09056 0.186498,0.118169 0.41444,0.06134 0.326629,-0.08143 0.342095,-0.132371 0.07299,-0.240421 -0.532705,-0.213895 -0.07144,-0.374872 0.502417,-0.175341 0.281236,0.09779 0.585696,0.129484 0.676577,0.07044 0.09088,-0.05904 0.165238,0.141633 0.165238,0.44595 0,0.553303 0,0.553303 -2.420417,0.489406 -1.797238,-0.04745 -2.401904,-0.120207 -2.348516,-0.282605 0.03955,-0.12029 -0.05069,-0.169487 -0.200519,-0.109326 -0.14983,0.06016 -0.204673,0.180596 -0.121874,0.267636 0.08707,0.09153 -0.573109,0.158253 -1.565731,0.158253 -1.205447,0 -1.716276,-0.06373 -1.716276,-0.214107 0,-0.302348 -0.946392,-0.650221 -1.436513,-0.528031 -0.362061,0.09026 -0.355899,0.128304 0.05219,0.322168 0.254497,0.120901 0.544197,0.187106 0.643777,0.147122 0.09958,-0.03998 0.255015,0.0051 0.345412,0.100075 0.0904,0.09502 -0.06828,0.172773 -0.352614,0.172773 -0.284334,0 -0.576694,-0.09562 -0.649689,-0.2125 -0.09189,-0.147132 -0.199215,-0.156589 -0.348888,-0.03074 -0.118894,0.09997 -0.863796,0.193738 -1.655338,0.208383 -0.932751,0.01726 -1.261748,-0.02128 -0.934965,-0.109528 0.469896,-0.126892 0.47274,-0.144 0.0418,-0.251435 -0.538247,-0.134189 -1.014901,0.008 -0.796497,0.237571 0.0828,0.08704 0.0048,0.158253 -0.173404,0.158253 C 67.282157,18.75 65.8,18.345781 65.8,18.187661 c 0,-0.08472 -0.176625,-0.110004 -0.3925,-0.05618 -0.215875,0.05382 -0.3925,0.01924 -0.3925,-0.07684 0,-0.09608 -0.130321,-0.12237 -0.289603,-0.05842 -0.203364,0.08166 -0.187604,0.157238 0.05292,0.253816 0.18839,0.07564 0.436461,0.09982 0.55127,0.05372 0.114809,-0.0461 0.208743,0.03545 0.208743,0.181217 0,0.304768 -0.349485,0.337442 -1.040267,0.09726 -0.326226,-0.113428 -0.440442,-0.292397 -0.352599,-0.5525 0.103938,-0.307761 0.07424,-0.333712 -0.148462,-0.129725 -0.153115,0.14025 -0.21427,0.388875 -0.135898,0.5525 0.118731,0.247891 -0.0257,0.2975 -0.866123,0.2975 -0.817689,0 -1.016005,-0.06373 -1.04765,-0.336653 z m 18.373314,-0.0014 c 0.09167,-0.09637 -0.01336,-0.124866 -0.246224,-0.06681 C 79.621108,18.45815 79.538168,18.58 79.914557,18.58 c 0.135423,0 0.318164,-0.07562 0.406091,-0.168053 z M 67.239167,18.24 c -0.08895,-0.0935 -0.213645,-0.17 -0.27711,-0.17 -0.06347,0 -0.11539,0.0765 -0.11539,0.17 0,0.0935 0.124699,0.17 0.277109,0.17 0.15241,0 0.204336,-0.0765 0.115391,-0.17 z m 7.641147,-0.107354 c -0.06206,-0.04032 -0.334832,-0.102573 -0.606159,-0.138342 -0.271327,-0.03577 -0.699384,-0.118054 -0.951238,-0.182857 -0.839015,-0.215881 -0.471671,0.101209 0.389908,0.336567 0.740781,0.20236 1.48749,0.19253 1.167489,-0.01537 z m 2.743748,0.161225 c -0.18889,-0.04911 -0.414578,-0.04307 -0.501527,0.01342 -0.08695,0.05649 0.0676,0.09667 0.343437,0.08929 0.304827,-0.0082 0.366831,-0.04844 0.15809,-0.102708 z m 3.614271,-0.0639 c 0,-0.09902 -0.11775,-0.132753 -0.261666,-0.07497 -0.143917,0.05779 -0.261667,0.138801 -0.261667,0.180033 0,0.04123 0.11775,0.07497 0.261667,0.07497 0.143916,0 0.261666,-0.08102 0.261666,-0.180033 z M 67.330871,17.772609 c 0.309354,0.05256 0.562462,0.02622 0.562462,-0.05852 0,-0.08475 -0.35325,-0.154085 -0.785,-0.154085 -0.43175,0 -0.785,0.03199 -0.785,0.0711 0,0.0391 -0.07472,0.211228 -0.166036,0.3825 -0.153659,0.288192 -0.137071,0.287255 0.222538,-0.01257 0.256582,-0.213927 0.579631,-0.291515 0.951036,-0.228416 z M 76.920833,17.9 c -0.08894,-0.0935 -0.301957,-0.168829 -0.473359,-0.167397 -0.187253,0.0016 -0.154979,0.06838 0.08086,0.167397 0.502694,0.211059 0.593278,0.211059 0.3925,0 z m -1.266648,-0.724018 c -0.103816,-0.166943 -0.135514,-0.166626 -0.151861,0.0015 -0.01136,0.116875 -0.22672,0.211329 -0.478574,0.209897 -0.391335,-0.0022 -0.400846,-0.02657 -0.06542,-0.167397 0.285208,-0.119746 0.298869,-0.165505 0.04997,-0.167397 -0.188389,-0.0014 -0.269752,-0.0791 -0.180807,-0.172603 0.09103,-0.09569 -0.102375,-0.164134 -0.442474,-0.156579 -0.332306,0.0074 -0.457005,0.05201 -0.277109,0.09917 0.179896,0.04716 0.327083,0.197349 0.327083,0.333754 0,0.136404 0.143837,0.348045 0.319639,0.470312 0.26302,0.182928 0.382618,0.181388 0.675193,-0.0087 0.195555,-0.127049 0.296514,-0.32594 0.224353,-0.44198 z m 5.164695,-0.09765 c 0.07412,-0.07792 -0.0315,-0.141666 -0.234713,-0.141666 -0.203214,0 -0.308835,0.06375 -0.234714,0.141666 0.07412,0.07792 0.179742,0.141667 0.234714,0.141667 0.05497,0 0.160592,-0.06375 0.234713,-0.141667 z m -4.552213,-0.783918 c 0,-0.174908 -0.273887,-0.21479 -1.068013,-0.155517 -0.587406,0.04384 -1.224548,-0.0047 -1.415871,-0.107847 -0.257253,-0.138708 -0.398931,-0.130062 -0.543939,0.03319 -0.107845,0.121415 -0.10286,0.166081 0.01108,0.09926 0.113937,-0.06682 0.426092,-0.02187 0.693679,0.0999 0.682447,0.310551 2.323067,0.332456 2.323067,0.03102 z M 77.9675,16.37 c -0.08894,-0.0935 -0.419707,-0.164623 -0.735026,-0.158052 -0.552736,0.01152 -0.554529,0.01719 -0.04997,0.158052 0.720233,0.201073 0.976278,0.201073 0.785,0 z m -2.911904,-0.47471 c 0.07048,-0.07409 -0.127147,-0.147205 -0.439175,-0.162475 -0.449434,-0.022 -0.486448,0.0055 -0.178122,0.132107 0.476871,0.195884 0.460605,0.195083 0.617297,0.03037 z m 3.827737,0.06954 c 0,-0.03585 -0.2355,-0.105183 -0.523333,-0.154084 -0.287833,-0.0489 -0.523333,-0.01957 -0.523333,0.06517 0,0.08475 0.2355,0.154085 0.523333,0.154085 0.287833,0 0.523333,-0.02933 0.523333,-0.06517 z m 1.57,-1.33572 c 0,-0.194035 -0.37824,-0.155371 -0.732666,0.07489 -0.500271,0.325017 -0.363622,0.499014 0.209333,0.266548 0.287833,-0.116784 0.523333,-0.270432 0.523333,-0.341441 z M 71.949167,18.24 c -0.08895,-0.0935 -0.03702,-0.17 0.11539,-0.17 0.15241,0 0.27711,0.0765 0.27711,0.17 0,0.0935 -0.05193,0.17 -0.115391,0.17 -0.06346,0 -0.188164,-0.0765 -0.277109,-0.17 z m 0.850416,-1.203617 c -0.251854,-0.0953 -0.456113,-0.265101 -0.453909,-0.37733 0.0024,-0.124816 0.102504,-0.105032 0.257659,0.05095 0.169102,0.17 0.254989,0.184167 0.25766,0.0425 0.0022,-0.116875 0.114439,-0.2125 0.249411,-0.2125 0.134973,0 0.227665,0.153 0.205983,0.34 -0.02168,0.187 -0.0438,0.337674 -0.04915,0.33483 -0.0054,-0.0028 -0.215795,-0.08314 -0.46765,-0.178447 z M 62.112938,16.696875 c -0.299305,-0.123099 -0.284059,-0.152159 0.08093,-0.154272 0.315821,-0.0018 0.400786,-0.09117 0.285392,-0.300103 -0.17306,-0.313339 -0.132117,-0.297668 0.392292,0.150147 0.261993,0.223727 0.255709,0.294955 -0.03236,0.366771 -0.19662,0.04902 -0.523438,0.02087 -0.726262,-0.06254 z m 5.187284,-0.17797 c 0.177498,-0.116181 0.388638,-0.168414 0.469202,-0.116073 0.08056,0.05234 -0.06466,0.147398 -0.322722,0.211238 -0.372927,0.09226 -0.402983,0.07273 -0.14648,-0.09517 z M 63.5001,16.267854 C 63.31453,16.137034 63.278143,16.03 63.419241,16.03 c 0.271725,0 0.665085,0.323376 0.509878,0.419164 -0.05039,0.0311 -0.243449,-0.05049 -0.429019,-0.18131 z M 69.463333,16.115 C 69.326541,15.88125 69.089812,15.69 68.93727,15.69 c -0.194445,0 -0.193629,0.101632 0.0027,0.34 0.216639,0.262987 0.198995,0.34 -0.0779,0.34 -0.616896,0 -0.344211,-0.75825 0.294649,-0.819324 0.453268,-0.04333 0.568248,0.0312 0.568248,0.368334 0,0.232461 0.147187,0.461242 0.327083,0.508402 0.257326,0.06746 0.255945,0.08861 -0.0065,0.09917 -0.183458,0.0074 -0.445481,-0.177829 -0.582274,-0.411579 z m -2.355,-0.291177 c 0,-0.0736 0.1247,-0.133823 0.27711,-0.133823 0.15241,0 0.193092,-0.08832 0.0904,-0.196266 -0.116605,-0.122577 -0.07168,-0.150081 0.119659,-0.07325 0.168501,0.06766 0.244836,0.187694 0.169633,0.266747 -0.0752,0.07905 0.01119,0.180721 0.191982,0.225927 0.180792,0.04521 0.06378,0.07371 -0.260037,0.06334 -0.323812,-0.01037 -0.58875,-0.07907 -0.58875,-0.152674 z M 62.529167,15.69 c 0.785,-0.129773 0.785,-0.129773 0.06542,-0.149886 -0.71241,-0.01991 -0.719583,-0.0318 -0.719583,-1.191926 0,-1.200979 0.267383,-1.496562 1.153861,-1.275558 0.221862,0.05531 0.437549,-0.04865 0.541221,-0.260857 0.155054,-0.31739 0.212743,-0.32658 0.574545,-0.09152 0.240244,0.156082 0.628143,0.221199 0.963362,0.161719 0.554813,-0.09844 0.555276,-0.09651 0.04086,0.170113 -0.309486,0.160412 -0.556879,0.19842 -0.610555,0.0938 C 64.488664,13.049148 64.3257,12.97 64.176155,12.97 c -0.165019,0 -0.144757,0.09953 0.05154,0.253198 0.285413,0.223427 0.410578,0.219759 1.064477,-0.03119 0.407567,-0.156415 0.681611,-0.346854 0.608986,-0.423198 -0.16116,-0.169412 0.119418,-0.160838 0.814672,0.02489 0.479287,0.128037 0.484919,0.149993 0.06692,0.260864 -0.251028,0.06658 -0.391533,0.189264 -0.312234,0.272624 0.0793,0.08336 0.461311,0.04641 0.848914,-0.0821 0.387604,-0.128518 1.087421,-0.196054 1.55515,-0.150082 0.549068,0.05397 0.850417,0.01295 0.850417,-0.115742 0,-0.10963 -0.106875,-0.156415 -0.237501,-0.103965 -0.130625,0.05245 -0.513313,0.02356 -0.850417,-0.06419 -0.570098,-0.148408 -0.548937,-0.162675 0.302918,-0.204238 0.503708,-0.02458 -0.438292,-0.0868 -2.093333,-0.138276 -3.169085,-0.09857 -3.751562,-0.06887 -3.515555,0.179222 0.07963,0.0837 -0.190368,0.152187 -0.599985,0.152187 -0.530428,0 -0.755001,-0.08833 -0.780347,-0.306932 -0.03055,-0.263466 0.193164,-0.309535 1.579733,-0.325316 2.90963,-0.03312 3.226487,-0.11032 0.851101,-0.207377 -1.557169,-0.06363 -2.371086,-0.167894 -2.444963,-0.313217 -0.109388,-0.215175 1.609407,-0.201182 6.218349,0.05062 0.791542,0.04324 3.440917,0.124507 5.8875,0.180582 2.446583,0.05607 4.978208,0.12822 5.625833,0.160322 0.647625,0.0321 1.306769,0.06353 1.464763,0.06984 0.391529,0.01564 0.412132,1.07736 0.02402,1.237683 -0.220498,0.09108 -0.196811,0.129941 0.08122,0.133236 0.215875,0.0026 -0.0785,0.1783 -0.654166,0.390537 -1.116924,0.41179 -2.917799,0.60657 -2.609241,0.282212 0.09948,-0.10457 -0.06544,-0.226108 -0.379113,-0.279401 -0.427909,-0.0727 -0.488849,-0.146243 -0.265841,-0.320818 0.238109,-0.186396 0.13485,-0.195134 -0.583235,-0.04936 -0.479914,0.09743 -1.019758,0.168624 -1.199654,0.158213 -0.179895,-0.01041 -0.592021,-0.03153 -0.915833,-0.04694 -0.323812,-0.0154 -0.660676,-0.0965 -0.748586,-0.180206 -0.08791,-0.08371 -0.231401,-0.03103 -0.318871,0.117055 -0.120312,0.203695 0.0089,0.269254 0.53053,0.269254 1.277717,0 0.345782,0.231852 -1.03726,0.258055 -2.618082,0.0496 -2.973238,0.08335 -3.478301,0.330478 -0.485393,0.237507 -0.478905,0.244764 0.146238,0.163566 0.359792,-0.04673 1.301792,-0.03212 2.093333,0.03247 1.439167,0.117433 1.439167,0.117433 0.261667,0.34965 -0.647625,0.12772 -2.759089,0.269747 -4.692142,0.315615 -2.605586,0.06183 -3.626109,0.148936 -3.945604,0.336783 -0.237029,0.139362 -0.716065,0.244335 -1.064524,0.233272 -0.564781,-0.01793 -0.54834,-0.0342 0.151437,-0.149886 z M 66.585,14.604818 c 0,-0.03585 -0.294375,-0.101742 -0.654167,-0.146426 -0.359791,-0.04468 -0.654166,-0.01535 -0.654166,0.06518 0,0.08053 0.294375,0.146426 0.654166,0.146426 0.359792,0 0.654167,-0.02933 0.654167,-0.06518 z m 4.825752,-0.938964 c 0.08065,-0.08478 -0.08903,-0.114108 -0.377058,-0.06517 C 70.422706,13.704486 70.345473,13.82 70.887057,13.82 c 0.207382,0 0.443044,-0.06937 0.523695,-0.154146 z m 7.995915,-0.107472 C 80.3225,13.322632 80.3225,13.322632 79.145,13.390744 c -0.647625,0.03746 -1.206937,0.07287 -1.242917,0.07868 -0.03598,0.0058 -0.06542,0.08707 -0.06542,0.180572 0,0.223148 0.449001,0.196947 1.57,-0.09162 z m -2.502391,-0.945958 c 0.06871,-0.04464 -0.103193,-0.09233 -0.382017,-0.105979 -0.278825,-0.01365 -0.562687,0.03378 -0.630804,0.105381 -0.131347,0.138073 0.80037,0.138623 1.012821,5.98e-4 z M 65.8,15.739551 c 0.215875,-0.05236 0.520063,-0.160217 0.675972,-0.239678 0.171694,-0.08751 0.283473,-0.05868 0.283473,0.07309 0,0.119662 -0.304188,0.227517 -0.675973,0.239678 -0.371785,0.01216 -0.499347,-0.02073 -0.283472,-0.07309 z M 74.304167,14.67 c -0.08895,-0.0935 -0.03702,-0.17 0.11539,-0.17 0.15241,0 0.27711,0.0765 0.27711,0.17 0,0.0935 -0.05193,0.17 -0.115391,0.17 -0.06347,0 -0.188164,-0.0765 -0.277109,-0.17 z m 2.104507,-0.668253 c -0.0828,-0.08704 -0.01268,-0.213609 0.155821,-0.281267 0.182603,-0.07332 0.236521,-0.04959 0.133471,0.05873 -0.09509,0.09996 -0.02497,0.220491 0.15582,0.267845 0.235276,0.06162 0.240129,0.08991 0.01707,0.09952 -0.171402,0.0074 -0.379385,-0.05779 -0.462185,-0.144832 z"
           id="path2545" />
        <path
           style="fill:#6aadc3"
           d="m 62.072623,18.325 c 0.06878,-0.23375 0.22538,-0.425 0.348002,-0.425 0.122623,0 0.150613,0.122471 0.0622,0.272157 -0.08841,0.149687 0.0036,0.339765 0.204462,0.422397 0.278643,0.114627 0.234257,0.150857 -0.187251,0.152843 -0.448868,0.0021 -0.529015,-0.07709 -0.427413,-0.422397 z m 1.634044,0.271735 c 0,-0.176534 0.497745,-0.432093 0.645184,-0.331258 0.04787,0.03274 -0.07772,0.158164 -0.279076,0.278726 -0.20136,0.120561 -0.366108,0.144201 -0.366108,0.05253 z m 3.943391,-0.06457 c -0.01011,-0.16656 -0.195016,-0.346869 -0.410891,-0.400689 -0.215875,-0.05382 -0.3925,-0.166168 -0.3925,-0.249664 0,-0.0835 0.176625,-0.151812 0.3925,-0.151812 0.215875,0 0.3925,0.08102 0.3925,0.180033 0,0.09902 0.11775,0.132753 0.261666,0.07497 0.309495,-0.12427 0.309495,0.04208 0,0.51 -0.19685,0.297616 -0.227176,0.302249 -0.243275,0.03716 z m 2.402025,0.10065 C 70.303938,18.590055 70.51,18.479664 70.51,18.387502 c 0,-0.09216 0.130321,-0.11524 0.289603,-0.05129 0.353002,0.141739 -0.219345,0.417346 -0.812936,0.39146 -0.27811,-0.01213 -0.259044,-0.03978 0.06542,-0.09486 z M 71.818333,18.58 c 0,-0.0935 0.05193,-0.17 0.115391,-0.17 0.06347,0 0.188164,0.0765 0.277109,0.17 0.08895,0.0935 0.03702,0.17 -0.11539,0.17 -0.15241,0 -0.27711,-0.0765 -0.27711,-0.17 z m 1.308334,-0.17 c 0,-0.358544 0.380694,-0.457476 0.654166,-0.17 0.08895,0.0935 0.0076,0.171171 -0.180807,0.172603 -0.248894,0.0019 -0.235234,0.04765 0.04997,0.167397 0.33543,0.140832 0.325918,0.165172 -0.06542,0.167397 C 73.299768,18.748997 73.12666,18.621468 73.12666,18.41 z m 1.831666,0.108574 c 0,-0.157375 0.217016,-0.204473 0.678227,-0.147194 0.495238,0.06151 0.583487,0.123244 0.327084,0.228823 -0.528127,0.217467 -1.005311,0.178721 -1.005311,-0.08163 z m 2.093334,0.04941 c -0.450171,-0.100435 -0.234575,-0.117128 0.691364,-0.05353 0.831237,0.05709 1.412226,0.0223 1.520026,-0.09102 0.09597,-0.100887 0.292245,-0.183431 0.436162,-0.183431 0.143917,0 0.18878,0.07662 0.0997,0.170264 -0.101292,0.106478 0.187006,0.141236 0.769557,0.09278 0.51234,-0.04262 0.931527,-0.02302 0.931527,0.04354 0,0.175797 -3.676995,0.19348 -4.448333,0.02139 z m -8.177084,-0.275165 c -0.251854,-0.04276 -0.457916,-0.151327 -0.457916,-0.241261 0,-0.0979 0.212472,-0.08964 0.529511,0.02059 0.409699,0.142452 0.621152,0.124573 0.934524,-0.07902 0.496888,-0.322819 0.803749,-0.34953 0.401941,-0.03499 -0.16029,0.125477 -0.213957,0.278477 -0.119262,0.34 0.187613,0.121888 -0.557642,0.118808 -1.288798,-0.0053 z m 8.51415,-0.139638 c -0.376566,-0.171358 -0.621261,-0.197029 -0.73531,-0.07714 -0.09899,0.104061 -0.519198,0.13479 -0.998427,0.07301 -0.455123,-0.05867 -1.151309,-0.147388 -1.547079,-0.197155 -0.395771,-0.04977 -0.719584,-0.149381 -0.719584,-0.221364 0,-0.250126 0.933337,-0.287673 1.273314,-0.05122 0.267612,0.18612 0.423868,0.193748 0.71818,0.03506 0.206884,-0.11155 0.451808,-0.153666 0.544274,-0.09359 0.09247,0.06007 0.01112,0.109225 -0.180768,0.109225 -0.191888,0 -0.273234,0.04915 -0.180768,0.109225 0.09247,0.06007 0.370195,0.0027 0.617174,-0.1275 0.25424,-0.134026 0.368048,-0.148999 0.262335,-0.03451 -0.276616,0.299569 0.892421,0.219573 1.525426,-0.104382 0.513838,-0.262969 0.514716,-0.261195 0.04837,0.09779 -0.581794,0.447861 -0.366527,0.560058 0.802046,0.418024 0.107937,-0.01312 0.01963,-0.106398 -0.19625,-0.207287 -0.326433,-0.152557 -0.31182,-0.166426 0.08682,-0.0824 0.263625,0.05557 0.601856,0.101036 0.751623,0.101036 0.164878,0 0.143795,0.1006 -0.05344,0.255 -0.417402,0.32675 -1.297631,0.325954 -2.017934,-0.0018 z m -13.919229,-0.02804 c 0.08968,-0.335416 -0.04351,-0.57757 -0.26809,-0.487396 -0.276994,0.11122 -0.673681,-0.218475 -0.443106,-0.368275 0.08289,-0.05385 0.300745,-0.02439 0.484119,0.06548 0.183373,0.08987 0.67475,0.177353 1.091949,0.194415 0.417198,0.01706 0.895121,0.104665 1.06205,0.194671 0.204809,0.11043 0.442117,0.05847 0.72974,-0.159765 0.394563,-0.299384 0.39342,-0.329651 -0.01538,-0.407375 -0.242888,-0.04618 -0.065,-0.05816 0.395313,-0.02664 0.465831,0.03191 0.891762,-0.02971 0.960592,-0.138963 0.06802,-0.107959 0.13296,-0.02507 0.144322,0.184207 0.01609,0.296442 -0.1094,0.37155 -0.568092,0.34 -0.40118,-0.02759 -0.579214,0.04633 -0.558817,0.232021 0.03039,0.27664 -0.702125,0.297722 -2.210608,0.06362 -0.361659,-0.05612 -0.546644,-0.02746 -0.453648,0.0703 0.08636,0.09079 0.03444,0.21429 -0.115392,0.27445 -0.14983,0.06016 -0.255557,0.04632 -0.234948,-0.03075 z m 8.806746,-0.121784 c -0.60287,-0.297322 -0.578554,-0.353834 0.164174,-0.381563 0.487931,-0.01822 0.593941,0.0458 0.49263,0.2975 -0.071,0.176391 -0.144795,0.318278 -0.163989,0.315304 -0.01919,-0.003 -0.240961,-0.107032 -0.492815,-0.231241 z M 80.584167,18.07 c -0.08895,-0.0935 -0.03702,-0.17 0.11539,-0.17 0.15241,0 0.27711,0.0765 0.27711,0.17 0,0.0935 -0.05193,0.17 -0.115391,0.17 -0.06347,0 -0.188164,-0.0765 -0.277109,-0.17 z M 61.991742,17.545188 c -0.0967,-0.101647 -0.06054,-0.259703 0.08035,-0.351235 0.167102,-0.108563 0.305312,-0.04431 0.397537,0.184812 0.148576,0.36912 -0.177155,0.482554 -0.477887,0.166423 z m 5.901591,-0.05471 c 0,-0.125867 0.151393,-0.310478 0.336429,-0.410247 0.254258,-0.137093 0.336429,-0.101684 0.336429,0.144975 0,0.179506 -0.151393,0.364117 -0.336429,0.410248 -0.185036,0.04613 -0.336429,-0.01911 -0.336429,-0.144976 z m 3.13624,0.06441 c -0.328758,-0.135047 -0.318084,-0.160088 0.06918,-0.16229 0.251854,-0.0014 0.457917,-0.09185 0.457917,-0.200936 0,-0.109084 0.06967,-0.153071 0.154818,-0.09775 0.08515,0.05532 0.05402,0.217601 -0.06918,0.360623 -0.15635,0.181509 -0.341395,0.211815 -0.612736,0.100354 z m 5.237094,-0.147165 c -0.532627,-0.09639 -0.572643,-0.138739 -0.215382,-0.22795 0.248247,-0.06199 0.574633,-0.0032 0.751624,0.135327 0.17206,0.134692 0.268982,0.237269 0.215381,0.227949 -0.0536,-0.0093 -0.391832,-0.07022 -0.751623,-0.135326 z M 64.372008,17.231747 c -0.193513,-0.203423 0.298725,-0.404979 0.64726,-0.265033 0.292637,0.117501 0.100524,0.423286 -0.265935,0.423286 -0.126929,0 -0.298526,-0.07121 -0.381325,-0.158253 z m 16.526505,-0.124635 c 0.112349,-0.19021 0.0668,-0.242617 -0.139046,-0.159967 -0.173835,0.0698 -0.307865,0.02675 -0.310141,-0.09961 -0.003,-0.164224 -0.06779,-0.157007 -0.247439,0.02754 -0.133887,0.137542 -0.3205,0.200007 -0.414695,0.13881 -0.306184,-0.198922 0.11856,-0.432985 0.925316,-0.509912 0.72839,-0.06945 0.78459,-0.03835 0.732545,0.4054 -0.031,0.264344 -0.204253,0.480625 -0.384999,0.480625 -0.19901,0 -0.262726,-0.111578 -0.161541,-0.282888 z m -17.644312,-0.15982 c 0.08695,-0.05649 0.312638,-0.06253 0.501528,-0.01342 0.20874,0.05427 0.146737,0.09455 -0.15809,0.102708 -0.27584,0.0074 -0.430387,-0.0328 -0.343438,-0.08929 z m 12.073277,-0.09184 C 75.251378,16.775452 74.842814,16.71 74.419557,16.71 73.996301,16.71 73.65,16.639109 73.65,16.552465 c 0,-0.08664 -0.147187,-0.190415 -0.327083,-0.230601 -0.179896,-0.04019 -0.09158,-0.04298 0.19625,-0.0062 0.287833,0.03677 1.023085,0.107264 1.633894,0.156659 1.052125,0.08508 1.107765,0.06786 1.057427,-0.327288 -0.03668,-0.287901 -0.171076,-0.387692 -0.433903,-0.322168 -0.231256,0.05765 -0.3119,0.02253 -0.20538,-0.08944 0.09646,-0.101403 0.02747,-0.223114 -0.153325,-0.270468 -0.180792,-0.04735 0.171724,-0.09214 0.78337,-0.09952 1.006269,-0.01214 1.112083,-0.05386 1.112083,-0.438421 0,-0.541619 0.772294,-0.581843 0.815987,-0.0425 0.01704,0.210375 0.01704,0.439875 0,0.51 -0.01704,0.07012 0.145638,0.1275 0.361513,0.1275 0.215875,0 0.378556,-0.05738 0.361514,-0.1275 -0.09797,-0.403092 0.0688,-0.8925 0.304124,-0.8925 0.150225,0 0.254024,0.09563 0.230663,0.2125 -0.137441,0.687634 0.02083,0.8075 1.066199,0.8075 0.78728,0 1.046667,0.06776 1.046667,0.273429 0,0.208392 -0.17116,0.250433 -0.719583,0.176747 -0.395771,-0.05318 -0.572396,-0.05509 -0.3925,-0.0043 0.179896,0.05083 0.327083,0.162545 0.327083,0.248254 0,0.08571 -0.147187,0.156304 -0.327083,0.15688 -0.179896,5.76e-4 -0.669585,0.117089 -1.088199,0.258917 -0.847835,0.287251 -3.756419,0.452357 -3.97224,0.225485 z M 78.098333,16.37 c -0.215875,-0.09064 -0.628,-0.160588 -0.915833,-0.155448 -0.523333,0.0093 -0.523333,0.0093 0,0.155448 0.287833,0.08036 0.699958,0.150308 0.915833,0.155448 0.348889,0.0083 0.348889,-0.009 0,-0.155448 z m 0.3925,-0.51 c -0.287833,-0.08036 -0.817708,-0.146103 -1.1775,-0.146103 -0.596289,0 -0.607864,0.01293 -0.130833,0.146103 0.287833,0.08036 0.817708,0.146103 1.1775,0.146103 0.596289,0 0.607865,-0.01293 0.130833,-0.146103 z m -5.625833,0 c -0.235838,-0.09902 -0.268112,-0.165833 -0.08086,-0.167397 0.171402,-0.0014 0.384414,0.0739 0.473359,0.167397 0.200778,0.211059 0.110194,0.211059 -0.3925,0 z m 0.785,-0.085 c -0.225061,-0.176182 -0.234964,-0.255 -0.03204,-0.255 0.161539,0 0.293707,0.07089 0.293707,0.157535 0,0.08664 0.206062,0.19252 0.457916,0.23528 0.386342,0.06559 0.39135,0.08083 0.03204,0.09747 C 74.167391,16.021126 73.82916,15.91525 73.65,15.775 z m -4.900799,-0.187708 c 0.08695,-0.05649 0.312638,-0.06253 0.501528,-0.01342 0.20874,0.05427 0.146737,0.09455 -0.15809,0.102708 -0.27584,0.0074 -0.430387,-0.0328 -0.343438,-0.08929 z m 5.495,0 c 0.08695,-0.05649 0.312638,-0.06253 0.501528,-0.01342 0.20874,0.05427 0.146737,0.09455 -0.15809,0.102708 -0.27584,0.0074 -0.430387,-0.0328 -0.343438,-0.08929 z M 61.875,14.371295 c 0,-1.267602 0.200836,-1.468711 1.283095,-1.28484 0.433552,0.07366 0.548572,0.01521 0.548572,-0.27877 0,-0.341492 0.03442,-0.349609 0.420072,-0.09906 0.25536,0.165902 0.640114,0.23387 0.98125,0.17334 0.554813,-0.09844 0.555276,-0.09651 0.04086,0.170113 -0.309486,0.160412 -0.556879,0.19842 -0.610555,0.0938 C 64.488664,13.049148 64.3257,12.97 64.176155,12.97 c -0.165019,0 -0.144757,0.09953 0.05154,0.253198 0.285413,0.223427 0.410578,0.219759 1.064477,-0.03119 0.407567,-0.156415 0.681611,-0.346854 0.608986,-0.423198 -0.16116,-0.169412 0.119418,-0.160838 0.814672,0.02489 0.479287,0.128037 0.484919,0.149993 0.06692,0.260864 -0.251028,0.06658 -0.391533,0.189264 -0.312234,0.272624 0.0793,0.08336 0.461311,0.04641 0.848914,-0.0821 0.387604,-0.128518 1.087421,-0.196054 1.55515,-0.150082 0.549068,0.05397 0.850417,0.01295 0.850417,-0.115742 0,-0.10963 -0.106875,-0.156415 -0.237501,-0.103965 -0.130625,0.05245 -0.513313,0.01941 -0.850417,-0.07342 -0.528123,-0.145431 -0.540516,-0.166287 -0.08958,-0.150753 0.287833,0.0099 0.699958,-0.006 0.915833,-0.03546 0.215875,-0.02942 -0.961625,-0.0956 -2.616666,-0.147076 -3.169085,-0.09857 -3.751562,-0.06887 -3.515555,0.179222 0.07963,0.0837 -0.190368,0.152187 -0.599985,0.152187 -0.530428,0 -0.755001,-0.08833 -0.780347,-0.306932 -0.03055,-0.263466 0.193164,-0.309535 1.579733,-0.325316 2.90963,-0.03312 3.226487,-0.11032 0.851101,-0.207377 -1.557169,-0.06363 -2.371086,-0.167894 -2.444963,-0.313217 -0.10933,-0.21506 1.526637,-0.202155 6.218349,0.04905 0.791542,0.04238 3.323167,0.120741 5.625833,0.174131 2.302667,0.05339 4.936985,0.127999 5.85404,0.165795 1.628653,0.06712 2.324838,0.224102 1.668877,0.376304 -0.179896,0.04174 -0.327083,0.150533 -0.327083,0.24176 0,0.09123 0.11775,0.118586 0.261666,0.0608 0.143917,-0.05779 0.261667,0.01274 0.261667,0.156728 0,0.301925 -0.439039,0.376537 -3.14,0.533623 -3.300539,0.191957 -4.310685,0.199757 -4.477336,0.03457 -0.08791,-0.08714 -0.231401,-0.03727 -0.318871,0.110823 -0.105575,0.178744 -0.0079,0.27495 0.290669,0.2862 0.284934,0.01074 0.21002,0.06495 -0.204462,0.147959 -0.487038,0.09754 -0.76516,0.04978 -1.08861,-0.186945 -0.497502,-0.364111 -0.837691,-0.417406 -0.678031,-0.106223 0.06619,0.129002 -0.308713,0.285492 -0.959445,0.40049 -0.587444,0.103813 -1.293459,0.251032 -1.568922,0.327152 -0.386764,0.106876 -0.456845,0.08342 -0.307679,-0.102989 0.120471,-0.15055 0.06277,-0.139813 -0.153325,0.02853 -0.190568,0.148457 -0.523113,0.313694 -0.738988,0.367194 -0.215875,0.0535 -0.01005,0.08504 0.457397,0.07008 0.467443,-0.01496 0.85013,-0.069 0.850416,-0.120093 2.86e-4,-0.0511 0.324333,-0.08008 0.720104,-0.06442 0.395771,0.01566 1.10922,0.03834 1.585442,0.0504 0.513185,0.01299 0.798915,0.09229 0.701503,0.194694 -0.0904,0.09503 -0.271253,0.129851 -0.401905,0.07739 -0.130652,-0.05246 -0.692532,-0.01579 -1.248623,0.0815 -0.556091,0.09728 -2.236745,0.208215 -3.734787,0.246515 -1.498043,0.0383 -3.283026,0.125528 -3.96663,0.193838 C 61.875,15.566214 61.875,15.566214 61.875,14.371295 z m 4.71,0.233523 c 0,-0.03585 -0.294375,-0.101742 -0.654167,-0.146426 -0.359791,-0.04468 -0.654166,-0.01535 -0.654166,0.06518 0,0.08053 0.294375,0.146426 0.654166,0.146426 0.359792,0 0.654167,-0.02933 0.654167,-0.06518 z m 0.58875,-0.227258 c -0.510742,-0.118508 -0.385272,-0.383321 0.261667,-0.552262 0.512595,-0.13386 0.523896,-0.15514 0.08737,-0.164522 -0.275761,-0.0059 -0.696545,0.122775 -0.935076,0.286004 -0.404996,0.277141 -0.397792,0.309001 0.108883,0.48148 0.298416,0.101586 0.601451,0.148812 0.673409,0.104947 0.07196,-0.04387 -0.01635,-0.113906 -0.19625,-0.155647 z m -3.990417,-0.907593 c 0,-0.08798 -0.09812,-0.159967 -0.218055,-0.159967 -0.119931,0 -0.218056,0.111385 -0.218056,0.247522 0,0.136137 0.09812,0.208122 0.218056,0.159967 0.11993,-0.04816 0.218055,-0.15954 0.218055,-0.247522 z m 8.373334,0.195948 c 0,-0.08475 -0.2355,-0.114074 -0.523334,-0.06517 C 70.7455,13.649644 70.51,13.718982 70.51,13.754827 c 0,0.03585 0.2355,0.06517 0.523333,0.06517 0.287834,0 0.523334,-0.06934 0.523334,-0.154085 z M 70.651593,12.81131 C 70.55673,12.71159 70.363671,12.63 70.222574,12.63 c -0.141097,0 -0.104711,0.107034 0.08086,0.237854 0.375664,0.264828 0.616646,0.225691 0.34816,-0.05654 z m 6.307521,-0.234514 C 77.05799,12.512558 76.890713,12.46 76.587387,12.46 c -0.303326,0 -0.611865,0.06345 -0.685641,0.141009 -0.158959,0.167098 0.796578,0.145218 1.057368,-0.02421 z m -0.692447,2.253171 c 0,-0.192518 0.112607,-0.304818 0.250238,-0.249556 0.137631,0.05526 0.183909,0.212778 0.102838,0.350033 -0.207561,0.351409 -0.353076,0.309999 -0.353076,-0.100477 z m 4.241162,0.23508 C 80.248275,14.997387 80.240528,14.921588 80.474452,14.738468 80.694307,14.566361 80.697347,14.5 80.485373,14.5 c -0.161538,0 -0.293706,-0.06694 -0.293706,-0.14875 0,-0.08181 0.276874,-0.14875 0.615276,-0.14875 0.498291,0 0.619343,0.09293 0.636665,0.48875 0.02071,0.473256 -0.206332,0.563949 -0.935779,0.373797 z m -2.267106,-1.054948 c 0.137561,-0.08354 0.544485,-0.198027 0.904277,-0.254423 0.359792,-0.0564 0.506245,-0.05846 0.325453,-0.0046 -0.180792,0.05387 -0.277594,0.151688 -0.215114,0.217367 0.06248,0.06568 -0.196524,0.136091 -0.575563,0.156472 -0.414749,0.0223 -0.589573,-0.02342 -0.439053,-0.114829 z"
           id="path2543" />
        <path
           style="fill:#b3946d"
           d="m 62.072623,18.325 c 0.06878,-0.23375 0.22538,-0.425 0.348002,-0.425 0.122623,0 0.150613,0.122471 0.0622,0.272157 -0.08841,0.149687 0.0036,0.339765 0.204462,0.422397 0.278643,0.114627 0.234257,0.150857 -0.187251,0.152843 -0.448868,0.0021 -0.529015,-0.07709 -0.427413,-0.422397 z m 1.634044,0.271735 c 0,-0.176534 0.497745,-0.432093 0.645184,-0.331258 0.04787,0.03274 -0.07772,0.158164 -0.279076,0.278726 -0.20136,0.120561 -0.366108,0.144201 -0.366108,0.05253 z m 3.943391,-0.06457 c -0.01011,-0.16656 -0.195016,-0.346869 -0.410891,-0.400689 -0.215875,-0.05382 -0.3925,-0.166168 -0.3925,-0.249664 0,-0.0835 0.176625,-0.151812 0.3925,-0.151812 0.215875,0 0.3925,0.08102 0.3925,0.180033 0,0.09902 0.11775,0.132753 0.261666,0.07497 0.309495,-0.12427 0.309495,0.04208 0,0.51 -0.19685,0.297616 -0.227176,0.302249 -0.243275,0.03716 z m 2.402025,0.10065 C 70.303938,18.590055 70.51,18.479664 70.51,18.387502 c 0,-0.09216 0.130321,-0.11524 0.289603,-0.05129 0.353002,0.141739 -0.219345,0.417346 -0.812936,0.39146 -0.27811,-0.01213 -0.259044,-0.03978 0.06542,-0.09486 z M 71.818333,18.58 c 0,-0.0935 0.05193,-0.17 0.115391,-0.17 0.06347,0 0.188164,0.0765 0.277109,0.17 0.08895,0.0935 0.03702,0.17 -0.11539,0.17 -0.15241,0 -0.27711,-0.0765 -0.27711,-0.17 z m 1.308334,-0.17 c 0,-0.358544 0.380694,-0.457476 0.654166,-0.17 0.08895,0.0935 0.0076,0.171171 -0.180807,0.172603 -0.248894,0.0019 -0.235234,0.04765 0.04997,0.167397 0.33543,0.140832 0.325918,0.165172 -0.06542,0.167397 C 73.299768,18.748997 73.12666,18.621468 73.12666,18.41 z m 1.831666,0.108574 c 0,-0.157375 0.217016,-0.204473 0.678227,-0.147194 0.495238,0.06151 0.583487,0.123244 0.327084,0.228823 -0.528127,0.217467 -1.005311,0.178721 -1.005311,-0.08163 z m 2.093334,0.04941 c -0.450171,-0.100435 -0.234575,-0.117128 0.691364,-0.05353 0.831237,0.05709 1.412226,0.0223 1.520026,-0.09102 0.09597,-0.100887 0.292245,-0.183431 0.436162,-0.183431 0.143917,0 0.18878,0.07662 0.0997,0.170264 -0.101292,0.106478 0.187006,0.141236 0.769557,0.09278 0.51234,-0.04262 0.931527,-0.02302 0.931527,0.04354 0,0.175797 -3.676995,0.19348 -4.448333,0.02139 z m -8.177084,-0.275165 c -0.251854,-0.04276 -0.457916,-0.151327 -0.457916,-0.241261 0,-0.0979 0.212472,-0.08964 0.529511,0.02059 0.409699,0.142452 0.621152,0.124573 0.934524,-0.07902 0.496888,-0.322819 0.803749,-0.34953 0.401941,-0.03499 -0.16029,0.125477 -0.213957,0.278477 -0.119262,0.34 0.187613,0.121888 -0.557642,0.118808 -1.288798,-0.0053 z m 8.51415,-0.139638 c -0.376566,-0.171358 -0.621261,-0.197029 -0.73531,-0.07714 -0.09899,0.104061 -0.519198,0.13479 -0.998427,0.07301 -0.455123,-0.05867 -1.151309,-0.147388 -1.547079,-0.197155 -0.395771,-0.04977 -0.719584,-0.149381 -0.719584,-0.221364 0,-0.250126 0.933337,-0.287673 1.273314,-0.05122 0.267612,0.18612 0.423868,0.193748 0.71818,0.03506 0.206884,-0.11155 0.451808,-0.153666 0.544274,-0.09359 0.09247,0.06007 0.01112,0.109225 -0.180768,0.109225 -0.191888,0 -0.273234,0.04915 -0.180768,0.109225 0.09247,0.06007 0.370195,0.0027 0.617174,-0.1275 0.25424,-0.134026 0.368048,-0.148999 0.262335,-0.03451 -0.276616,0.299569 0.892421,0.219573 1.525426,-0.104382 0.513838,-0.262969 0.514716,-0.261195 0.04837,0.09779 -0.581794,0.447861 -0.366527,0.560058 0.802046,0.418024 0.107937,-0.01312 0.01963,-0.106398 -0.19625,-0.207287 -0.326433,-0.152557 -0.31182,-0.166426 0.08682,-0.0824 0.263625,0.05557 0.601856,0.101036 0.751623,0.101036 0.164878,0 0.143795,0.1006 -0.05344,0.255 -0.417402,0.32675 -1.297631,0.325954 -2.017934,-0.0018 z m -13.919229,-0.02804 c 0.08968,-0.335416 -0.04351,-0.57757 -0.26809,-0.487396 -0.276994,0.11122 -0.673681,-0.218475 -0.443106,-0.368275 0.08289,-0.05385 0.300745,-0.02439 0.484119,0.06548 0.183373,0.08987 0.67475,0.177353 1.091949,0.194415 0.417198,0.01706 0.895121,0.104665 1.06205,0.194671 0.204809,0.11043 0.442117,0.05847 0.72974,-0.159765 0.394563,-0.299384 0.39342,-0.329651 -0.01538,-0.407375 -0.242888,-0.04618 -0.065,-0.05816 0.395313,-0.02664 0.465831,0.03191 0.891762,-0.02971 0.960592,-0.138963 0.06802,-0.107959 0.13296,-0.02507 0.144322,0.184207 0.01609,0.296442 -0.1094,0.37155 -0.568092,0.34 -0.40118,-0.02759 -0.579214,0.04633 -0.558817,0.232021 0.03039,0.27664 -0.702125,0.297722 -2.210608,0.06362 -0.361659,-0.05612 -0.546644,-0.02746 -0.453648,0.0703 0.08636,0.09079 0.03444,0.21429 -0.115392,0.27445 -0.14983,0.06016 -0.255557,0.04632 -0.234948,-0.03075 z m 8.806746,-0.121784 c -0.60287,-0.297322 -0.578554,-0.353834 0.164174,-0.381563 0.487931,-0.01822 0.593941,0.0458 0.49263,0.2975 -0.071,0.176391 -0.144795,0.318278 -0.163989,0.315304 -0.01919,-0.003 -0.240961,-0.107032 -0.492815,-0.231241 z M 80.584167,18.07 c -0.08895,-0.0935 -0.03702,-0.17 0.11539,-0.17 0.15241,0 0.27711,0.0765 0.27711,0.17 0,0.0935 -0.05193,0.17 -0.115391,0.17 -0.06347,0 -0.188164,-0.0765 -0.277109,-0.17 z M 61.991742,17.545188 c -0.0967,-0.101647 -0.06054,-0.259703 0.08035,-0.351235 0.167102,-0.108563 0.305312,-0.04431 0.397537,0.184812 0.148576,0.36912 -0.177155,0.482554 -0.477887,0.166423 z m 5.901591,-0.05471 c 0,-0.125867 0.151393,-0.310478 0.336429,-0.410247 0.254258,-0.137093 0.336429,-0.101684 0.336429,0.144975 0,0.179506 -0.151393,0.364117 -0.336429,0.410248 -0.185036,0.04613 -0.336429,-0.01911 -0.336429,-0.144976 z m 3.13624,0.06441 c -0.328758,-0.135047 -0.318084,-0.160088 0.06918,-0.16229 0.251854,-0.0014 0.457917,-0.09185 0.457917,-0.200936 0,-0.109084 0.06967,-0.153071 0.154818,-0.09775 0.08515,0.05532 0.05402,0.217601 -0.06918,0.360623 -0.15635,0.181509 -0.341395,0.211815 -0.612736,0.100354 z m 5.237094,-0.147165 c -0.532627,-0.09639 -0.572643,-0.138739 -0.215382,-0.22795 0.248247,-0.06199 0.574633,-0.0032 0.751624,0.135327 0.17206,0.134692 0.268982,0.237269 0.215381,0.227949 -0.0536,-0.0093 -0.391832,-0.07022 -0.751623,-0.135326 z M 64.372008,17.231747 c -0.193513,-0.203423 0.298725,-0.404979 0.64726,-0.265033 0.292637,0.117501 0.100524,0.423286 -0.265935,0.423286 -0.126929,0 -0.298526,-0.07121 -0.381325,-0.158253 z m 16.526505,-0.124635 c 0.112349,-0.19021 0.0668,-0.242617 -0.139046,-0.159967 -0.173835,0.0698 -0.307865,0.02675 -0.310141,-0.09961 -0.003,-0.164224 -0.06779,-0.157007 -0.247439,0.02754 -0.133887,0.137542 -0.3205,0.200007 -0.414695,0.13881 -0.306184,-0.198922 0.11856,-0.432985 0.925316,-0.509912 0.72839,-0.06945 0.78459,-0.03835 0.732545,0.4054 -0.031,0.264344 -0.204253,0.480625 -0.384999,0.480625 -0.19901,0 -0.262726,-0.111578 -0.161541,-0.282888 z m -17.644312,-0.15982 c 0.08695,-0.05649 0.312638,-0.06253 0.501528,-0.01342 0.20874,0.05427 0.146737,0.09455 -0.15809,0.102708 -0.27584,0.0074 -0.430387,-0.0328 -0.343438,-0.08929 z m 12.073277,-0.09184 C 75.251378,16.775452 74.842814,16.71 74.419557,16.71 73.996301,16.71 73.65,16.639109 73.65,16.552465 c 0,-0.08664 -0.147187,-0.190415 -0.327083,-0.230601 -0.179896,-0.04019 -0.09158,-0.04298 0.19625,-0.0062 0.287833,0.03677 1.023085,0.107264 1.633894,0.156659 1.052125,0.08508 1.107765,0.06786 1.057427,-0.327288 -0.03668,-0.287901 -0.171076,-0.387692 -0.433903,-0.322168 -0.231256,0.05765 -0.3119,0.02253 -0.20538,-0.08944 0.09646,-0.101403 0.02747,-0.223114 -0.153325,-0.270468 -0.180792,-0.04735 0.171724,-0.09214 0.78337,-0.09952 0.909413,-0.01098 1.112083,-0.07207 1.112083,-0.335233 0,-0.478663 0.777209,-0.612346 0.815987,-0.140353 0.01704,0.207441 0.01704,0.43454 0,0.504665 -0.01704,0.07012 0.145638,0.1275 0.361513,0.1275 0.215875,0 0.378556,-0.05738 0.361514,-0.1275 -0.09797,-0.403092 0.0688,-0.8925 0.304124,-0.8925 0.150225,0 0.254024,0.09563 0.230663,0.2125 -0.137441,0.687634 0.02083,0.8075 1.066199,0.8075 0.78728,0 1.046667,0.06776 1.046667,0.273429 0,0.208392 -0.17116,0.250433 -0.719583,0.176747 -0.395771,-0.05318 -0.572396,-0.05509 -0.3925,-0.0043 0.179896,0.05083 0.327083,0.162545 0.327083,0.248254 0,0.08571 -0.147187,0.156304 -0.327083,0.15688 -0.179896,5.76e-4 -0.669585,0.117089 -1.088199,0.258917 -0.847835,0.287251 -3.756419,0.452357 -3.97224,0.225485 z M 78.098333,16.37 c -0.215875,-0.09064 -0.628,-0.160588 -0.915833,-0.155448 -0.523333,0.0093 -0.523333,0.0093 0,0.155448 0.287833,0.08036 0.699958,0.150308 0.915833,0.155448 0.348889,0.0083 0.348889,-0.009 0,-0.155448 z m 0.3925,-0.51 c -0.287833,-0.08036 -0.817708,-0.146103 -1.1775,-0.146103 -0.596289,0 -0.607864,0.01293 -0.130833,0.146103 0.287833,0.08036 0.817708,0.146103 1.1775,0.146103 0.596289,0 0.607865,-0.01293 0.130833,-0.146103 z m -5.625833,0 c -0.235838,-0.09902 -0.268112,-0.165833 -0.08086,-0.167397 0.171402,-0.0014 0.384414,0.0739 0.473359,0.167397 0.200778,0.211059 0.110194,0.211059 -0.3925,0 z m 0.785,-0.085 c -0.225061,-0.176182 -0.234964,-0.255 -0.03204,-0.255 0.161539,0 0.293707,0.07089 0.293707,0.157535 0,0.08664 0.206062,0.19252 0.457916,0.23528 0.386342,0.06559 0.39135,0.08083 0.03204,0.09747 C 74.167391,16.021126 73.82916,15.91525 73.65,15.775 z m -4.900799,-0.187708 c 0.08695,-0.05649 0.312638,-0.06253 0.501528,-0.01342 0.20874,0.05427 0.146737,0.09455 -0.15809,0.102708 -0.27584,0.0074 -0.430387,-0.0328 -0.343438,-0.08929 z m 5.495,0 c 0.08695,-0.05649 0.312638,-0.06253 0.501528,-0.01342 0.20874,0.05427 0.146737,0.09455 -0.15809,0.102708 -0.27584,0.0074 -0.430387,-0.0328 -0.343438,-0.08929 z M 61.875,14.371295 c 0,-1.286821 0.314371,-1.576895 1.327289,-1.224704 0.42006,0.146054 0.504378,0.118425 0.504378,-0.165274 0,-0.240968 0.121271,-0.310412 0.414439,-0.237324 0.281717,0.07023 0.31965,0.141383 0.118448,0.222171 -0.212931,0.0855 -0.19732,0.172051 0.05563,0.30844 0.264526,0.142629 0.527376,0.114688 1.061161,-0.112803 0.390245,-0.166317 0.630088,-0.354011 0.532984,-0.417098 -0.231344,-0.150299 0.169398,-0.126542 0.826502,0.049 0.479287,0.128037 0.484919,0.149993 0.06692,0.260864 -0.251028,0.06658 -0.391533,0.189264 -0.312234,0.272624 0.0793,0.08336 0.461311,0.04791 0.848914,-0.07878 0.406789,-0.132958 1.134681,-0.195558 1.721696,-0.148069 0.689272,0.05576 0.960597,0.02302 0.842037,-0.101612 -0.09621,-0.101136 -0.335869,-0.143759 -0.532578,-0.09472 -0.196709,0.04904 -0.428125,0.01508 -0.514257,-0.07546 -0.09041,-0.09504 0.183204,-0.149339 0.647352,-0.128463 0.442176,0.01989 0.911059,0.146129 1.041963,0.280535 0.130904,0.134405 0.23981,0.164048 0.242014,0.06587 0.0022,-0.09817 -0.134537,-0.268509 -0.303868,-0.37852 -0.236055,-0.153361 -0.174785,-0.183369 0.262651,-0.128638 0.313788,0.03926 0.706025,0.125789 0.871637,0.192287 0.186209,0.07477 0.229867,0.04601 0.114407,-0.07536 C 71.601854,12.539969 71.691997,12.46 71.933724,12.46 c 0.224368,0 0.407943,0.07116 0.407943,0.158133 0,0.09631 0.319974,0.09851 0.818422,0.0056 0.881002,-0.164154 1.795293,0.03608 1.802251,0.394708 0.0031,0.157685 0.05297,0.156427 0.211064,-0.0053 0.113882,-0.116512 0.848017,-0.253514 1.631411,-0.304449 0.783393,-0.05094 1.865951,-0.120466 2.405684,-0.154514 0.543196,-0.03427 0.915988,0.0068 0.834974,0.09195 -0.214568,0.225555 0.251061,0.187722 0.617194,-0.05015 0.244222,-0.158667 0.314,-0.156437 0.314,0.01003 0,0.117718 0.11775,0.166753 0.261666,0.108967 0.143917,-0.05779 0.261667,0.01274 0.261667,0.156728 0,0.301925 -0.439039,0.376537 -3.14,0.533623 -3.300539,0.191957 -4.310685,0.199757 -4.477336,0.03457 -0.08791,-0.08714 -0.231401,-0.03727 -0.318871,0.110823 -0.105575,0.178744 -0.0079,0.27495 0.290669,0.2862 0.284934,0.01074 0.21002,0.06495 -0.204462,0.147959 -0.487038,0.09754 -0.76516,0.04978 -1.08861,-0.186945 -0.497502,-0.364111 -0.837691,-0.417406 -0.678031,-0.106223 0.06619,0.129002 -0.308713,0.285492 -0.959445,0.40049 -0.587444,0.103813 -1.293459,0.251032 -1.568922,0.327152 -0.386764,0.106876 -0.456845,0.08342 -0.307679,-0.102989 0.120471,-0.15055 0.06277,-0.139813 -0.153325,0.02853 -0.190568,0.148457 -0.523113,0.313694 -0.738988,0.367194 -0.215875,0.0535 -0.01005,0.08504 0.457397,0.07008 0.467443,-0.01496 0.85013,-0.069 0.850416,-0.120093 2.86e-4,-0.0511 0.324333,-0.08008 0.720104,-0.06442 0.395771,0.01566 1.10922,0.03834 1.585442,0.0504 0.513185,0.01299 0.798915,0.09229 0.701503,0.194694 -0.0904,0.09503 -0.271253,0.129851 -0.401905,0.07739 -0.130652,-0.05246 -0.692532,-0.01579 -1.248623,0.0815 -0.556091,0.09728 -2.236745,0.208215 -3.734787,0.246515 -1.498043,0.0383 -3.283026,0.125528 -3.96663,0.193838 C 61.875,15.566214 61.875,15.566214 61.875,14.371295 z m 4.688195,0.23762 c -0.308283,-0.172721 -1.576086,-0.275767 -1.423844,-0.115729 0.09251,0.09725 0.475252,0.176814 0.850536,0.176814 0.375284,0 0.633273,-0.02749 0.573308,-0.06109 z M 67.17375,14.37756 c -0.510742,-0.118508 -0.385272,-0.383321 0.261667,-0.552262 0.512595,-0.13386 0.523896,-0.15514 0.08737,-0.164522 -0.275761,-0.0059 -0.696545,0.122775 -0.935076,0.286004 -0.404996,0.277141 -0.397792,0.309001 0.108883,0.48148 0.298416,0.101586 0.601451,0.148812 0.673409,0.104947 0.07196,-0.04387 -0.01635,-0.113906 -0.19625,-0.155647 z m -4.186426,-1.092904 c -0.226457,-0.147125 -0.290278,-0.105662 -0.258551,0.167976 0.02775,0.239294 0.130386,0.305978 0.300676,0.195344 0.17029,-0.110635 0.15591,-0.23466 -0.04212,-0.36332 z m 8.569343,0.381259 c 0,-0.08475 -0.2355,-0.114074 -0.523334,-0.06517 C 70.7455,13.649644 70.51,13.718982 70.51,13.754827 c 0,0.03585 0.2355,0.06517 0.523333,0.06517 0.287834,0 0.523334,-0.06934 0.523334,-0.154085 z m 4.71,1.164052 c 0,-0.192518 0.112607,-0.304818 0.250238,-0.249556 0.137631,0.05526 0.183909,0.212778 0.102838,0.350033 -0.207561,0.351409 -0.353076,0.309999 -0.353076,-0.100477 z m 4.241162,0.23508 C 80.248275,14.997387 80.240528,14.921588 80.474452,14.738468 80.694307,14.566361 80.697347,14.5 80.485373,14.5 c -0.161538,0 -0.293706,-0.06694 -0.293706,-0.14875 0,-0.08181 0.276874,-0.14875 0.615276,-0.14875 0.498291,0 0.619343,0.09293 0.636665,0.48875 0.02071,0.473256 -0.206332,0.563949 -0.935779,0.373797 z m -2.267106,-1.054948 c 0.137561,-0.08354 0.544485,-0.198027 0.904277,-0.254423 0.359792,-0.0564 0.506245,-0.05846 0.325453,-0.0046 -0.180792,0.05387 -0.277594,0.151688 -0.215114,0.217367 0.06248,0.06568 -0.196524,0.136091 -0.575563,0.156472 -0.414749,0.0223 -0.589573,-0.02342 -0.439053,-0.114829 z"
           id="path2541" />
        <path
           style="fill:#9a6e4e"
           d="m 71.818333,18.58 c 0,-0.0935 0.05193,-0.17 0.115391,-0.17 0.06347,0 0.188164,0.0765 0.277109,0.17 0.08895,0.0935 0.03702,0.17 -0.11539,0.17 -0.15241,0 -0.27711,-0.0765 -0.27711,-0.17 z M 77.1825,18.07 c -0.08895,-0.0935 -0.04397,-0.17 0.09995,-0.17 0.143916,0 0.33444,0.0765 0.423385,0.17 0.08895,0.0935 0.04397,0.17 -0.09995,0.17 -0.143917,0 -0.334441,-0.0765 -0.423386,-0.17 z M 64.884167,17.73 c -0.08895,-0.0935 -0.03702,-0.17 0.11539,-0.17 0.15241,0 0.27711,0.0765 0.27711,0.17 0,0.0935 -0.05193,0.17 -0.115391,0.17 -0.06347,0 -0.188164,-0.0765 -0.277109,-0.17 z M 62.049444,17.616667 C 61.805536,17.458204 61.831725,17.22 62.093056,17.22 c 0.11993,0 0.218055,0.11475 0.218055,0.255 0,0.28889 -0.01912,0.299243 -0.261667,0.141667 z m 1.591806,7.45e-4 c 0.179896,-0.04716 0.474271,-0.04716 0.654167,0 0.179896,0.04716 0.03271,0.08575 -0.327084,0.08575 -0.359791,0 -0.506979,-0.03859 -0.327083,-0.08575 z M 62.66,17.39 c 0,-0.0935 0.05193,-0.17 0.115391,-0.17 0.06346,0 0.188164,0.0765 0.277109,0.17 0.08894,0.0935 0.03702,0.17 -0.115391,0.17 C 62.784699,17.56 62.66,17.4835 62.66,17.39 z m 8.182535,0.06729 c 0.08695,-0.05649 0.312637,-0.06253 0.501527,-0.01342 0.208741,0.05427 0.146737,0.09455 -0.15809,0.102708 -0.27584,0.0074 -0.430387,-0.0328 -0.343437,-0.08929 z M 76.266667,17.22 c 0,-0.0935 0.05192,-0.17 0.11539,-0.17 0.06346,0 0.188164,0.0765 0.27711,0.17 0.08895,0.0935 0.03702,0.17 -0.115391,0.17 -0.15241,0 -0.277109,-0.0765 -0.277109,-0.17 z m 0.40614,-0.37923 c -0.246842,-0.08975 -0.66167,-0.127011 -0.92184,-0.08281 -0.260169,0.0442 -0.633257,0.01005 -0.829084,-0.07588 -0.291044,-0.127724 -0.284389,-0.151281 0.03645,-0.129022 1.117486,0.07753 1.308334,-0.01117 1.308334,-0.608053 0,-0.572852 0.31737,-0.779042 0.654166,-0.425 0.08895,0.0935 0.03007,0.17 -0.130833,0.17 -0.701002,0 0.113144,0.342377 0.865859,0.364124 0.780173,0.02254 0.766279,0.03162 -0.211692,0.138355 -1.00143,0.109294 -1.016383,0.119936 -0.345969,0.246226 0.865837,0.163103 1.683476,0.01 1.741524,-0.326168 0.02399,-0.138895 0.06324,-0.363922 0.08722,-0.500059 0.05487,-0.311441 0.479722,-0.158624 0.479722,0.172555 0,0.298644 1.218537,0.334984 1.369454,0.04084 0.07353,-0.143324 0.157426,-0.148733 0.281638,-0.01816 0.105609,0.111017 -0.323275,0.340152 -1.064176,0.568543 -1.642446,0.506303 -2.771468,0.664232 -3.320776,0.464515 z M 80.845833,16.71 c 0.08895,-0.0935 0.27252,-0.17 0.407943,-0.17 0.135423,0 0.246224,0.0765 0.246224,0.17 0,0.0935 -0.183574,0.17 -0.407943,0.17 -0.224368,0 -0.335169,-0.0765 -0.246224,-0.17 z m -6.934166,-0.17 c -0.33543,-0.140832 -0.325918,-0.165172 0.06542,-0.167397 0.251855,-0.0014 0.457917,0.0739 0.457917,0.167397 0,0.207334 -0.02951,0.207334 -0.523333,0 z m 3.859583,-0.808757 c -0.561129,-0.08109 -0.635199,-0.980669 -0.0919,-1.116117 0.261776,-0.06526 0.400244,0.08691 0.486197,0.534312 0.0661,0.344059 0.107454,0.630606 0.0919,0.63677 -0.01555,0.0062 -0.234343,-0.01857 -0.486197,-0.05497 z M 61.926133,15.013147 c 0.03388,-0.288889 0.178598,-0.445203 0.368369,-0.397892 0.171909,0.04286 0.390297,-0.0038 0.485306,-0.103665 0.102348,-0.107589 -0.05987,-0.18159 -0.398072,-0.18159 -0.503232,0 -0.528296,-0.03406 -0.211692,-0.287633 0.244018,-0.195442 0.254288,-0.246714 0.03204,-0.159967 -0.227649,0.08885 -0.327083,-0.0046 -0.327083,-0.307367 0,-0.239268 0.103332,-0.435033 0.229627,-0.435033 0.319667,0 0.839824,0.431792 0.686117,0.569558 -0.06951,0.0623 0.0089,0.03938 0.174347,-0.05094 0.22404,-0.122336 0.206802,-0.238175 -0.0676,-0.454249 -0.33236,-0.261716 -0.317224,-0.272963 0.155007,-0.115177 0.287833,0.09617 0.689284,0.13651 0.892113,0.08964 0.251501,-0.05812 0.318155,4.85e-4 0.209592,0.184287 -0.128788,0.218044 -0.0493,0.242481 0.41622,0.127962 0.360714,-0.08873 0.546929,-0.259926 0.499081,-0.458815 -0.06431,-0.267301 -0.03262,-0.277107 0.201222,-0.06227 0.246144,0.226145 0.313999,0.225445 0.599661,-0.0062 0.33858,-0.274541 1.354846,-0.254233 1.092234,0.02183 -0.08366,0.08795 -0.261731,0.115894 -0.395704,0.0621 -0.133972,-0.05379 -0.243586,-0.02954 -0.243586,0.05389 0,0.297254 0.338681,0.363544 0.884822,0.173186 0.30489,-0.106269 1.065426,-0.176195 1.690079,-0.15539 0.708872,0.02361 1.074522,-0.02652 0.97287,-0.133377 -0.08957,-0.09416 -0.323807,-0.13108 -0.520516,-0.08204 -0.196709,0.04904 -0.428125,0.01508 -0.514257,-0.07546 -0.09041,-0.09504 0.183204,-0.149339 0.647352,-0.128463 0.442176,0.01989 0.911059,0.146129 1.041963,0.280535 0.130904,0.134405 0.23981,0.164048 0.242014,0.06587 0.0022,-0.09817 -0.143181,-0.275113 -0.323077,-0.393195 -0.263249,-0.172795 -0.183325,-0.17943 0.409535,-0.034 0.912923,0.223943 1.037766,0.225545 0.833382,0.0107 -0.08894,-0.0935 0.02186,-0.17 0.246224,-0.17 0.224368,0 0.407943,0.06983 0.407943,0.15517 0,0.08534 0.36579,0.117716 0.812867,0.07194 0.626969,-0.0642 0.765086,-0.03165 0.603938,0.14233 -0.14885,0.160699 -0.07348,0.154078 0.262114,-0.02302 0.417644,-0.220402 0.509336,-0.214562 0.808801,0.05151 0.23106,0.205295 0.371482,0.23436 0.444518,0.09201 0.07183,-0.14 0.80815,-0.212477 2.250391,-0.22151 1.178996,-0.0074 2.143721,-0.0708 2.143833,-0.140927 1.12e-4,-0.07013 0.124904,-0.1275 0.277314,-0.1275 0.15241,0 0.207497,0.07318 0.122415,0.162616 -0.09001,0.09462 0.177084,0.135336 0.638724,0.09738 0.43638,-0.03588 0.793418,0.0081 0.793418,0.09772 0,0.229072 -0.342368,0.285448 -3.009167,0.495506 -3.35953,0.264623 -4.578568,0.287673 -4.583173,0.08666 -0.0022,-0.09619 -0.113738,-0.06215 -0.247854,0.07563 -0.160822,0.165218 -0.137184,0.294566 0.06942,0.379897 0.186803,0.07715 0.01946,0.130435 -0.414525,0.131987 -0.406629,0.0015 -0.793873,-0.109269 -0.877533,-0.25091 -0.09951,-0.168465 -0.447705,-0.239754 -1.03793,-0.2125 -0.95287,0.044 -1.179085,0.225597 -0.431324,0.346254 0.251854,0.04064 0.144755,0.04926 -0.237998,0.01915 -0.426624,-0.03356 -0.751868,0.03999 -0.840512,0.190069 -0.08082,0.136826 -0.32112,0.200801 -0.544796,0.145037 -0.232802,-0.05804 -0.466789,0.01297 -0.559395,0.169752 -0.122325,0.207101 -0.274346,0.229488 -0.656372,0.09666 -0.60831,-0.211508 -0.625937,-0.392966 -0.07307,-0.752155 0.391034,-0.254048 0.365891,-0.266043 -0.322405,-0.15381 -0.410583,0.06695 -0.884581,0.121727 -1.053328,0.121727 -0.168748,0 -0.252333,0.09224 -0.185744,0.204978 0.08201,0.138852 -0.09486,0.178161 -0.548281,0.121849 -0.385428,-0.04787 -0.669351,-0.0049 -0.669351,0.101352 0,0.101466 -0.176625,0.14045 -0.3925,0.08663 -0.215875,-0.05382 -0.3925,-0.01317 -0.3925,0.09034 0,0.103503 0.11775,0.188188 0.261666,0.188188 0.143917,0 0.261667,0.11475 0.261667,0.255 0,0.14025 0.124699,0.255 0.277109,0.255 0.152411,0 0.204336,-0.0765 0.115391,-0.17 -0.08894,-0.0935 0.0093,-0.17 0.218228,-0.17 0.208972,0 0.444147,0.108693 0.522614,0.241539 0.112008,0.189635 -0.09284,0.230259 -0.953255,0.189044 -0.602756,-0.02887 -1.291336,0.01442 -1.530176,0.09621 -0.315903,0.108181 -0.418997,0.08117 -0.378269,-0.09912 0.03079,-0.136309 0.137896,-0.301048 0.238006,-0.366088 0.462111,-0.300224 0.10508,-0.35733 -0.601327,-0.09618 -0.803352,0.296989 -1.09846,0.658704 -0.394154,0.483117 0.215875,-0.05382 0.3925,-0.03268 0.3925,0.04698 0,0.07966 -0.236552,0.185026 -0.52567,0.234146 -0.442119,0.07511 -0.5168,0.01368 -0.469864,-0.386507 z m 4.653896,-0.09204 c -0.276526,-0.216469 -0.260337,-0.241345 0.09879,-0.151812 0.236231,0.05889 0.429511,0.175396 0.429511,0.258892 0,0.218613 -0.151471,0.187912 -0.528304,-0.10708 z M 68.678333,15.01 c 0,-0.0935 0.110801,-0.17 0.246224,-0.17 0.135423,0 0.318998,0.0765 0.407943,0.17 0.08895,0.0935 -0.02186,0.17 -0.246224,0.17 -0.224368,0 -0.407943,-0.0765 -0.407943,-0.17 z m 7.608991,-0.07083 c -0.01136,-0.179209 0.05048,-0.279615 0.137433,-0.223125 0.08695,0.05649 0.09625,0.203114 0.02066,0.325833 -0.08353,0.135615 -0.145535,0.09533 -0.158091,-0.102708 z M 80.715,15.01 C 80.397609,14.876741 80.435164,14.844708 80.91125,14.842603 81.235062,14.841171 81.5,14.9165 81.5,15.01 c 0,0.212997 -0.277691,0.212997 -0.785,0 z M 69.582124,14.827341 C 69.499388,14.740368 69.926961,14.67 70.538168,14.67 c 1.245207,0 1.251631,0.14547 0.01093,0.247482 -0.449513,0.03696 -0.884652,-0.0036 -0.966974,-0.09014 z m -2.675492,-0.699216 c 0.05697,-0.111031 0.243485,-0.232174 0.414483,-0.269205 0.191213,-0.04141 0.249692,0.03631 0.151901,0.201875 -0.182518,0.309011 -0.723372,0.373306 -0.566384,0.06733 z m -3.129097,-1.260833 c 0.08695,-0.05649 0.312637,-0.06253 0.501527,-0.01342 0.208741,0.05427 0.146737,0.09455 -0.15809,0.102708 -0.27584,0.0074 -0.430387,-0.0328 -0.343437,-0.08929 z"
           id="path2539" />
        <path
           style="fill:#43322c"
           d="m 77.313333,15.165833 c 0,-0.650414 0.616368,-0.592055 0.736964,0.06978 0.05868,0.322026 -0.0366,0.45439 -0.327083,0.45439 -0.28344,0 -0.409881,-0.161695 -0.409881,-0.524167 z M 67.987824,14.2025 c 0.01999,-0.163625 0.212968,-0.39673 0.428843,-0.51801 0.329982,-0.185387 0.257044,-0.203544 -0.457917,-0.113993 C 67.143079,13.672663 66.78233,13.460964 67.37,13.225 c 0.143917,-0.05779 0.26347,-0.0049 0.265674,0.117467 0.0027,0.148947 0.06758,0.161563 0.19625,0.03815 0.105733,-0.101409 0.854279,-0.177909 1.663436,-0.17 0.989433,0.0097 1.43424,-0.04822 1.358345,-0.176803 -0.06533,-0.110675 0.141562,-0.182262 0.491307,-0.17 0.39551,0.01387 0.576464,-0.06214 0.523974,-0.220092 -0.06259,-0.188343 9.9e-5,-0.19799 0.285742,-0.04398 0.201258,0.108516 0.443402,0.146965 0.538098,0.08544 0.0947,-0.06152 0.172174,-0.03539 0.172174,0.05806 0,0.193023 0.763084,0.190676 1.247517,-0.0038 0.558457,-0.224234 0.350305,0.08984 -0.331684,0.50047 -0.359791,0.216632 -0.654166,0.32343 -0.654166,0.237329 0,-0.0861 -0.164715,-0.115483 -0.366032,-0.06529 -0.201318,0.05019 -0.451537,0.0014 -0.556042,-0.108485 -0.122019,-0.128267 -0.248529,-0.138494 -0.353551,-0.02858 -0.08995,0.09414 -0.399042,0.197929 -0.686875,0.23065 -0.287834,0.03272 -0.757681,0.197047 -1.044106,0.365171 -0.341297,0.200333 -0.735962,0.270592 -1.145179,0.203865 -0.4911,-0.08008 -0.591163,-0.04553 -0.46869,0.16182 0.09355,0.158392 0.01392,0.263635 -0.199497,0.263635 -0.195367,0 -0.338859,-0.133875 -0.318871,-0.2975 z m 1.648806,-0.765 c -0.07259,-0.116875 -0.131981,-0.02125 -0.131981,0.2125 0,0.23375 0.05939,0.329375 0.131981,0.2125 0.07259,-0.116875 0.07259,-0.308125 0,-0.425 z m -7.223199,0.625681 c 0.187464,-0.14675 0.555132,-0.230412 0.81704,-0.185915 0.582287,0.09893 0.604277,-0.02355 0.07274,-0.40513 C 62.93352,13.206738 62.95368,13.1825 63.544114,13.1825 c 0.439224,0 0.600404,0.07442 0.506293,0.23375 -0.164248,0.278078 0.03674,0.295381 0.710384,0.06116 0.310888,-0.108096 0.441912,-0.282799 0.350614,-0.4675 -0.122227,-0.247272 -0.10128,-0.253947 0.129681,-0.04133 0.219374,0.201953 0.3416,0.210605 0.60035,0.0425 0.178693,-0.116094 0.507409,-0.209908 0.73048,-0.208476 0.336051,0.0022 0.342972,0.02836 0.04037,0.152843 -0.200867,0.08263 -0.300073,0.260523 -0.220459,0.395313 0.07961,0.13479 0.06733,0.315905 -0.02729,0.402476 C 66.137154,13.961274 63.913243,14.33 62.885872,14.33 c -0.709262,0 -0.769689,-0.03413 -0.472441,-0.266819 z m 3.435632,-0.52931 c -0.188891,-0.04911 -0.414579,-0.04307 -0.501528,0.01342 -0.08695,0.05649 0.0676,0.09667 0.343437,0.08929 0.304827,-0.0082 0.366831,-0.04844 0.158091,-0.102708 z M 61.875,13.48 c 0,-0.187 0.11775,-0.34 0.261667,-0.34 0.143916,0 0.261666,0.153 0.261666,0.34 0,0.187 -0.11775,0.34 -0.261666,0.34 C 61.99275,13.82 61.875,13.667 61.875,13.48 z m 12.56,0.0051 c -0.654167,-0.110922 -0.654167,-0.110922 -0.06542,-0.318985 0.323813,-0.114435 0.58875,-0.157755 0.58875,-0.09627 0,0.06149 0.158022,0.02659 0.351159,-0.07754 0.193138,-0.104138 0.428638,-0.139005 0.523334,-0.07748 0.0947,0.06152 0.17284,0.04173 0.173654,-0.04398 8.15e-4,-0.08571 0.471815,-0.167315 1.046667,-0.181349 0.881032,-0.02151 1.045186,0.02744 1.045186,0.311667 0,0.197524 -0.135475,0.305255 -0.327083,0.260099 -0.179896,-0.0424 -0.709771,0.02383 -1.1775,0.147159 -0.564413,0.148827 -0.850417,0.162986 -0.850417,0.0421 0,-0.11975 -0.11204,-0.126026 -0.327083,-0.01832 -0.179896,0.0901 -0.621458,0.113905 -0.98125,0.0529 z m 4.06809,-0.470637 c -0.0787,-0.133241 -0.143181,-0.255125 -0.143293,-0.270853 -1.7e-4,-0.02393 1.06047,-0.007 2.856731,0.04556 0.725249,0.02122 0.06758,0.196637 -1.241202,0.33105 -1.051044,0.107943 -1.359086,0.08582 -1.472236,-0.105752 z M 63.777535,12.867292 c 0.08695,-0.05649 0.312637,-0.06253 0.501527,-0.01342 0.208741,0.05427 0.146737,0.09455 -0.15809,0.102708 -0.27584,0.0074 -0.430387,-0.0328 -0.343437,-0.08929 z"
           id="path2537" />
      </g>
      <a
         id="a2436"
         transform="matrix(0.9860213,0.2903849,-0.2834874,1.0100121,52.565643,-21.474055)">
        <rect
           transform="matrix(0.9607734,-0.2773346,0.2773346,0.9607734,0,0)"
           y="26.457485"
           x="9.3165112"
           height="11.533309"
           width="18.52211"
           id="rect4959"
           style="fill:url(#linearGradient2571);fill-opacity:1;stroke:url(#linearGradient2573);stroke-width:0.72092301;stroke-linecap:round;stroke-linejoin:miter;stroke-miterlimit:4;stroke-opacity:1;stroke-dasharray:none" />
      </a>
    </g>
  </g>
</svg>
