<?xml version="1.0" encoding="UTF-8" standalone="no"?>
<!-- Created with Inkscape (http://www.inkscape.org/) -->
<svg
   xmlns:dc="http://purl.org/dc/elements/1.1/"
   xmlns:cc="http://creativecommons.org/ns#"
   xmlns:rdf="http://www.w3.org/1999/02/22-rdf-syntax-ns#"
   xmlns:svg="http://www.w3.org/2000/svg"
   xmlns="http://www.w3.org/2000/svg"
   xmlns:xlink="http://www.w3.org/1999/xlink"
   xmlns:sodipodi="http://sodipodi.sourceforge.net/DTD/sodipodi-0.dtd"
   xmlns:inkscape="http://www.inkscape.org/namespaces/inkscape"
   width="48px"
   height="48px"
   id="svg2465"
   sodipodi:version="0.32"
   inkscape:version="0.46"
   sodipodi:docname="nautilus-flickr-uploader.svg"
   inkscape:output_extension="org.inkscape.output.svg.inkscape">
  <sodipodi:namedview
     id="base"
     pagecolor="#ffffff"
     bordercolor="#666666"
     borderopacity="1.0"
     inkscape:pageopacity="0.0"
     inkscape:pageshadow="2"
     inkscape:zoom="8"
     inkscape:cx="4.375"
     inkscape:cy="22.891967"
     inkscape:current-layer="layer1"
     showgrid="true"
     inkscape:grid-bbox="true"
     inkscape:document-units="px"
     inkscape:window-width="1280"
     inkscape:window-height="725"
     inkscape:window-x="0"
     inkscape:window-y="25" />
  <defs
     id="defs2467">
    <linearGradient
       id="linearGradient5080"
       inkscape:collect="always">
      <stop
         id="stop5082"
         offset="0"
         style="stop-color:#3465a4;stop-opacity:1;" />
      <stop
         id="stop5084"
         offset="1"
         style="stop-color:#3465a4;stop-opacity:0;" />
    </linearGradient>
    <linearGradient
       id="linearGradient4981"
       inkscape:collect="always">
      <stop
         id="stop4983"
         offset="0"
         style="stop-color:#000000;stop-opacity:1;" />
      <stop
         id="stop4985"
         offset="1"
         style="stop-color:#000000;stop-opacity:0;" />
    </linearGradient>
    <linearGradient
       id="linearGradient4961">
      <stop
         id="stop4963"
         offset="0"
         style="stop-color:#000000;stop-opacity:1;" />
      <stop
         id="stop4965"
         offset="1"
         style="stop-color:#ffffff;stop-opacity:0.68874174;" />
    </linearGradient>
    <inkscape:perspective
       id="perspective2473"
       inkscape:persp3d-origin="24 : 16 : 1"
       inkscape:vp_z="48 : 24 : 1"
       inkscape:vp_y="0 : 1000 : 0"
       inkscape:vp_x="0 : 24 : 1"
       sodipodi:type="inkscape:persp3d" />
    <inkscape:perspective
       sodipodi:type="inkscape:persp3d"
       inkscape:vp_x="0 : 526.18109 : 1"
       inkscape:vp_y="0 : 1000 : 0"
       inkscape:vp_z="744.09448 : 526.18109 : 1"
       inkscape:persp3d-origin="372.04724 : 350.78739 : 1"
       id="perspective4864" />
    <linearGradient
       gradientTransform="matrix(0.8483959,2.2627355e-8,0,0.6126033,22.916938,19.152252)"
       gradientUnits="userSpaceOnUse"
       y2="18.933525"
       x2="-3.1421082"
       y1="37.904266"
       x1="-7.0962129"
       id="linearGradient4967"
       xlink:href="#linearGradient4961"
       inkscape:collect="always" />
    <linearGradient
       gradientTransform="matrix(0.8594484,-1.02044e-8,1.02044e-8,0.8594484,5.9037782,10.059544)"
       gradientUnits="userSpaceOnUse"
       y2="20.743864"
       x2="14.314825"
       y1="61.111248"
       x1="46.87838"
       id="linearGradient4987"
       xlink:href="#linearGradient4981"
       inkscape:collect="always" />
    <linearGradient
       y2="20.743864"
       x2="14.314825"
       y1="61.111248"
       x1="46.87838"
       gradientTransform="matrix(0.8594484,-1.02044e-8,1.02044e-8,0.8594484,5.9037782,10.059544)"
       gradientUnits="userSpaceOnUse"
       id="linearGradient5048"
       xlink:href="#linearGradient4981"
       inkscape:collect="always" />
    <linearGradient
       y2="18.933525"
       x2="-3.1421082"
       y1="37.904266"
       x1="-7.0962129"
       gradientTransform="matrix(0.8483959,2.2627355e-8,0,0.6126033,22.916938,19.152252)"
       gradientUnits="userSpaceOnUse"
       id="linearGradient5050"
       xlink:href="#linearGradient4961"
       inkscape:collect="always" />
    <linearGradient
       gradientTransform="matrix(0.8689002,0,0,0.8689002,5.1584078,0.3680362)"
       gradientUnits="userSpaceOnUse"
       y2="-7.8222227"
       x2="17.09267"
       y1="4.0181365"
       x1="25.486176"
       id="linearGradient5088"
       xlink:href="#linearGradient5080"
       inkscape:collect="always" />
    <linearGradient
       y2="20.743864"
       x2="14.314825"
       y1="61.111248"
       x1="46.87838"
       gradientTransform="matrix(0.8594484,-1.02044e-8,1.02044e-8,0.8594484,4.7514133,9.7269051)"
       gradientUnits="userSpaceOnUse"
       id="linearGradient2416"
       xlink:href="#linearGradient4981"
       inkscape:collect="always" />
    <linearGradient
       y2="18.933525"
       x2="-3.1421082"
       y1="37.904266"
       x1="-7.0962129"
       gradientTransform="matrix(0.8483959,2.2627355e-8,0,0.6126033,21.764573,18.819613)"
       gradientUnits="userSpaceOnUse"
       id="linearGradient2418"
       xlink:href="#linearGradient4961"
       inkscape:collect="always" />
    <inkscape:perspective
       sodipodi:type="inkscape:persp3d"
       inkscape:vp_x="0 : 526.18109 : 1"
       inkscape:vp_y="0 : 1000 : 0"
       inkscape:vp_z="744.09448 : 526.18109 : 1"
       inkscape:persp3d-origin="372.04724 : 350.78739 : 1"
       id="perspective2487" />
    <linearGradient
       y2="20.743864"
       x2="14.314825"
       y1="61.111248"
       x1="46.87838"
       gradientTransform="matrix(0.8594484,-1.02044e-8,1.0204401e-8,0.8594484,4.7514133,9.7269051)"
       gradientUnits="userSpaceOnUse"
       id="linearGradient2571"
       xlink:href="#linearGradient4981"
       inkscape:collect="always" />
    <linearGradient
       y2="18.933525"
       x2="-3.1421082"
       y1="37.904266"
       x1="-7.0962129"
       gradientTransform="matrix(0.8483959,2.2627355e-8,0,0.6126033,21.764573,18.819613)"
       gradientUnits="userSpaceOnUse"
       id="linearGradient2573"
       xlink:href="#linearGradient4961"
       inkscape:collect="always" />
    <filter
       height="3.688172"
       y="-1.344086"
       width="1.1838066"
       x="-0.091903318"
       id="filter3871"
       inkscape:collect="always">
      <feGaussianBlur
         id="feGaussianBlur3873"
         stdDeviation="1.1200717"
         inkscape:collect="always" />
    </filter>
    <clipPath
       id="clipPath">
      <path
         id="path5076"
         d="M 26,0.6095341 L 18.01605,9.62358 L 21.461179,9.62358 L 21.461179,15.341978 L 30.538821,15.341978 L 30.538821,9.62358 L 33.98395,9.62358 L 26,0.6095341 z"
         style="fill:url(#linearGradient5088);fill-opacity:1;stroke:#888a85;stroke-width:0.47963798;stroke-linecap:round;stroke-linejoin:round;stroke-miterlimit:4;stroke-dasharray:none;stroke-opacity:1" />
    </clipPath>
    <filter
       y="-0.5"
       x="-0.5"
       width="2.0"
       height="2.0"
       id="filter">
      <feGaussianBlur
         id="feGaussianBlur3904"
         stdDeviation="5.0" />
    </filter>
    <linearGradient
       inkscape:collect="always"
       xlink:href="#linearGradient5080"
       id="linearGradient4027"
       x1="18.01605"
       y1="7.9757562"
       x2="33.983952"
       y2="7.9757562"
       gradientUnits="userSpaceOnUse" />
    <linearGradient
       inkscape:collect="always"
       xlink:href="#linearGradient5080"
       id="linearGradient4033"
       gradientUnits="userSpaceOnUse"
       x1="18.01605"
       y1="7.9757562"
       x2="33.983952"
       y2="7.9757562" />
    <linearGradient
       inkscape:collect="always"
       xlink:href="#linearGradient4981"
       id="linearGradient4037"
       gradientUnits="userSpaceOnUse"
       gradientTransform="matrix(0.8689002,0,0,0.8689002,3.1463956,0.3680362)"
       x1="25.391352"
       y1="20.089949"
       x2="24"
       y2="11.110973" />
    <linearGradient
       inkscape:collect="always"
       xlink:href="#linearGradient5080"
       id="linearGradient4041"
       x1="22.90123"
       y1="6.9757562"
       x2="19.15123"
       y2="-4.6492438"
       gradientUnits="userSpaceOnUse" />
  </defs>
  <metadata
     id="metadata2470">
    <rdf:RDF>
      <cc:Work
         rdf:about="">
        <dc:format>image/svg+xml</dc:format>
        <dc:type
           rdf:resource="http://purl.org/dc/dcmitype/StillImage" />
      </cc:Work>
    </rdf:RDF>
  </metadata>
  <g
     inkscape:groupmode="layer"
     inkscape:label="Layer 1"
     id="layer1">
    <path
       transform="matrix(0.8418803,0,0,0.75,3.7948728,11.15625)"
       d="M 38.625,46.125 A 14.625,1 0 1 1 9.375,46.125 A 14.625,1 0 1 1 38.625,46.125 z"
       sodipodi:ry="1"
       sodipodi:rx="14.625"
       sodipodi:cy="46.125"
       sodipodi:cx="24"
       id="path2575"
       style="opacity:0.63999999;fill:#2e3436;fill-opacity:1;stroke:none;stroke-width:1;stroke-linecap:round;stroke-linejoin:round;stroke-miterlimit:4;stroke-dasharray:none;stroke-opacity:1;filter:url(#filter3871)"
       sodipodi:type="arc" />
    <path
       id="path3910"
       d="M 24,0.6095341 L 16.01605,9.62358 L 19.461179,9.62358 L 19.461179,15.341978 L 28.538821,15.341978 L 28.538821,9.62358 L 31.98395,9.62358 L 24,0.6095341 z"
       style="fill:url(#linearGradient4041);fill-opacity:1;stroke:#888a85;stroke-width:0.47963798000000002;stroke-linecap:round;stroke-linejoin:round;stroke-miterlimit:4;stroke-dasharray:none;stroke-opacity:1" />
    <path
       id="rect5052"
       d="M 24.000001,0.5617011 L 16.016051,9.575747 L 19.46118,9.575747 L 19.46118,15.294145 L 28.538822,15.294145 L 28.538822,9.575747 L 31.983949,9.575747 L 24.000001,0.5617011 z"
       style="fill:url(#linearGradient4037);fill-opacity:1;stroke:#888a85;stroke-width:0.47963798000000002;stroke-linecap:round;stroke-linejoin:round;stroke-miterlimit:4;stroke-dasharray:none;stroke-opacity:1" />
    <g
       transform="matrix(0.7467749,0,0,0.7467749,11.955372,7.3432368)"
       id="g4942">
      <rect
         style="fill:none;stroke:#888a85;stroke-width:4.85955;stroke-linecap:round;stroke-linejoin:round;stroke-miterlimit:4;stroke-dasharray:none"
         id="rect2475"
         width="28.283308"
         height="22.692318"
         x="9.8374615"
         y="11.583347"
         transform="matrix(0.9553046,0.2956234,-0.2956234,0.9553046,0,0)" />
      <rect
         style="fill:#ffffff;fill-opacity:1;stroke:none;stroke-width:5;stroke-linecap:round;stroke-linejoin:round;stroke-miterlimit:4;stroke-dasharray:none;stroke-opacity:1"
         id="rect4774"
         width="30.857143"
         height="25.170588"
         x="8.5505438"
         y="10.439286"
         transform="matrix(0.9553046,0.2956234,-0.2956234,0.9553046,0,0)" />
      <rect
         style="fill:#eeeeec;fill-opacity:1;stroke:none;stroke-width:5;stroke-linecap:round;stroke-linejoin:round;stroke-miterlimit:4;stroke-dasharray:none;stroke-opacity:1"
         id="rect4792"
         width="27.714287"
         height="22.578609"
         x="10.050544"
         y="11.867857"
         transform="matrix(0.9553046,0.2956234,-0.2956234,0.9553046,0,0)" />
      <rect
         style="fill:#888a85;fill-opacity:1;stroke:none;stroke-width:5;stroke-linecap:round;stroke-linejoin:round;stroke-miterlimit:4;stroke-dasharray:none;stroke-opacity:1"
         id="rect4794"
         width="24.571428"
         height="16.428574"
         x="11.621971"
         y="14.29643"
         transform="matrix(0.9553046,0.2956234,-0.2956234,0.9553046,0,0)" />
    </g>
    <g
       transform="matrix(0.7467749,0,0,0.7467749,8.9505867,7.3432368)"
       id="g4953">
      <rect
         style="fill:none;stroke:#888a85;stroke-width:4.85955;stroke-linecap:round;stroke-linejoin:round;stroke-miterlimit:4;stroke-dasharray:none"
         id="rect4915"
         width="28.283306"
         height="22.692318"
         x="6.01089"
         y="14.468365" />
      <rect
         style="fill:#ffffff;fill-opacity:1;stroke:none;stroke-width:5;stroke-linecap:round;stroke-linejoin:round;stroke-miterlimit:4;stroke-dasharray:none;stroke-opacity:1"
         id="rect4917"
         width="30.857141"
         height="25.170588"
         x="4.7239723"
         y="13.324304" />
      <rect
         style="fill:#eeeeec;fill-opacity:1;stroke:none;stroke-width:5;stroke-linecap:round;stroke-linejoin:round;stroke-miterlimit:4;stroke-dasharray:none;stroke-opacity:1"
         id="rect4919"
         width="27.714285"
         height="22.578609"
         x="6.2239723"
         y="14.752874" />
      <rect
         style="fill:#888a85;fill-opacity:1;stroke:none;stroke-width:5;stroke-linecap:round;stroke-linejoin:round;stroke-miterlimit:4;stroke-dasharray:none;stroke-opacity:1"
         id="rect4921"
         width="24.571428"
         height="16.428574"
         x="7.7953997"
         y="17.181448" />
    </g>
    <g
       transform="matrix(0.8423347,-0.213213,0.213213,0.8423347,-39.15598,28.06077)"
       id="g2553">
      <g
         id="g2499"
         transform="matrix(0.8594484,0,0,0.8594484,54.429929,-9.436251)">
        <rect
           y="14.468365"
           x="6.01089"
           height="22.692318"
           width="28.283306"
           id="rect2501"
           style="fill:none;stroke:#888a85;stroke-width:4.85955;stroke-linecap:round;stroke-linejoin:round;stroke-miterlimit:4;stroke-dasharray:none" />
        <rect
           y="13.324304"
           x="4.7239723"
           height="25.170588"
           width="30.857141"
           id="rect2503"
           style="fill:#ffffff;fill-opacity:1;stroke:none;stroke-width:5;stroke-linecap:round;stroke-linejoin:round;stroke-miterlimit:4;stroke-dasharray:none;stroke-opacity:1" />
        <rect
           y="14.752874"
           x="6.2239723"
           height="22.578609"
           width="27.714285"
           id="rect2505"
           style="fill:#eeeeec;fill-opacity:1;stroke:none;stroke-width:5;stroke-linecap:round;stroke-linejoin:round;stroke-miterlimit:4;stroke-dasharray:none;stroke-opacity:1" />
        <rect
           y="17.181448"
           x="7.7953997"
           height="16.428574"
           width="24.571428"
           id="rect2507"
           style="fill:#888a85;fill-opacity:1;stroke:none;stroke-width:5;stroke-linecap:round;stroke-linejoin:round;stroke-miterlimit:4;stroke-dasharray:none;stroke-opacity:1" />
      </g>
      <g
         id="g2535">
        <path
           style="fill:#c6e7f9"
           d="M 61.875,12.375 C 61.875,6 61.875,6 71.6875,6 C 81.5,6 81.5,6 81.5,12.375 C 81.5,18.75 81.5,18.75 71.6875,18.75 C 61.875,18.75 61.875,18.75 61.875,12.375 z"
           id="path2551" />
        <path
           style="fill:#b0dbf5"
           d="M 61.875,15.095 C 61.875,11.44 61.875,11.44 63.64125,11.45426 C 64.612688,11.462103 66.761625,11.524082 68.416667,11.591992 C 70.417264,11.67408 71.552296,11.655056 71.803146,11.535232 C 72.042855,11.420729 72.122137,11.418471 72.020541,11.529038 C 71.923137,11.635044 72.257496,11.707547 72.875877,11.714511 C 73.434267,11.7208 73.836759,11.66879 73.770305,11.598932 C 73.70385,11.529075 73.427385,11.509652 73.155937,11.55577 C 72.88449,11.601887 72.588646,11.562093 72.498507,11.467338 C 72.402085,11.365979 72.928527,11.214953 73.777308,11.100475 C 74.570789,10.993456 75.22,10.834818 75.22,10.747947 C 75.22,10.661076 75.093839,10.59 74.939643,10.59 C 74.539202,10.59 75.373473,10.081672 75.790059,10.071835 C 76.1224,10.063987 74.766623,9.5216336 73.870442,9.3039284 C 73.631894,9.2459788 73.375659,9.0468719 73.301031,8.8614684 C 73.217381,8.6536483 72.982317,8.5426436 72.688089,8.5720175 C 72.128484,8.6278853 70.994389,8.2615261 70.690168,7.9266071 C 70.573385,7.7980402 70.367564,7.7371258 70.232788,7.7912417 C 70.098012,7.8453578 69.663687,7.7802193 69.26762,7.6464895 C 68.871554,7.5127598 68.0765,7.3088744 67.500833,7.193411 C 66.925167,7.0779475 65.946402,6.8227576 65.325801,6.6263222 C 64.359427,6.3204414 64.163353,6.3047587 63.960035,6.5170835 C 63.765151,6.7206005 63.628117,6.7269433 63.194868,6.5525 C 62.904596,6.435625 62.488878,6.34 62.271051,6.34 C 62.053223,6.34 61.875,6.2635 61.875,6.17 C 61.875,6.0596889 65.320278,6 71.6875,6 C 81.5,6 81.5,6 81.5,12.375 C 81.5,18.75 81.5,18.75 71.6875,18.75 C 61.875,18.75 61.875,18.75 61.875,15.095 z M 62.987083,12.857412 C 62.807187,12.810252 62.512813,12.810252 62.332917,12.857412 C 62.153021,12.904572 62.300208,12.943158 62.66,12.943158 C 63.019792,12.943158 63.166979,12.904572 62.987083,12.857412 z M 65.276667,12.715 C 65.551051,12.500207 65.504531,12.462116 64.981623,12.473421 C 64.638025,12.480849 64.520101,12.527992 64.717525,12.579 C 65.018669,12.656806 65.018669,12.694021 64.717525,12.817975 C 64.508389,12.904058 64.482886,12.965871 64.655877,12.967397 C 64.818151,12.968829 65.097506,12.85525 65.276667,12.715 z M 66.912083,12.517412 C 66.732187,12.470252 66.437813,12.470252 66.257917,12.517412 C 66.078021,12.564572 66.225208,12.603158 66.585,12.603158 C 66.944792,12.603158 67.091979,12.564572 66.912083,12.517412 z M 68.465729,12.513871 C 68.276839,12.464763 68.051151,12.470802 67.964201,12.527292 C 67.877252,12.583781 68.031799,12.623961 68.307639,12.616579 C 68.612466,12.608422 68.674469,12.568139 68.465729,12.513871 z"
           id="path2549" />
        <path
           style="fill:#cbb08d"
           d="M 61.93409,15.910003 C 62.005833,13.070006 62.005833,13.070006 62.66,12.938162 C 63.314167,12.806317 63.314167,12.806317 62.627292,12.860522 C 62.07362,12.904215 61.940417,12.844075 61.940417,12.550403 C 61.940417,12.219623 62.087982,12.184389 63.543125,12.167723 C 66.440897,12.134535 66.753303,12.057281 64.381614,11.960375 C 62.824445,11.89675 62.010528,11.792481 61.936651,11.647158 C 61.827263,11.431983 63.546058,11.445976 68.155,11.697781 C 68.946542,11.741026 71.595917,11.822288 74.0425,11.878363 C 76.489083,11.934438 79.020708,12.006583 79.668333,12.038685 C 80.315958,12.070787 80.993021,12.102215 81.172917,12.108526 C 81.422797,12.117292 81.5,12.902453 81.5,15.435 C 81.5,18.75 81.5,18.75 71.681173,18.75 C 61.862346,18.75 61.862346,18.75 61.93409,15.910003 z M 65.461136,12.523179 C 65.267129,12.397137 63.43836,12.409227 63.257997,12.537745 C 63.144974,12.61828 63.229745,12.643319 63.446377,12.593387 C 63.924714,12.483134 64.444291,12.807338 64.285441,13.116942 C 64.222067,13.240462 64.477181,13.168121 64.852361,12.956185 C 65.227541,12.74425 65.50149,12.549397 65.461136,12.523179 z M 68.809167,12.97 C 68.720221,12.8765 68.595522,12.8 68.532057,12.8 C 68.468592,12.8 68.416667,12.8765 68.416667,12.97 C 68.416667,13.0635 68.541366,13.14 68.693776,13.14 C 68.846186,13.14 68.898112,13.0635 68.809167,12.97 z M 68.155,12.811824 C 68.155,12.724827 68.419938,12.620495 68.74375,12.579975 C 69.067562,12.539455 68.567125,12.497055 67.631667,12.485754 C 66.475062,12.471781 66.055729,12.516506 66.321159,12.62553 C 66.535839,12.713707 66.994964,12.739629 67.341438,12.683133 C 67.777582,12.612016 67.91438,12.640342 67.786086,12.775207 C 67.684168,12.882343 67.72548,12.97 67.877891,12.97 C 68.030301,12.97 68.155,12.898821 68.155,12.811824 z"
           id="path2547" />
        <path
           style="fill:#c4a279"
           d="M 61.947334,18.413347 C 61.925866,18.228188 62.024276,18.030128 62.166023,17.973213 C 62.330585,17.907137 62.317095,17.786243 62.128703,17.638766 C 61.919665,17.475127 61.913642,17.318486 62.10804,17.101401 C 62.319539,16.865219 62.385161,16.85344 62.394383,17.05 C 62.402867,17.230816 62.463896,17.246198 62.604163,17.102875 C 62.848848,16.852861 64.23,16.673092 64.23,16.891258 C 64.23,16.978566 64.053375,17.05 63.8375,17.05 C 63.621625,17.05 63.445,17.16475 63.445,17.305 C 63.445,17.621537 63.864771,17.64054 64.046865,17.332247 C 64.192033,17.086472 65.138507,17.065295 65.467586,17.300459 C 65.578455,17.379687 65.551417,17.403568 65.4075,17.353528 C 65.263583,17.303487 64.910333,17.324095 64.6225,17.399324 C 64.117775,17.53124 64.11934,17.536528 64.666516,17.548052 C 64.978557,17.554623 65.404925,17.602647 65.613999,17.65477 C 65.82586,17.707588 66.065671,17.628425 66.155737,17.475941 C 66.244618,17.325461 66.209074,17.245812 66.07675,17.298944 C 65.728253,17.438874 65.535044,17.158524 65.793056,16.887299 C 66.042756,16.624813 65.86493,16.2 65.505353,16.2 C 65.374091,16.2 65.347346,16.410375 65.445918,16.6675 C 65.613956,17.105825 65.594803,17.119086 65.139008,16.88 C 64.858561,16.732892 64.736018,16.71491 64.84938,16.8375 C 64.957458,16.954375 64.921186,17.05 64.768776,17.05 C 64.417823,17.05 64.407427,16.76389 64.753333,16.625 C 65.172899,16.456534 65.055267,16.200229 64.557083,16.197397 C 64.197477,16.195353 64.176018,16.163163 64.457131,16.047465 C 64.935191,15.850707 66.212541,16.097181 66.116383,16.36763 C 66.06993,16.498281 66.197398,16.542538 66.443466,16.481191 C 66.959351,16.352578 66.954341,16.44576 66.426949,16.788397 C 66.04177,17.038641 66.069175,17.05399 66.759982,16.974922 C 67.173995,16.927535 67.847327,17.001542 68.256277,17.139382 C 69.173516,17.448545 69.201667,17.448574 69.201667,17.140335 C 69.201667,16.988255 69.048254,16.928918 68.809167,16.988524 C 68.593292,17.042343 68.416667,17.002336 68.416667,16.899619 C 68.416667,16.789845 68.767216,16.737795 69.267083,16.773347 C 69.734813,16.806614 70.058625,16.901595 69.986667,16.984416 C 69.914708,17.067237 69.774697,17.117429 69.675529,17.095953 C 69.576362,17.074478 69.418537,17.213885 69.324807,17.405748 C 69.219283,17.621752 69.008752,17.718281 68.771937,17.659242 C 68.544271,17.602483 68.458649,17.636599 68.560377,17.743537 C 68.654368,17.84234 68.888376,17.884011 69.080395,17.83614 C 69.272415,17.788268 69.466567,17.818851 69.511844,17.904102 C 69.560208,17.995165 69.756076,17.991225 69.986667,17.894552 C 70.335555,17.748284 70.335555,17.710324 69.986667,17.552911 C 69.662066,17.406458 69.684699,17.384401 70.1175,17.425411 C 70.502846,17.461925 70.640833,17.378196 70.640833,17.107861 C 70.640833,16.905934 70.74034,16.676434 70.86196,16.597861 C 70.983579,16.519287 71.043253,16.56975 70.994569,16.71 C 70.945884,16.85025 71.023002,16.984125 71.165943,17.0075 C 71.308882,17.030875 71.425833,16.96075 71.425833,16.851667 C 71.425833,16.742583 71.56358,16.623503 71.731937,16.587043 C 72.052969,16.517521 72.049491,16.709211 71.718093,17.349969 C 71.608586,17.561701 71.433532,17.700624 71.329084,17.658686 C 71.224637,17.616747 70.968177,17.654101 70.759173,17.741693 C 70.468759,17.863404 70.515226,17.888627 70.95626,17.848677 C 71.273662,17.819926 71.781288,17.650629 72.084318,17.472461 C 72.473089,17.243882 72.69026,17.206312 72.822037,17.344837 C 73.052378,17.586973 73.977087,17.517493 74.115537,17.247647 C 74.171311,17.138941 74.103115,17.05 73.963991,17.05 C 73.824866,17.05 73.649452,16.897 73.574182,16.71 C 73.451729,16.405779 72.649624,16.250684 71.733467,16.354081 C 71.614832,16.367469 71.585512,16.307211 71.668311,16.220172 C 71.75111,16.133133 72.054237,16.10191 72.341927,16.150787 C 72.634287,16.200458 72.865,16.155927 72.865,16.049827 C 72.865,15.945422 72.776688,15.872145 72.66875,15.886989 C 72.560812,15.901833 72.262052,15.854305 72.004838,15.781371 C 71.699306,15.694737 71.368129,15.748156 71.049565,15.935457 C 70.729535,16.123619 70.502755,16.159918 70.389701,16.041074 C 70.29231,15.938696 70.423172,15.858869 70.690807,15.857397 C 71.092154,15.85519 71.104455,15.829723 70.771667,15.69 C 70.451806,15.555705 70.488126,15.520792 70.967917,15.501353 C 71.291729,15.488234 71.703854,15.465378 71.88375,15.450562 C 72.063646,15.435746 72.286507,15.493913 72.378998,15.579821 C 72.602945,15.787831 73.977563,15.556803 73.776092,15.345016 C 73.689754,15.254257 73.743814,15.18 73.896224,15.18 C 74.048634,15.18 74.173333,15.25602 74.173333,15.348933 C 74.173333,15.441847 74.438271,15.485781 74.762083,15.446566 C 75.085896,15.407351 75.409708,15.368409 75.481667,15.360029 C 75.553625,15.35165 75.435875,15.270637 75.22,15.18 C 74.904228,15.047421 74.945611,15.014697 75.431693,15.012603 C 75.768606,15.011152 75.964345,15.085204 75.874167,15.18 C 75.785221,15.2735 75.837147,15.35 75.989557,15.35 C 76.141967,15.35 76.266667,15.142357 76.266667,14.888571 C 76.266667,14.449087 76.288443,14.441294 76.724583,14.724719 C 77.125073,14.984977 77.133277,15.042518 76.79,15.183545 C 76.455402,15.321006 76.465053,15.345178 76.855417,15.347397 C 77.170485,15.349188 77.313333,15.21742 77.313333,14.925 C 77.313333,14.660555 77.461611,14.5 77.705833,14.5 C 78.047911,14.5 78.200514,14.682614 78.143857,15.024167 C 78.13481,15.078708 78.297491,15.123333 78.50537,15.123333 C 78.71325,15.123333 78.883333,14.974899 78.883333,14.793479 C 78.883333,14.566509 79.008848,14.494915 79.285738,14.563946 C 79.514714,14.621031 79.752327,14.555603 79.837067,14.412134 C 79.918975,14.27346 80.257955,14.16 80.590356,14.16 C 80.922758,14.16 81.254114,14.064375 81.326703,13.9475 C 81.399293,13.830625 81.46798,14.051203 81.479342,14.437673 C 81.495818,14.998086 81.396589,15.157914 80.989213,15.227126 C 80.70828,15.274855 80.430025,15.226402 80.37087,15.119453 C 80.311714,15.012504 80.176527,14.977285 80.070455,15.04119 C 79.736868,15.242162 80.195756,15.52 80.861276,15.52 C 81.775786,15.52 81.656346,15.93746 80.649583,16.259896 C 79.799167,16.532258 79.799167,16.532258 80.534193,16.536129 C 81.024143,16.538709 81.206967,16.47456 81.082513,16.343734 C 80.966214,16.221479 81.010801,16.19364 81.200749,16.269909 C 81.368467,16.337252 81.479364,16.616822 81.447187,16.891175 C 81.380947,17.455961 80.689976,17.559901 79.826034,17.135039 C 79.552978,17.000758 79.199728,16.932364 79.041034,16.983052 C 78.88234,17.033741 78.981068,16.95479 79.260429,16.807607 C 79.53979,16.660423 79.64252,16.54 79.488719,16.54 C 79.334917,16.54 79.065344,16.652519 78.889668,16.790041 C 78.675705,16.957535 78.226873,17.018595 77.530131,16.974994 C 76.737829,16.925414 76.522243,16.964483 76.625304,17.13897 C 76.699717,17.264955 76.620028,17.40025 76.448217,17.439626 C 76.276406,17.479001 76.628998,17.490001 77.231754,17.46407 C 78.052222,17.428772 78.294369,17.473309 78.195165,17.641265 C 78.122285,17.764654 78.191351,17.917283 78.348644,17.98044 C 78.505938,18.043598 78.602278,17.998504 78.562733,17.880232 C 78.523188,17.761961 78.726333,17.637412 79.014167,17.603458 C 79.444318,17.552715 79.467614,17.573156 79.145,17.718258 C 78.807049,17.870259 78.816141,17.895156 79.210417,17.897397 C 79.462271,17.898829 79.668333,17.974099 79.668333,18.064665 C 79.668333,18.15523 79.854831,18.182834 80.082773,18.126007 C 80.409402,18.044576 80.424868,17.993636 80.155768,17.885586 C 79.623063,17.671691 80.084323,17.510714 80.658185,17.710245 C 80.939421,17.808031 81.243881,17.839729 81.334762,17.780686 C 81.425643,17.721642 81.5,17.922319 81.5,18.226636 C 81.5,18.779939 81.5,18.779939 79.079583,18.716042 C 77.282345,18.668597 76.677679,18.595835 76.731067,18.433437 C 76.770612,18.313147 76.680378,18.26395 76.530548,18.324111 C 76.380718,18.384271 76.325875,18.504707 76.408674,18.591747 C 76.495743,18.683274 75.835565,18.75 74.842943,18.75 C 73.637496,18.75 73.126667,18.686274 73.126667,18.535893 C 73.126667,18.233545 72.180275,17.885672 71.690154,18.007862 C 71.328093,18.098126 71.334255,18.136166 71.74234,18.33003 C 71.996837,18.450931 72.286537,18.517136 72.386117,18.477152 C 72.485697,18.437168 72.641132,18.482202 72.731529,18.577227 C 72.821925,18.672252 72.663249,18.75 72.378915,18.75 C 72.094581,18.75 71.802221,18.654375 71.729226,18.5375 C 71.637335,18.390368 71.530011,18.380911 71.380338,18.506756 C 71.261444,18.606721 70.516542,18.700494 69.725,18.715139 C 68.792249,18.732397 68.463252,18.693856 68.790035,18.605611 C 69.259931,18.478719 69.262775,18.461611 68.831838,18.354176 C 68.293591,18.219987 67.816937,18.362159 68.035341,18.591747 C 68.118141,18.678786 68.040109,18.75 67.861937,18.75 C 67.282157,18.75 65.8,18.345781 65.8,18.187661 C 65.8,18.102941 65.623375,18.077657 65.4075,18.131476 C 65.191625,18.185296 65.015,18.150715 65.015,18.054632 C 65.015,17.958548 64.884679,17.932262 64.725397,17.996217 C 64.522033,18.077873 64.537793,18.153455 64.77832,18.250033 C 64.96671,18.325676 65.214781,18.349849 65.32959,18.30375 C 65.444399,18.257651 65.538333,18.339199 65.538333,18.484967 C 65.538333,18.789735 65.188848,18.822409 64.498066,18.582225 C 64.17184,18.468797 64.057624,18.289828 64.145467,18.029725 C 64.249405,17.721964 64.219705,17.696013 63.997005,17.9 C 63.84389,18.04025 63.782735,18.288875 63.861107,18.4525 C 63.979838,18.700391 63.835409,18.75 62.994984,18.75 C 62.177295,18.75 61.978979,18.686273 61.947334,18.413347 z M 80.320648,18.411947 C 80.41232,18.315581 80.307287,18.287081 80.074424,18.345135 C 79.621108,18.45815 79.538168,18.58 79.914557,18.58 C 80.04998,18.58 80.232721,18.504376 80.320648,18.411947 z M 67.239167,18.24 C 67.150221,18.1465 67.025522,18.07 66.962057,18.07 C 66.898592,18.07 66.846667,18.1465 66.846667,18.24 C 66.846667,18.3335 66.971366,18.41 67.123776,18.41 C 67.276186,18.41 67.328112,18.3335 67.239167,18.24 z M 74.880314,18.132646 C 74.818254,18.092326 74.545482,18.030073 74.274155,17.994304 C 74.002828,17.958536 73.574771,17.87625 73.322917,17.811447 C 72.483902,17.595566 72.851246,17.912656 73.712825,18.148014 C 74.453606,18.350374 75.200315,18.340544 74.880314,18.132646 z M 77.624062,18.293871 C 77.435172,18.244763 77.209484,18.250802 77.122535,18.307292 C 77.035585,18.363781 77.190132,18.403961 77.465972,18.396579 C 77.770799,18.388422 77.832803,18.348139 77.624062,18.293871 z M 81.238333,18.229967 C 81.238333,18.130949 81.120583,18.097214 80.976667,18.155 C 80.83275,18.212786 80.715,18.293801 80.715,18.335033 C 80.715,18.376265 80.83275,18.41 80.976667,18.41 C 81.120583,18.41 81.238333,18.328985 81.238333,18.229967 z M 67.330871,17.772609 C 67.640225,17.825167 67.893333,17.798831 67.893333,17.714085 C 67.893333,17.629338 67.540083,17.56 67.108333,17.56 C 66.676583,17.56 66.323333,17.591993 66.323333,17.631096 C 66.323333,17.670199 66.248617,17.842324 66.157297,18.013596 C 66.003638,18.301788 66.020226,18.300851 66.379835,18.001025 C 66.636417,17.787098 66.959466,17.70951 67.330871,17.772609 z M 76.920833,17.9 C 76.831888,17.8065 76.618876,17.731171 76.447474,17.732603 C 76.260221,17.734167 76.292495,17.800982 76.528333,17.9 C 77.031027,18.111059 77.121611,18.111059 76.920833,17.9 z M 75.654185,17.175982 C 75.550369,17.009039 75.518671,17.009356 75.502324,17.1775 C 75.490963,17.294375 75.275604,17.388829 75.02375,17.387397 C 74.632415,17.385172 74.622904,17.360832 74.958333,17.22 C 75.243541,17.100254 75.257202,17.054495 75.008307,17.052603 C 74.819918,17.051171 74.738555,16.9735 74.8275,16.88 C 74.918531,16.784307 74.725125,16.715866 74.385026,16.723421 C 74.05272,16.730803 73.928021,16.775428 74.107917,16.822588 C 74.287813,16.869748 74.435,17.019937 74.435,17.156342 C 74.435,17.292746 74.578837,17.504387 74.754639,17.626654 C 75.017659,17.809582 75.137257,17.808042 75.429832,17.617962 C 75.625387,17.490913 75.726346,17.292022 75.654185,17.175982 z M 80.81888,17.078333 C 80.893001,17.000417 80.78738,16.936667 80.584167,16.936667 C 80.380953,16.936667 80.275332,17.000417 80.349453,17.078333 C 80.423574,17.15625 80.529195,17.22 80.584167,17.22 C 80.639138,17.22 80.744759,17.15625 80.81888,17.078333 z M 76.266667,16.294415 C 76.266667,16.119507 75.99278,16.079625 75.198654,16.138898 C 74.611248,16.182741 73.974106,16.13421 73.782783,16.031051 C 73.52553,15.892343 73.383852,15.900989 73.238844,16.064245 C 73.130999,16.18566 73.135984,16.230326 73.249921,16.163502 C 73.363858,16.096678 73.676013,16.141631 73.9436,16.263397 C 74.626047,16.573948 76.266667,16.595853 76.266667,16.294415 z M 77.9675,16.37 C 77.878555,16.2765 77.547793,16.205377 77.232474,16.211948 C 76.679738,16.223468 76.677945,16.22914 77.1825,16.37 C 77.902733,16.571073 78.158778,16.571073 77.9675,16.37 z M 75.055596,15.89529 C 75.126078,15.821199 74.928449,15.748085 74.616421,15.732815 C 74.166987,15.71082 74.129973,15.738272 74.438299,15.864922 C 74.91517,16.060806 74.898904,16.060005 75.055596,15.89529 z M 78.883333,15.964827 C 78.883333,15.928982 78.647833,15.859644 78.36,15.810743 C 78.072167,15.761841 77.836667,15.791169 77.836667,15.875915 C 77.836667,15.960662 78.072167,16.03 78.36,16.03 C 78.647833,16.03 78.883333,16.000672 78.883333,15.964827 z M 80.453333,14.629107 C 80.453333,14.435072 80.075093,14.473736 79.720667,14.704 C 79.220396,15.029017 79.357045,15.203014 79.93,14.970548 C 80.217833,14.853764 80.453333,14.700116 80.453333,14.629107 z M 71.949167,18.24 C 71.860221,18.1465 71.912147,18.07 72.064557,18.07 C 72.216967,18.07 72.341667,18.1465 72.341667,18.24 C 72.341667,18.3335 72.289741,18.41 72.226276,18.41 C 72.162811,18.41 72.038112,18.3335 71.949167,18.24 z M 72.799583,17.036383 C 72.547729,16.94108 72.34347,16.771282 72.345674,16.659053 C 72.348124,16.534237 72.448178,16.554021 72.603333,16.71 C 72.772435,16.88 72.858322,16.894167 72.860993,16.7525 C 72.863197,16.635625 72.975432,16.54 73.110404,16.54 C 73.245377,16.54 73.338069,16.693 73.316387,16.88 C 73.294705,17.067 73.272586,17.217674 73.267233,17.21483 C 73.26188,17.211987 73.051438,17.131686 72.799583,17.036383 z M 62.112938,16.696875 C 61.813633,16.573776 61.828879,16.544716 62.193871,16.542603 C 62.509692,16.540775 62.594657,16.45143 62.479263,16.2425 C 62.306203,15.929161 62.347146,15.944832 62.871555,16.392647 C 63.133548,16.616374 63.127264,16.687602 62.8392,16.759418 C 62.64258,16.808437 62.315762,16.780292 62.112938,16.696875 z M 67.300222,16.518905 C 67.47772,16.402724 67.68886,16.350491 67.769424,16.402832 C 67.849988,16.455173 67.704763,16.55023 67.446702,16.61407 C 67.073775,16.706327 67.043719,16.6868 67.300222,16.518905 z M 63.5001,16.267854 C 63.31453,16.137034 63.278143,16.03 63.419241,16.03 C 63.690966,16.03 64.084326,16.353376 63.929119,16.449164 C 63.878728,16.480263 63.68567,16.398674 63.5001,16.267854 z M 69.463333,16.115 C 69.326541,15.88125 69.089812,15.69 68.93727,15.69 C 68.742825,15.69 68.743641,15.791632 68.94,16.03 C 69.156639,16.292987 69.138995,16.37 68.862103,16.37 C 68.245207,16.37 68.517892,15.61175 69.156752,15.550676 C 69.61002,15.507345 69.725,15.581874 69.725,15.91901 C 69.725,16.151471 69.872187,16.380252 70.052083,16.427412 C 70.309409,16.494871 70.308028,16.51602 70.045607,16.526579 C 69.862149,16.533961 69.600126,16.34875 69.463333,16.115 z M 67.108333,15.823823 C 67.108333,15.75022 67.233033,15.69 67.385443,15.69 C 67.537853,15.69 67.578535,15.60168 67.475846,15.493734 C 67.359241,15.371157 67.404167,15.343653 67.595505,15.42048 C 67.764006,15.488138 67.840341,15.608174 67.765138,15.687227 C 67.689935,15.76628 67.776327,15.867948 67.95712,15.913154 C 68.137912,15.95836 68.020896,15.986865 67.697083,15.976497 C 67.373271,15.966129 67.108333,15.897426 67.108333,15.823823 z M 62.529167,15.69 C 63.314167,15.560227 63.314167,15.560227 62.594583,15.540114 C 61.882173,15.5202 61.875,15.508319 61.875,14.348188 C 61.875,13.147209 62.142383,12.851626 63.028861,13.07263 C 63.250723,13.127942 63.46641,13.023985 63.570082,12.811773 C 63.725136,12.494383 63.782825,12.485193 64.144627,12.720249 C 64.384871,12.876331 64.77277,12.941448 65.107989,12.881968 C 65.662802,12.783525 65.663265,12.785454 65.148852,13.052081 C 64.839366,13.212493 64.591973,13.250501 64.538297,13.145884 C 64.488664,13.049148 64.3257,12.97 64.176155,12.97 C 64.011136,12.97 64.031398,13.06953 64.227698,13.223198 C 64.513111,13.446625 64.638276,13.442957 65.292175,13.192006 C 65.699742,13.035591 65.973786,12.845152 65.901161,12.768808 C 65.740001,12.599396 66.020579,12.60797 66.715833,12.793702 C 67.19512,12.921739 67.200752,12.943695 66.782753,13.054566 C 66.531725,13.12115 66.39122,13.24383 66.470519,13.32719 C 66.549818,13.41055 66.93183,13.373603 67.319433,13.245086 C 67.707037,13.116568 68.406854,13.049032 68.874583,13.095004 C 69.423651,13.148971 69.725,13.107957 69.725,12.979262 C 69.725,12.869632 69.618125,12.822847 69.487499,12.875297 C 69.356874,12.927746 68.974186,12.89886 68.637082,12.811105 C 68.066984,12.662697 68.088145,12.64843 68.94,12.606867 C 69.443708,12.58229 68.501708,12.520066 66.846667,12.468591 C 63.677582,12.370026 63.095105,12.399721 63.331112,12.647813 C 63.410738,12.731516 63.140744,12.8 62.731127,12.8 C 62.200699,12.8 61.976126,12.711669 61.95078,12.493068 C 61.920232,12.229602 62.143944,12.183533 63.530513,12.167752 C 66.440143,12.134636 66.757,12.057432 64.381614,11.960375 C 62.824445,11.89675 62.010528,11.792481 61.936651,11.647158 C 61.827263,11.431983 63.546058,11.445976 68.155,11.697781 C 68.946542,11.741026 71.595917,11.822288 74.0425,11.878363 C 76.489083,11.934438 79.020708,12.006583 79.668333,12.038685 C 80.315958,12.070787 80.975102,12.102215 81.133096,12.108526 C 81.524625,12.124165 81.545228,13.185886 81.157114,13.346209 C 80.936616,13.437293 80.960303,13.47615 81.238333,13.479445 C 81.454208,13.482003 81.159833,13.657745 80.584167,13.869982 C 79.467243,14.281772 77.666368,14.476552 77.974926,14.152194 C 78.074402,14.047624 77.90949,13.926086 77.595813,13.872793 C 77.167904,13.800094 77.106964,13.72655 77.329972,13.551975 C 77.568081,13.365579 77.464822,13.356841 76.746737,13.50262 C 76.266823,13.600048 75.726979,13.671244 75.547083,13.660833 C 75.367188,13.650423 74.955062,13.629301 74.63125,13.613897 C 74.307438,13.598493 73.970574,13.5174 73.882664,13.433691 C 73.794755,13.349982 73.651263,13.402657 73.563793,13.550746 C 73.443481,13.754441 73.572656,13.82 74.094323,13.82 C 75.37204,13.82 74.440105,14.051852 73.057063,14.078055 C 70.438981,14.127659 70.083825,14.161402 69.578762,14.408533 C 69.093369,14.64604 69.099857,14.653297 69.725,14.572099 C 70.084792,14.525368 71.026792,14.539977 71.818333,14.604566 C 73.2575,14.721999 73.2575,14.721999 72.08,14.954216 C 71.432375,15.081936 69.320911,15.223963 67.387858,15.269831 C 64.782272,15.331658 63.761749,15.418767 63.442254,15.606614 C 63.205225,15.745976 62.726189,15.850949 62.37773,15.839886 C 61.812949,15.821957 61.82939,15.805684 62.529167,15.69 z M 66.585,14.604818 C 66.585,14.568968 66.290625,14.503076 65.930833,14.458392 C 65.571042,14.413708 65.276667,14.44304 65.276667,14.523574 C 65.276667,14.604108 65.571042,14.67 65.930833,14.67 C 66.290625,14.67 66.585,14.640668 66.585,14.604818 z M 71.410752,13.665854 C 71.491402,13.581074 71.321726,13.551746 71.033694,13.600681 C 70.422706,13.704486 70.345473,13.82 70.887057,13.82 C 71.094439,13.82 71.330101,13.750634 71.410752,13.665854 z M 79.406667,13.558382 C 80.3225,13.322632 80.3225,13.322632 79.145,13.390744 C 78.497375,13.428205 77.938063,13.463613 77.902083,13.469428 C 77.866104,13.475243 77.836667,13.5565 77.836667,13.65 C 77.836667,13.873148 78.285668,13.846947 79.406667,13.558382 z M 76.904276,12.612424 C 76.972991,12.567781 76.801083,12.52009 76.522259,12.506445 C 76.243434,12.492799 75.959572,12.540221 75.891455,12.611826 C 75.760108,12.749899 76.691825,12.750449 76.904276,12.612424 z M 65.8,15.739551 C 66.015875,15.687189 66.320063,15.579334 66.475972,15.499873 C 66.647666,15.412367 66.759445,15.441189 66.759445,15.572966 C 66.759445,15.692628 66.455257,15.800483 66.083472,15.812644 C 65.711687,15.824804 65.584125,15.791912 65.8,15.739551 z M 74.304167,14.67 C 74.215221,14.5765 74.267147,14.5 74.419557,14.5 C 74.571967,14.5 74.696667,14.5765 74.696667,14.67 C 74.696667,14.7635 74.644741,14.84 74.581276,14.84 C 74.517811,14.84 74.393112,14.7635 74.304167,14.67 z M 76.408674,14.001747 C 76.325875,13.914707 76.395994,13.788138 76.564495,13.72048 C 76.747098,13.647161 76.801016,13.670887 76.697966,13.779214 C 76.602875,13.879174 76.672994,13.999705 76.853786,14.047059 C 77.089062,14.108684 77.093915,14.136973 76.870859,14.146579 C 76.699457,14.153961 76.491474,14.088786 76.408674,14.001747 z"
           id="path2545" />
        <path
           style="fill:#6aadc3"
           d="M 62.072623,18.325 C 62.141402,18.09125 62.298003,17.9 62.420625,17.9 C 62.543248,17.9 62.571238,18.022471 62.482825,18.172157 C 62.394412,18.321844 62.48642,18.511922 62.687287,18.594554 C 62.96593,18.709181 62.921544,18.745411 62.500036,18.747397 C 62.051168,18.749512 61.971021,18.670305 62.072623,18.325 z M 63.706667,18.596735 C 63.706667,18.420201 64.204412,18.164642 64.351851,18.265477 C 64.399719,18.298215 64.274135,18.423641 64.072775,18.544203 C 63.871415,18.664764 63.706667,18.688404 63.706667,18.596735 z M 67.650058,18.532165 C 67.639943,18.365605 67.455042,18.185296 67.239167,18.131476 C 67.023292,18.077657 66.846667,17.965308 66.846667,17.881812 C 66.846667,17.798315 67.023292,17.73 67.239167,17.73 C 67.455042,17.73 67.631667,17.811015 67.631667,17.910033 C 67.631667,18.009051 67.749417,18.042786 67.893333,17.985 C 68.202828,17.86073 68.202828,18.027078 67.893333,18.495 C 67.696483,18.792616 67.666157,18.797249 67.650058,18.532165 z M 70.052083,18.632815 C 70.303938,18.590055 70.51,18.479664 70.51,18.387502 C 70.51,18.29534 70.640321,18.272262 70.799603,18.336217 C 71.152605,18.477956 70.580258,18.753563 69.986667,18.727677 C 69.708557,18.715548 69.727623,18.687901 70.052083,18.632815 z M 71.818333,18.58 C 71.818333,18.4865 71.870259,18.41 71.933724,18.41 C 71.997189,18.41 72.121888,18.4865 72.210833,18.58 C 72.299779,18.6735 72.247853,18.75 72.095443,18.75 C 71.943033,18.75 71.818333,18.6735 71.818333,18.58 z M 73.126667,18.41 C 73.126667,18.051456 73.507361,17.952524 73.780833,18.24 C 73.869779,18.3335 73.788415,18.411171 73.600026,18.412603 C 73.351132,18.414495 73.364792,18.460254 73.65,18.58 C 73.98543,18.720832 73.975918,18.745172 73.584583,18.747397 C 73.299775,18.749016 73.126667,18.621468 73.126667,18.41 z M 74.958333,18.518574 C 74.958333,18.361199 75.175349,18.314101 75.63656,18.37138 C 76.131798,18.432886 76.220047,18.494624 75.963644,18.600203 C 75.435517,18.81767 74.958333,18.778924 74.958333,18.518574 z M 77.051667,18.56798 C 76.601496,18.467545 76.817092,18.450852 77.743031,18.514447 C 78.574268,18.571539 79.155257,18.53675 79.263057,18.423431 C 79.359029,18.322544 79.555302,18.24 79.699219,18.24 C 79.843136,18.24 79.887999,18.316619 79.798916,18.410264 C 79.697624,18.516742 79.985922,18.5515 80.568473,18.503043 C 81.080813,18.460427 81.5,18.480022 81.5,18.546588 C 81.5,18.722385 77.823005,18.740068 77.051667,18.56798 z M 68.874583,18.292815 C 68.622729,18.250055 68.416667,18.141488 68.416667,18.051554 C 68.416667,17.95365 68.629139,17.961914 68.946178,18.072148 C 69.355877,18.2146 69.56733,18.196721 69.880702,17.993129 C 70.37759,17.67031 70.684451,17.643599 70.282643,17.958142 C 70.122353,18.083619 70.068686,18.236619 70.163381,18.298142 C 70.350994,18.42003 69.605739,18.41695 68.874583,18.292815 z M 77.388733,18.153177 C 77.012167,17.981819 76.767472,17.956148 76.653423,18.076037 C 76.554432,18.180098 76.134225,18.210827 75.654996,18.149051 C 75.199873,18.090383 74.503687,18.001663 74.107917,17.951896 C 73.712146,17.902129 73.388333,17.802515 73.388333,17.730532 C 73.388333,17.480406 74.32167,17.442859 74.661647,17.679309 C 74.929259,17.865429 75.085515,17.873057 75.379827,17.714367 C 75.586711,17.602817 75.831635,17.560701 75.924101,17.620775 C 76.016568,17.680849 75.935222,17.73 75.743333,17.73 C 75.551445,17.73 75.470099,17.779151 75.562565,17.839225 C 75.655032,17.899299 75.93276,17.841924 76.179739,17.711725 C 76.433979,17.577699 76.547787,17.562726 76.442074,17.677211 C 76.165458,17.97678 77.334495,17.896784 77.9675,17.572829 C 78.481338,17.30986 78.482216,17.311634 78.015871,17.670623 C 77.434077,18.118484 77.649344,18.230681 78.817917,18.088647 C 78.925854,18.075528 78.837542,17.982249 78.621667,17.88136 C 78.295234,17.728803 78.309847,17.714934 78.708484,17.798964 C 78.972109,17.854534 79.31034,17.9 79.460107,17.9 C 79.624985,17.9 79.603902,18.0006 79.406667,18.155 C 78.989265,18.48175 78.109036,18.480954 77.388733,18.153177 z M 63.469504,18.125136 C 63.559188,17.78972 63.425993,17.547566 63.201414,17.63774 C 62.92442,17.74896 62.527733,17.419265 62.758308,17.269465 C 62.841199,17.215611 63.059053,17.245077 63.242427,17.334943 C 63.4258,17.424809 63.917177,17.512296 64.334376,17.529358 C 64.751574,17.546421 65.229497,17.634023 65.396426,17.724029 C 65.601235,17.834459 65.838543,17.782504 66.126166,17.564264 C 66.520729,17.26488 66.519586,17.234613 66.110782,17.156889 C 65.867894,17.11071 66.045785,17.098724 66.506095,17.130252 C 66.971926,17.162159 67.397857,17.100542 67.466687,16.991289 C 67.534702,16.88333 67.599647,16.966223 67.611009,17.175496 C 67.627103,17.471938 67.501609,17.547046 67.042917,17.515496 C 66.641737,17.487902 66.463703,17.561822 66.4841,17.747517 C 66.514487,18.024157 65.781975,18.045239 64.273492,17.811141 C 63.911833,17.755017 63.726848,17.783682 63.819844,17.881439 C 63.906208,17.972226 63.854282,18.095729 63.704452,18.155889 C 63.554622,18.21605 63.448895,18.202211 63.469504,18.125136 z M 72.27625,18.003352 C 71.67338,17.70603 71.697696,17.649518 72.440424,17.621789 C 72.928355,17.603572 73.034365,17.667592 72.933054,17.919289 C 72.862054,18.09568 72.788259,18.237567 72.769065,18.234593 C 72.749871,18.23162 72.528104,18.127561 72.27625,18.003352 z M 80.584167,18.07 C 80.495221,17.9765 80.547147,17.9 80.699557,17.9 C 80.851967,17.9 80.976667,17.9765 80.976667,18.07 C 80.976667,18.1635 80.924741,18.24 80.861276,18.24 C 80.797811,18.24 80.673112,18.1635 80.584167,18.07 z M 61.991742,17.545188 C 61.895047,17.443541 61.931204,17.285485 62.072092,17.193953 C 62.239194,17.08539 62.377404,17.149643 62.469629,17.378765 C 62.618205,17.747885 62.292474,17.861319 61.991742,17.545188 z M 67.893333,17.49048 C 67.893333,17.364613 68.044726,17.180002 68.229762,17.080233 C 68.48402,16.94314 68.566191,16.978549 68.566191,17.225208 C 68.566191,17.404714 68.414798,17.589325 68.229762,17.635456 C 68.044726,17.681586 67.893333,17.616347 67.893333,17.49048 z M 71.029573,17.554893 C 70.700815,17.419846 70.711489,17.394805 71.09875,17.392603 C 71.350604,17.391171 71.556667,17.30075 71.556667,17.191667 C 71.556667,17.082583 71.626335,17.038596 71.711485,17.093916 C 71.796636,17.149237 71.765506,17.311517 71.642309,17.454539 C 71.485959,17.636048 71.300914,17.666354 71.029573,17.554893 z M 76.266667,17.407728 C 75.73404,17.311341 75.694024,17.268989 76.051285,17.179778 C 76.299532,17.117789 76.625918,17.176553 76.802909,17.315105 C 76.974969,17.449797 77.071891,17.552374 77.01829,17.543054 C 76.964689,17.533734 76.626458,17.472837 76.266667,17.407728 z M 64.372008,17.231747 C 64.178495,17.028324 64.670733,16.826768 65.019268,16.966714 C 65.311905,17.084215 65.119792,17.39 64.753333,17.39 C 64.626404,17.39 64.454807,17.318786 64.372008,17.231747 z M 80.898513,17.107112 C 81.010862,16.916902 80.965309,16.864495 80.759467,16.947145 C 80.585632,17.016945 80.451602,16.973896 80.449326,16.847533 C 80.44637,16.683309 80.381535,16.690526 80.201887,16.875077 C 80.068,17.012619 79.881387,17.075084 79.787192,17.013887 C 79.481008,16.814965 79.905752,16.580902 80.712508,16.503975 C 81.440898,16.434521 81.497098,16.465623 81.445053,16.909375 C 81.414049,17.173719 81.2408,17.39 81.060054,17.39 C 80.861044,17.39 80.797328,17.278422 80.898513,17.107112 z M 63.254201,16.947292 C 63.341151,16.890802 63.566839,16.884763 63.755729,16.933871 C 63.964469,16.988139 63.902466,17.028422 63.597639,17.036579 C 63.321799,17.043961 63.167252,17.003781 63.254201,16.947292 z M 75.327478,16.855449 C 75.251378,16.775452 74.842814,16.71 74.419557,16.71 C 73.996301,16.71 73.65,16.639109 73.65,16.552465 C 73.65,16.465821 73.502813,16.36205 73.322917,16.321864 C 73.143021,16.281678 73.231333,16.278881 73.519167,16.315648 C 73.807,16.352416 74.542252,16.422912 75.153061,16.472307 C 76.205186,16.55739 76.260826,16.540169 76.210488,16.145019 C 76.173813,15.857118 76.039412,15.757327 75.776585,15.822851 C 75.545329,15.880505 75.464685,15.845385 75.571205,15.733409 C 75.667669,15.632006 75.598673,15.510295 75.41788,15.462941 C 75.237088,15.415587 75.589604,15.370803 76.20125,15.363421 C 77.207519,15.351277 77.313333,15.309561 77.313333,14.925 C 77.313333,14.383381 78.085627,14.343157 78.12932,14.8825 C 78.146363,15.092875 78.146363,15.322375 78.12932,15.3925 C 78.112277,15.462625 78.274958,15.52 78.490833,15.52 C 78.706708,15.52 78.869389,15.462625 78.852347,15.3925 C 78.754381,14.989408 78.92115,14.5 79.156471,14.5 C 79.306696,14.5 79.410495,14.595625 79.387134,14.7125 C 79.249693,15.400134 79.407961,15.52 80.453333,15.52 C 81.240613,15.52 81.5,15.587762 81.5,15.793429 C 81.5,16.001821 81.32884,16.043862 80.780417,15.970176 C 80.384646,15.917 80.208021,15.915082 80.387917,15.965913 C 80.567813,16.016744 80.715,16.128458 80.715,16.214167 C 80.715,16.299875 80.567813,16.370471 80.387917,16.371047 C 80.208021,16.371623 79.718332,16.488136 79.299718,16.629964 C 78.451883,16.917215 75.543299,17.082321 75.327478,16.855449 z M 78.098333,16.37 C 77.882458,16.279363 77.470333,16.209412 77.1825,16.214552 C 76.659167,16.223897 76.659167,16.223897 77.1825,16.37 C 77.470333,16.450357 77.882458,16.520308 78.098333,16.525448 C 78.447222,16.533755 78.447222,16.516483 78.098333,16.37 z M 78.490833,15.86 C 78.203,15.779643 77.673125,15.713897 77.313333,15.713897 C 76.717044,15.713897 76.705469,15.726824 77.1825,15.86 C 77.470333,15.940357 78.000208,16.006103 78.36,16.006103 C 78.956289,16.006103 78.967865,15.993176 78.490833,15.86 z M 72.865,15.86 C 72.629162,15.760982 72.596888,15.694167 72.784141,15.692603 C 72.955543,15.691171 73.168555,15.7665 73.2575,15.86 C 73.458278,16.071059 73.367694,16.071059 72.865,15.86 z M 73.65,15.775 C 73.424939,15.598818 73.415036,15.52 73.61796,15.52 C 73.779499,15.52 73.911667,15.590891 73.911667,15.677535 C 73.911667,15.764179 74.117729,15.870055 74.369583,15.912815 C 74.755925,15.978408 74.760933,15.993642 74.401623,16.01028 C 74.167391,16.021126 73.82916,15.91525 73.65,15.775 z M 68.749201,15.587292 C 68.836151,15.530802 69.061839,15.524763 69.250729,15.573871 C 69.459469,15.628139 69.397466,15.668422 69.092639,15.676579 C 68.816799,15.683961 68.662252,15.643781 68.749201,15.587292 z M 74.244201,15.587292 C 74.331151,15.530802 74.556839,15.524763 74.745729,15.573871 C 74.954469,15.628139 74.892466,15.668422 74.587639,15.676579 C 74.311799,15.683961 74.157252,15.643781 74.244201,15.587292 z M 61.875,14.371295 C 61.875,13.103693 62.075836,12.902584 63.158095,13.086455 C 63.591647,13.160113 63.706667,13.101663 63.706667,12.807685 C 63.706667,12.466193 63.741087,12.458076 64.126739,12.708628 C 64.382099,12.87453 64.766853,12.942498 65.107989,12.881968 C 65.662802,12.783525 65.663265,12.785454 65.148852,13.052081 C 64.839366,13.212493 64.591973,13.250501 64.538297,13.145884 C 64.488664,13.049148 64.3257,12.97 64.176155,12.97 C 64.011136,12.97 64.031398,13.06953 64.227698,13.223198 C 64.513111,13.446625 64.638276,13.442957 65.292175,13.192006 C 65.699742,13.035591 65.973786,12.845152 65.901161,12.768808 C 65.740001,12.599396 66.020579,12.60797 66.715833,12.793702 C 67.19512,12.921739 67.200752,12.943695 66.782753,13.054566 C 66.531725,13.12115 66.39122,13.24383 66.470519,13.32719 C 66.549818,13.41055 66.93183,13.373603 67.319433,13.245086 C 67.707037,13.116568 68.406854,13.049032 68.874583,13.095004 C 69.423651,13.148971 69.725,13.107957 69.725,12.979262 C 69.725,12.869632 69.618125,12.822847 69.487499,12.875297 C 69.356874,12.927746 68.974186,12.894708 68.637082,12.801878 C 68.108959,12.656447 68.096566,12.635591 68.5475,12.651125 C 68.835333,12.66104 69.247458,12.645084 69.463333,12.615667 C 69.679208,12.58625 68.501708,12.520066 66.846667,12.468591 C 63.677582,12.370026 63.095105,12.399721 63.331112,12.647813 C 63.410738,12.731516 63.140744,12.8 62.731127,12.8 C 62.200699,12.8 61.976126,12.711669 61.95078,12.493068 C 61.920232,12.229602 62.143944,12.183533 63.530513,12.167752 C 66.440143,12.134636 66.757,12.057432 64.381614,11.960375 C 62.824445,11.89675 62.010528,11.792481 61.936651,11.647158 C 61.827321,11.432098 63.463288,11.445003 68.155,11.69621 C 68.946542,11.738592 71.478167,11.816951 73.780833,11.870341 C 76.0835,11.923732 78.717818,11.99834 79.634873,12.036136 C 81.263526,12.10326 81.959711,12.260238 81.30375,12.41244 C 81.123854,12.454182 80.976667,12.562973 80.976667,12.6542 C 80.976667,12.745426 81.094417,12.772786 81.238333,12.715 C 81.38225,12.657214 81.5,12.727742 81.5,12.871728 C 81.5,13.173653 81.060961,13.248265 78.36,13.405351 C 75.059461,13.597308 74.049315,13.605108 73.882664,13.439923 C 73.794755,13.352786 73.651263,13.402657 73.563793,13.550746 C 73.458218,13.72949 73.555926,13.825696 73.854462,13.836946 C 74.139396,13.847682 74.064482,13.901894 73.65,13.984905 C 73.162962,14.082448 72.88484,14.034686 72.56139,13.79796 C 72.063888,13.433849 71.723699,13.380554 71.883359,13.691737 C 71.949546,13.820739 71.574646,13.977229 70.923914,14.092227 C 70.33647,14.19604 69.630455,14.343259 69.354992,14.419379 C 68.968228,14.526255 68.898147,14.502797 69.047313,14.31639 C 69.167784,14.16584 69.110085,14.176577 68.893988,14.344921 C 68.70342,14.493378 68.370875,14.658615 68.155,14.712115 C 67.939125,14.765615 68.144954,14.797151 68.612397,14.782194 C 69.07984,14.767237 69.462527,14.713195 69.462813,14.662101 C 69.463099,14.611006 69.787146,14.582017 70.182917,14.59768 C 70.578688,14.613343 71.292137,14.636022 71.768359,14.648079 C 72.281544,14.661071 72.567274,14.740373 72.469862,14.842773 C 72.379466,14.937798 72.198609,14.972624 72.067957,14.920164 C 71.937305,14.867704 71.375425,14.904378 70.819334,15.001661 C 70.263243,15.098944 68.582589,15.209876 67.084547,15.248176 C 65.586504,15.286477 63.801521,15.373704 63.117917,15.442014 C 61.875,15.566214 61.875,15.566214 61.875,14.371295 z M 66.585,14.604818 C 66.585,14.568968 66.290625,14.503076 65.930833,14.458392 C 65.571042,14.413708 65.276667,14.44304 65.276667,14.523574 C 65.276667,14.604108 65.571042,14.67 65.930833,14.67 C 66.290625,14.67 66.585,14.640668 66.585,14.604818 z M 67.17375,14.37756 C 66.663008,14.259052 66.788478,13.994239 67.435417,13.825298 C 67.948012,13.691438 67.959313,13.670158 67.522784,13.660776 C 67.247023,13.654849 66.826239,13.783551 66.587708,13.94678 C 66.182712,14.223921 66.189916,14.255781 66.696591,14.42826 C 66.995007,14.529846 67.298042,14.577072 67.37,14.533207 C 67.441958,14.489342 67.353646,14.419301 67.17375,14.37756 z M 63.183333,13.469967 C 63.183333,13.381985 63.085208,13.31 62.965278,13.31 C 62.845347,13.31 62.747222,13.421385 62.747222,13.557522 C 62.747222,13.693659 62.845347,13.765644 62.965278,13.717489 C 63.085208,13.669334 63.183333,13.557949 63.183333,13.469967 z M 71.556667,13.665915 C 71.556667,13.581169 71.321167,13.551841 71.033333,13.600743 C 70.7455,13.649644 70.51,13.718982 70.51,13.754827 C 70.51,13.790672 70.7455,13.82 71.033333,13.82 C 71.321167,13.82 71.556667,13.750662 71.556667,13.665915 z M 70.651593,12.81131 C 70.55673,12.71159 70.363671,12.63 70.222574,12.63 C 70.081477,12.63 70.117863,12.737034 70.303433,12.867854 C 70.679097,13.132682 70.920079,13.093545 70.651593,12.81131 z M 76.959114,12.576796 C 77.05799,12.512558 76.890713,12.46 76.587387,12.46 C 76.284061,12.46 75.975522,12.523454 75.901746,12.601009 C 75.742787,12.768107 76.698324,12.746227 76.959114,12.576796 z M 76.266667,14.829967 C 76.266667,14.637449 76.379274,14.525149 76.516905,14.580411 C 76.654536,14.635674 76.700814,14.793189 76.619743,14.930444 C 76.412182,15.281853 76.266667,15.240443 76.266667,14.829967 z M 80.507829,15.065047 C 80.248275,14.997387 80.240528,14.921588 80.474452,14.738468 C 80.694307,14.566361 80.697347,14.5 80.485373,14.5 C 80.323835,14.5 80.191667,14.433063 80.191667,14.35125 C 80.191667,14.269438 80.468541,14.2025 80.806943,14.2025 C 81.305234,14.2025 81.426286,14.295428 81.443608,14.69125 C 81.46432,15.164506 81.237276,15.255199 80.507829,15.065047 z M 78.240723,14.010099 C 78.378284,13.926562 78.785208,13.812072 79.145,13.755676 C 79.504792,13.699281 79.651245,13.697216 79.470453,13.751089 C 79.289661,13.804962 79.192859,13.902777 79.255339,13.968456 C 79.317818,14.034135 79.058815,14.104547 78.679776,14.124928 C 78.265027,14.147228 78.090203,14.101505 78.240723,14.010099 z"
           id="path2543" />
        <path
           style="fill:#b3946d"
           d="M 62.072623,18.325 C 62.141402,18.09125 62.298003,17.9 62.420625,17.9 C 62.543248,17.9 62.571238,18.022471 62.482825,18.172157 C 62.394412,18.321844 62.48642,18.511922 62.687287,18.594554 C 62.96593,18.709181 62.921544,18.745411 62.500036,18.747397 C 62.051168,18.749512 61.971021,18.670305 62.072623,18.325 z M 63.706667,18.596735 C 63.706667,18.420201 64.204412,18.164642 64.351851,18.265477 C 64.399719,18.298215 64.274135,18.423641 64.072775,18.544203 C 63.871415,18.664764 63.706667,18.688404 63.706667,18.596735 z M 67.650058,18.532165 C 67.639943,18.365605 67.455042,18.185296 67.239167,18.131476 C 67.023292,18.077657 66.846667,17.965308 66.846667,17.881812 C 66.846667,17.798315 67.023292,17.73 67.239167,17.73 C 67.455042,17.73 67.631667,17.811015 67.631667,17.910033 C 67.631667,18.009051 67.749417,18.042786 67.893333,17.985 C 68.202828,17.86073 68.202828,18.027078 67.893333,18.495 C 67.696483,18.792616 67.666157,18.797249 67.650058,18.532165 z M 70.052083,18.632815 C 70.303938,18.590055 70.51,18.479664 70.51,18.387502 C 70.51,18.29534 70.640321,18.272262 70.799603,18.336217 C 71.152605,18.477956 70.580258,18.753563 69.986667,18.727677 C 69.708557,18.715548 69.727623,18.687901 70.052083,18.632815 z M 71.818333,18.58 C 71.818333,18.4865 71.870259,18.41 71.933724,18.41 C 71.997189,18.41 72.121888,18.4865 72.210833,18.58 C 72.299779,18.6735 72.247853,18.75 72.095443,18.75 C 71.943033,18.75 71.818333,18.6735 71.818333,18.58 z M 73.126667,18.41 C 73.126667,18.051456 73.507361,17.952524 73.780833,18.24 C 73.869779,18.3335 73.788415,18.411171 73.600026,18.412603 C 73.351132,18.414495 73.364792,18.460254 73.65,18.58 C 73.98543,18.720832 73.975918,18.745172 73.584583,18.747397 C 73.299775,18.749016 73.126667,18.621468 73.126667,18.41 z M 74.958333,18.518574 C 74.958333,18.361199 75.175349,18.314101 75.63656,18.37138 C 76.131798,18.432886 76.220047,18.494624 75.963644,18.600203 C 75.435517,18.81767 74.958333,18.778924 74.958333,18.518574 z M 77.051667,18.56798 C 76.601496,18.467545 76.817092,18.450852 77.743031,18.514447 C 78.574268,18.571539 79.155257,18.53675 79.263057,18.423431 C 79.359029,18.322544 79.555302,18.24 79.699219,18.24 C 79.843136,18.24 79.887999,18.316619 79.798916,18.410264 C 79.697624,18.516742 79.985922,18.5515 80.568473,18.503043 C 81.080813,18.460427 81.5,18.480022 81.5,18.546588 C 81.5,18.722385 77.823005,18.740068 77.051667,18.56798 z M 68.874583,18.292815 C 68.622729,18.250055 68.416667,18.141488 68.416667,18.051554 C 68.416667,17.95365 68.629139,17.961914 68.946178,18.072148 C 69.355877,18.2146 69.56733,18.196721 69.880702,17.993129 C 70.37759,17.67031 70.684451,17.643599 70.282643,17.958142 C 70.122353,18.083619 70.068686,18.236619 70.163381,18.298142 C 70.350994,18.42003 69.605739,18.41695 68.874583,18.292815 z M 77.388733,18.153177 C 77.012167,17.981819 76.767472,17.956148 76.653423,18.076037 C 76.554432,18.180098 76.134225,18.210827 75.654996,18.149051 C 75.199873,18.090383 74.503687,18.001663 74.107917,17.951896 C 73.712146,17.902129 73.388333,17.802515 73.388333,17.730532 C 73.388333,17.480406 74.32167,17.442859 74.661647,17.679309 C 74.929259,17.865429 75.085515,17.873057 75.379827,17.714367 C 75.586711,17.602817 75.831635,17.560701 75.924101,17.620775 C 76.016568,17.680849 75.935222,17.73 75.743333,17.73 C 75.551445,17.73 75.470099,17.779151 75.562565,17.839225 C 75.655032,17.899299 75.93276,17.841924 76.179739,17.711725 C 76.433979,17.577699 76.547787,17.562726 76.442074,17.677211 C 76.165458,17.97678 77.334495,17.896784 77.9675,17.572829 C 78.481338,17.30986 78.482216,17.311634 78.015871,17.670623 C 77.434077,18.118484 77.649344,18.230681 78.817917,18.088647 C 78.925854,18.075528 78.837542,17.982249 78.621667,17.88136 C 78.295234,17.728803 78.309847,17.714934 78.708484,17.798964 C 78.972109,17.854534 79.31034,17.9 79.460107,17.9 C 79.624985,17.9 79.603902,18.0006 79.406667,18.155 C 78.989265,18.48175 78.109036,18.480954 77.388733,18.153177 z M 63.469504,18.125136 C 63.559188,17.78972 63.425993,17.547566 63.201414,17.63774 C 62.92442,17.74896 62.527733,17.419265 62.758308,17.269465 C 62.841199,17.215611 63.059053,17.245077 63.242427,17.334943 C 63.4258,17.424809 63.917177,17.512296 64.334376,17.529358 C 64.751574,17.546421 65.229497,17.634023 65.396426,17.724029 C 65.601235,17.834459 65.838543,17.782504 66.126166,17.564264 C 66.520729,17.26488 66.519586,17.234613 66.110782,17.156889 C 65.867894,17.11071 66.045785,17.098724 66.506095,17.130252 C 66.971926,17.162159 67.397857,17.100542 67.466687,16.991289 C 67.534702,16.88333 67.599647,16.966223 67.611009,17.175496 C 67.627103,17.471938 67.501609,17.547046 67.042917,17.515496 C 66.641737,17.487902 66.463703,17.561822 66.4841,17.747517 C 66.514487,18.024157 65.781975,18.045239 64.273492,17.811141 C 63.911833,17.755017 63.726848,17.783682 63.819844,17.881439 C 63.906208,17.972226 63.854282,18.095729 63.704452,18.155889 C 63.554622,18.21605 63.448895,18.202211 63.469504,18.125136 z M 72.27625,18.003352 C 71.67338,17.70603 71.697696,17.649518 72.440424,17.621789 C 72.928355,17.603572 73.034365,17.667592 72.933054,17.919289 C 72.862054,18.09568 72.788259,18.237567 72.769065,18.234593 C 72.749871,18.23162 72.528104,18.127561 72.27625,18.003352 z M 80.584167,18.07 C 80.495221,17.9765 80.547147,17.9 80.699557,17.9 C 80.851967,17.9 80.976667,17.9765 80.976667,18.07 C 80.976667,18.1635 80.924741,18.24 80.861276,18.24 C 80.797811,18.24 80.673112,18.1635 80.584167,18.07 z M 61.991742,17.545188 C 61.895047,17.443541 61.931204,17.285485 62.072092,17.193953 C 62.239194,17.08539 62.377404,17.149643 62.469629,17.378765 C 62.618205,17.747885 62.292474,17.861319 61.991742,17.545188 z M 67.893333,17.49048 C 67.893333,17.364613 68.044726,17.180002 68.229762,17.080233 C 68.48402,16.94314 68.566191,16.978549 68.566191,17.225208 C 68.566191,17.404714 68.414798,17.589325 68.229762,17.635456 C 68.044726,17.681586 67.893333,17.616347 67.893333,17.49048 z M 71.029573,17.554893 C 70.700815,17.419846 70.711489,17.394805 71.09875,17.392603 C 71.350604,17.391171 71.556667,17.30075 71.556667,17.191667 C 71.556667,17.082583 71.626335,17.038596 71.711485,17.093916 C 71.796636,17.149237 71.765506,17.311517 71.642309,17.454539 C 71.485959,17.636048 71.300914,17.666354 71.029573,17.554893 z M 76.266667,17.407728 C 75.73404,17.311341 75.694024,17.268989 76.051285,17.179778 C 76.299532,17.117789 76.625918,17.176553 76.802909,17.315105 C 76.974969,17.449797 77.071891,17.552374 77.01829,17.543054 C 76.964689,17.533734 76.626458,17.472837 76.266667,17.407728 z M 64.372008,17.231747 C 64.178495,17.028324 64.670733,16.826768 65.019268,16.966714 C 65.311905,17.084215 65.119792,17.39 64.753333,17.39 C 64.626404,17.39 64.454807,17.318786 64.372008,17.231747 z M 80.898513,17.107112 C 81.010862,16.916902 80.965309,16.864495 80.759467,16.947145 C 80.585632,17.016945 80.451602,16.973896 80.449326,16.847533 C 80.44637,16.683309 80.381535,16.690526 80.201887,16.875077 C 80.068,17.012619 79.881387,17.075084 79.787192,17.013887 C 79.481008,16.814965 79.905752,16.580902 80.712508,16.503975 C 81.440898,16.434521 81.497098,16.465623 81.445053,16.909375 C 81.414049,17.173719 81.2408,17.39 81.060054,17.39 C 80.861044,17.39 80.797328,17.278422 80.898513,17.107112 z M 63.254201,16.947292 C 63.341151,16.890802 63.566839,16.884763 63.755729,16.933871 C 63.964469,16.988139 63.902466,17.028422 63.597639,17.036579 C 63.321799,17.043961 63.167252,17.003781 63.254201,16.947292 z M 75.327478,16.855449 C 75.251378,16.775452 74.842814,16.71 74.419557,16.71 C 73.996301,16.71 73.65,16.639109 73.65,16.552465 C 73.65,16.465821 73.502813,16.36205 73.322917,16.321864 C 73.143021,16.281678 73.231333,16.278881 73.519167,16.315648 C 73.807,16.352416 74.542252,16.422912 75.153061,16.472307 C 76.205186,16.55739 76.260826,16.540169 76.210488,16.145019 C 76.173813,15.857118 76.039412,15.757327 75.776585,15.822851 C 75.545329,15.880505 75.464685,15.845385 75.571205,15.733409 C 75.667669,15.632006 75.598673,15.510295 75.41788,15.462941 C 75.237088,15.415587 75.589604,15.370803 76.20125,15.363421 C 77.110663,15.352446 77.313333,15.291352 77.313333,15.028188 C 77.313333,14.549525 78.090542,14.415842 78.12932,14.887835 C 78.146363,15.095276 78.146363,15.322375 78.12932,15.3925 C 78.112277,15.462625 78.274958,15.52 78.490833,15.52 C 78.706708,15.52 78.869389,15.462625 78.852347,15.3925 C 78.754381,14.989408 78.92115,14.5 79.156471,14.5 C 79.306696,14.5 79.410495,14.595625 79.387134,14.7125 C 79.249693,15.400134 79.407961,15.52 80.453333,15.52 C 81.240613,15.52 81.5,15.587762 81.5,15.793429 C 81.5,16.001821 81.32884,16.043862 80.780417,15.970176 C 80.384646,15.917 80.208021,15.915082 80.387917,15.965913 C 80.567813,16.016744 80.715,16.128458 80.715,16.214167 C 80.715,16.299875 80.567813,16.370471 80.387917,16.371047 C 80.208021,16.371623 79.718332,16.488136 79.299718,16.629964 C 78.451883,16.917215 75.543299,17.082321 75.327478,16.855449 z M 78.098333,16.37 C 77.882458,16.279363 77.470333,16.209412 77.1825,16.214552 C 76.659167,16.223897 76.659167,16.223897 77.1825,16.37 C 77.470333,16.450357 77.882458,16.520308 78.098333,16.525448 C 78.447222,16.533755 78.447222,16.516483 78.098333,16.37 z M 78.490833,15.86 C 78.203,15.779643 77.673125,15.713897 77.313333,15.713897 C 76.717044,15.713897 76.705469,15.726824 77.1825,15.86 C 77.470333,15.940357 78.000208,16.006103 78.36,16.006103 C 78.956289,16.006103 78.967865,15.993176 78.490833,15.86 z M 72.865,15.86 C 72.629162,15.760982 72.596888,15.694167 72.784141,15.692603 C 72.955543,15.691171 73.168555,15.7665 73.2575,15.86 C 73.458278,16.071059 73.367694,16.071059 72.865,15.86 z M 73.65,15.775 C 73.424939,15.598818 73.415036,15.52 73.61796,15.52 C 73.779499,15.52 73.911667,15.590891 73.911667,15.677535 C 73.911667,15.764179 74.117729,15.870055 74.369583,15.912815 C 74.755925,15.978408 74.760933,15.993642 74.401623,16.01028 C 74.167391,16.021126 73.82916,15.91525 73.65,15.775 z M 68.749201,15.587292 C 68.836151,15.530802 69.061839,15.524763 69.250729,15.573871 C 69.459469,15.628139 69.397466,15.668422 69.092639,15.676579 C 68.816799,15.683961 68.662252,15.643781 68.749201,15.587292 z M 74.244201,15.587292 C 74.331151,15.530802 74.556839,15.524763 74.745729,15.573871 C 74.954469,15.628139 74.892466,15.668422 74.587639,15.676579 C 74.311799,15.683961 74.157252,15.643781 74.244201,15.587292 z M 61.875,14.371295 C 61.875,13.084474 62.189371,12.7944 63.202289,13.146591 C 63.622349,13.292645 63.706667,13.265016 63.706667,12.981317 C 63.706667,12.740349 63.827938,12.670905 64.121106,12.743993 C 64.402823,12.814227 64.440756,12.885376 64.239554,12.966164 C 64.026623,13.051661 64.042234,13.138215 64.295186,13.274604 C 64.559712,13.417233 64.822562,13.389292 65.356347,13.161801 C 65.746592,12.995484 65.986435,12.80779 65.889331,12.744703 C 65.657987,12.594404 66.058729,12.618161 66.715833,12.793702 C 67.19512,12.921739 67.200752,12.943695 66.782753,13.054566 C 66.531725,13.12115 66.39122,13.24383 66.470519,13.32719 C 66.549818,13.41055 66.93183,13.3751 67.319433,13.248413 C 67.726222,13.115455 68.454114,13.052855 69.041129,13.100344 C 69.730401,13.156106 70.001726,13.123364 69.883166,12.998732 C 69.786957,12.897596 69.547297,12.854973 69.350588,12.904014 C 69.153879,12.953055 68.922463,12.919098 68.836331,12.828555 C 68.745918,12.733513 69.019535,12.679216 69.483683,12.700092 C 69.925859,12.719981 70.394742,12.846221 70.525646,12.980627 C 70.65655,13.115032 70.765456,13.144675 70.76766,13.0465 C 70.769864,12.948325 70.633123,12.777991 70.463792,12.66798 C 70.227737,12.514619 70.289007,12.484611 70.726443,12.539342 C 71.040231,12.578602 71.432468,12.665131 71.59808,12.731629 C 71.784289,12.806396 71.827947,12.777639 71.712487,12.656266 C 71.601854,12.539969 71.691997,12.46 71.933724,12.46 C 72.158092,12.46 72.341667,12.53116 72.341667,12.618133 C 72.341667,12.714442 72.661641,12.716647 73.160089,12.623773 C 74.041091,12.459619 74.955382,12.659857 74.96234,13.018481 C 74.9654,13.176166 75.015308,13.174908 75.173404,13.013161 C 75.287286,12.896649 76.021421,12.759647 76.804815,12.708712 C 77.588208,12.657777 78.670766,12.588246 79.210499,12.554198 C 79.753695,12.519932 80.126487,12.560985 80.045473,12.646147 C 79.830905,12.871702 80.296534,12.833869 80.662667,12.596 C 80.906889,12.437333 80.976667,12.439563 80.976667,12.606033 C 80.976667,12.723751 81.094417,12.772786 81.238333,12.715 C 81.38225,12.657214 81.5,12.727742 81.5,12.871728 C 81.5,13.173653 81.060961,13.248265 78.36,13.405351 C 75.059461,13.597308 74.049315,13.605108 73.882664,13.439923 C 73.794755,13.352786 73.651263,13.402657 73.563793,13.550746 C 73.458218,13.72949 73.555926,13.825696 73.854462,13.836946 C 74.139396,13.847682 74.064482,13.901894 73.65,13.984905 C 73.162962,14.082448 72.88484,14.034686 72.56139,13.79796 C 72.063888,13.433849 71.723699,13.380554 71.883359,13.691737 C 71.949546,13.820739 71.574646,13.977229 70.923914,14.092227 C 70.33647,14.19604 69.630455,14.343259 69.354992,14.419379 C 68.968228,14.526255 68.898147,14.502797 69.047313,14.31639 C 69.167784,14.16584 69.110085,14.176577 68.893988,14.344921 C 68.70342,14.493378 68.370875,14.658615 68.155,14.712115 C 67.939125,14.765615 68.144954,14.797151 68.612397,14.782194 C 69.07984,14.767237 69.462527,14.713195 69.462813,14.662101 C 69.463099,14.611006 69.787146,14.582017 70.182917,14.59768 C 70.578688,14.613343 71.292137,14.636022 71.768359,14.648079 C 72.281544,14.661071 72.567274,14.740373 72.469862,14.842773 C 72.379466,14.937798 72.198609,14.972624 72.067957,14.920164 C 71.937305,14.867704 71.375425,14.904378 70.819334,15.001661 C 70.263243,15.098944 68.582589,15.209876 67.084547,15.248176 C 65.586504,15.286477 63.801521,15.373704 63.117917,15.442014 C 61.875,15.566214 61.875,15.566214 61.875,14.371295 z M 66.563195,14.608915 C 66.254912,14.436194 64.987109,14.333148 65.139351,14.493186 C 65.231862,14.590434 65.614603,14.67 65.989887,14.67 C 66.365171,14.67 66.62316,14.642512 66.563195,14.608915 z M 67.17375,14.37756 C 66.663008,14.259052 66.788478,13.994239 67.435417,13.825298 C 67.948012,13.691438 67.959313,13.670158 67.522784,13.660776 C 67.247023,13.654849 66.826239,13.783551 66.587708,13.94678 C 66.182712,14.223921 66.189916,14.255781 66.696591,14.42826 C 66.995007,14.529846 67.298042,14.577072 67.37,14.533207 C 67.441958,14.489342 67.353646,14.419301 67.17375,14.37756 z M 62.987324,13.284656 C 62.760867,13.137531 62.697046,13.178994 62.728773,13.452632 C 62.756518,13.691926 62.859159,13.75861 63.029449,13.647976 C 63.199739,13.537341 63.185359,13.413316 62.987324,13.284656 z M 71.556667,13.665915 C 71.556667,13.581169 71.321167,13.551841 71.033333,13.600743 C 70.7455,13.649644 70.51,13.718982 70.51,13.754827 C 70.51,13.790672 70.7455,13.82 71.033333,13.82 C 71.321167,13.82 71.556667,13.750662 71.556667,13.665915 z M 76.266667,14.829967 C 76.266667,14.637449 76.379274,14.525149 76.516905,14.580411 C 76.654536,14.635674 76.700814,14.793189 76.619743,14.930444 C 76.412182,15.281853 76.266667,15.240443 76.266667,14.829967 z M 80.507829,15.065047 C 80.248275,14.997387 80.240528,14.921588 80.474452,14.738468 C 80.694307,14.566361 80.697347,14.5 80.485373,14.5 C 80.323835,14.5 80.191667,14.433063 80.191667,14.35125 C 80.191667,14.269438 80.468541,14.2025 80.806943,14.2025 C 81.305234,14.2025 81.426286,14.295428 81.443608,14.69125 C 81.46432,15.164506 81.237276,15.255199 80.507829,15.065047 z M 78.240723,14.010099 C 78.378284,13.926562 78.785208,13.812072 79.145,13.755676 C 79.504792,13.699281 79.651245,13.697216 79.470453,13.751089 C 79.289661,13.804962 79.192859,13.902777 79.255339,13.968456 C 79.317818,14.034135 79.058815,14.104547 78.679776,14.124928 C 78.265027,14.147228 78.090203,14.101505 78.240723,14.010099 z"
           id="path2541" />
        <path
           style="fill:#9a6e4e"
           d="M 71.818333,18.58 C 71.818333,18.4865 71.870259,18.41 71.933724,18.41 C 71.997189,18.41 72.121888,18.4865 72.210833,18.58 C 72.299779,18.6735 72.247853,18.75 72.095443,18.75 C 71.943033,18.75 71.818333,18.6735 71.818333,18.58 z M 77.1825,18.07 C 77.093555,17.9765 77.138531,17.9 77.282448,17.9 C 77.426364,17.9 77.616888,17.9765 77.705833,18.07 C 77.794779,18.1635 77.749802,18.24 77.605886,18.24 C 77.461969,18.24 77.271445,18.1635 77.1825,18.07 z M 64.884167,17.73 C 64.795221,17.6365 64.847147,17.56 64.999557,17.56 C 65.151967,17.56 65.276667,17.6365 65.276667,17.73 C 65.276667,17.8235 65.224741,17.9 65.161276,17.9 C 65.097811,17.9 64.973112,17.8235 64.884167,17.73 z M 62.049444,17.616667 C 61.805536,17.458204 61.831725,17.22 62.093056,17.22 C 62.212986,17.22 62.311111,17.33475 62.311111,17.475 C 62.311111,17.76389 62.291988,17.774243 62.049444,17.616667 z M 63.64125,17.617412 C 63.821146,17.570252 64.115521,17.570252 64.295417,17.617412 C 64.475313,17.664572 64.328125,17.703158 63.968333,17.703158 C 63.608542,17.703158 63.461354,17.664572 63.64125,17.617412 z M 62.66,17.39 C 62.66,17.2965 62.711926,17.22 62.775391,17.22 C 62.838855,17.22 62.963555,17.2965 63.0525,17.39 C 63.141445,17.4835 63.08952,17.56 62.937109,17.56 C 62.784699,17.56 62.66,17.4835 62.66,17.39 z M 70.842535,17.457292 C 70.929484,17.400802 71.155172,17.394763 71.344062,17.443871 C 71.552803,17.498139 71.490799,17.538422 71.185972,17.546579 C 70.910132,17.553961 70.755585,17.513781 70.842535,17.457292 z M 76.266667,17.22 C 76.266667,17.1265 76.318592,17.05 76.382057,17.05 C 76.445522,17.05 76.570221,17.1265 76.659167,17.22 C 76.748112,17.3135 76.696186,17.39 76.543776,17.39 C 76.391366,17.39 76.266667,17.3135 76.266667,17.22 z M 76.672807,16.84077 C 76.425965,16.751023 76.011137,16.713759 75.750967,16.75796 C 75.490798,16.802162 75.11771,16.768014 74.921883,16.682075 C 74.630839,16.554351 74.637494,16.530794 74.958333,16.553053 C 76.075819,16.630582 76.266667,16.541884 76.266667,15.945 C 76.266667,15.372148 76.584037,15.165958 76.920833,15.52 C 77.009779,15.6135 76.950904,15.69 76.79,15.69 C 76.088998,15.69 76.903144,16.032377 77.655859,16.054124 C 78.436032,16.076664 78.422138,16.085745 77.444167,16.192479 C 76.442737,16.301773 76.427784,16.312415 77.098198,16.438705 C 77.964035,16.601808 78.781674,16.448673 78.839722,16.112537 C 78.863708,15.973642 78.902958,15.748615 78.926945,15.612478 C 78.981818,15.301037 79.406667,15.453854 79.406667,15.785033 C 79.406667,16.083677 80.625204,16.120017 80.776121,15.825873 C 80.849656,15.682549 80.933547,15.67714 81.057759,15.807712 C 81.163368,15.918729 80.734484,16.147864 79.993583,16.376255 C 78.351137,16.882558 77.222115,17.040487 76.672807,16.84077 z M 80.845833,16.71 C 80.934779,16.6165 81.118353,16.54 81.253776,16.54 C 81.389199,16.54 81.5,16.6165 81.5,16.71 C 81.5,16.8035 81.316426,16.88 81.092057,16.88 C 80.867689,16.88 80.756888,16.8035 80.845833,16.71 z M 73.911667,16.54 C 73.576237,16.399168 73.585749,16.374828 73.977083,16.372603 C 74.228938,16.371171 74.435,16.4465 74.435,16.54 C 74.435,16.747334 74.405487,16.747334 73.911667,16.54 z M 77.77125,15.731243 C 77.210121,15.650155 77.136051,14.750574 77.679351,14.615126 C 77.941127,14.549863 78.079595,14.702034 78.165548,15.149438 C 78.231647,15.493497 78.273002,15.780044 78.257447,15.786208 C 78.241893,15.792373 78.023104,15.767638 77.77125,15.731243 z M 61.926133,15.013147 C 61.960015,14.724258 62.104731,14.567944 62.294502,14.615255 C 62.466411,14.658113 62.684799,14.611464 62.779808,14.51159 C 62.882156,14.404001 62.719936,14.33 62.381736,14.33 C 61.878504,14.33 61.85344,14.295945 62.170044,14.042367 C 62.414062,13.846925 62.424332,13.795653 62.202083,13.8824 C 61.974434,13.971255 61.875,13.877814 61.875,13.575033 C 61.875,13.335765 61.978332,13.14 62.104627,13.14 C 62.424294,13.14 62.944451,13.571792 62.790744,13.709558 C 62.721233,13.77186 62.799689,13.748938 62.965091,13.658622 C 63.189131,13.536286 63.171893,13.420447 62.897493,13.204373 C 62.565133,12.942657 62.580269,12.93141 63.0525,13.089196 C 63.340333,13.185369 63.741784,13.225706 63.944613,13.178832 C 64.196114,13.12071 64.262768,13.179317 64.154205,13.363119 C 64.025417,13.581163 64.104901,13.6056 64.570425,13.491081 C 64.931139,13.402347 65.117354,13.231155 65.069506,13.032266 C 65.005199,12.764965 65.036889,12.755159 65.270728,12.97 C 65.516872,13.196145 65.584727,13.195445 65.870389,12.963812 C 66.208969,12.689271 67.225235,12.709579 66.962623,12.985639 C 66.878958,13.073588 66.700892,13.101533 66.566919,13.04774 C 66.432947,12.993947 66.323333,13.018199 66.323333,13.101634 C 66.323333,13.398888 66.662014,13.465178 67.208155,13.27482 C 67.513045,13.168551 68.273581,13.098625 68.898234,13.11943 C 69.607106,13.14304 69.972756,13.09291 69.871104,12.986053 C 69.781529,12.891891 69.547297,12.854973 69.350588,12.904014 C 69.153879,12.953055 68.922463,12.919098 68.836331,12.828555 C 68.745918,12.733513 69.019535,12.679216 69.483683,12.700092 C 69.925859,12.719981 70.394742,12.846221 70.525646,12.980627 C 70.65655,13.115032 70.765456,13.144675 70.76766,13.0465 C 70.769864,12.948325 70.624479,12.771387 70.444583,12.653305 C 70.181334,12.48051 70.261258,12.473875 70.854118,12.619305 C 71.767041,12.843248 71.891884,12.84485 71.6875,12.63 C 71.598555,12.5365 71.709355,12.46 71.933724,12.46 C 72.158092,12.46 72.341667,12.529826 72.341667,12.61517 C 72.341667,12.700513 72.707457,12.732886 73.154534,12.687109 C 73.781503,12.622913 73.91962,12.655463 73.758472,12.829439 C 73.609622,12.990138 73.684996,12.983517 74.020586,12.806417 C 74.43823,12.586015 74.529922,12.591855 74.829387,12.857928 C 75.060447,13.063223 75.200869,13.092288 75.273905,12.949937 C 75.345735,12.809937 76.082055,12.73746 77.524296,12.728427 C 78.703292,12.721042 79.668017,12.657625 79.668129,12.5875 C 79.668241,12.517375 79.793033,12.46 79.945443,12.46 C 80.097853,12.46 80.15294,12.533177 80.067858,12.622616 C 79.977851,12.717232 80.244942,12.757952 80.706582,12.719995 C 81.142962,12.684115 81.5,12.728089 81.5,12.817715 C 81.5,13.046787 81.157632,13.103163 78.490833,13.313221 C 75.131303,13.577844 73.912265,13.600894 73.90766,13.399882 C 73.905456,13.303697 73.793922,13.337731 73.659806,13.475513 C 73.498984,13.640731 73.522622,13.770079 73.729229,13.85541 C 73.916032,13.932561 73.748688,13.985845 73.314704,13.987397 C 72.908075,13.988851 72.520831,13.878128 72.437171,13.736487 C 72.337666,13.568022 71.989466,13.496733 71.399241,13.523987 C 70.446371,13.567987 70.220156,13.749584 70.967917,13.870241 C 71.219771,13.910879 71.112672,13.919496 70.729919,13.88939 C 70.303295,13.855833 69.978051,13.929382 69.889407,14.079459 C 69.80859,14.216285 69.568287,14.28026 69.344611,14.224496 C 69.111809,14.166457 68.877822,14.237462 68.785216,14.394248 C 68.662891,14.601349 68.51087,14.623736 68.128844,14.490905 C 67.520534,14.279397 67.502907,14.097939 68.055776,13.73875 C 68.44681,13.484702 68.421667,13.472707 67.733371,13.58494 C 67.322788,13.65189 66.84879,13.706667 66.680043,13.706667 C 66.511295,13.706667 66.42771,13.798907 66.494299,13.911645 C 66.576313,14.050497 66.399436,14.089806 65.946018,14.033494 C 65.56059,13.985626 65.276667,14.028617 65.276667,14.134846 C 65.276667,14.236312 65.100042,14.275296 64.884167,14.221476 C 64.668292,14.167657 64.491667,14.208308 64.491667,14.311812 C 64.491667,14.415315 64.609417,14.5 64.753333,14.5 C 64.89725,14.5 65.015,14.61475 65.015,14.755 C 65.015,14.89525 65.139699,15.01 65.292109,15.01 C 65.44452,15.01 65.496445,14.9335 65.4075,14.84 C 65.318555,14.7465 65.416758,14.67 65.625728,14.67 C 65.8347,14.67 66.069875,14.778693 66.148342,14.911539 C 66.26035,15.101174 66.055505,15.141798 65.195087,15.100583 C 64.592331,15.071711 63.903751,15.115008 63.664911,15.196798 C 63.349008,15.304979 63.245914,15.277964 63.286642,15.097675 C 63.317436,14.961366 63.424538,14.796627 63.524648,14.731587 C 63.986759,14.431363 63.629728,14.374257 62.923321,14.635407 C 62.119969,14.932396 61.824861,15.294111 62.529167,15.118524 C 62.745042,15.064704 62.921667,15.085848 62.921667,15.165508 C 62.921667,15.245169 62.685115,15.350534 62.395997,15.399654 C 61.953878,15.474768 61.879197,15.413336 61.926133,15.013147 z M 66.580029,14.921108 C 66.303503,14.704639 66.319692,14.679763 66.678822,14.769296 C 66.915053,14.82819 67.108333,14.944692 67.108333,15.028188 C 67.108333,15.246801 66.956862,15.2161 66.580029,14.921108 z M 68.678333,15.01 C 68.678333,14.9165 68.789134,14.84 68.924557,14.84 C 69.05998,14.84 69.243555,14.9165 69.3325,15.01 C 69.421445,15.1035 69.310645,15.18 69.086276,15.18 C 68.861908,15.18 68.678333,15.1035 68.678333,15.01 z M 76.287324,14.939167 C 76.275963,14.759958 76.337807,14.659552 76.424757,14.716042 C 76.511707,14.772531 76.521003,14.919156 76.445415,15.041875 C 76.361884,15.17749 76.29988,15.137207 76.287324,14.939167 z M 80.715,15.01 C 80.397609,14.876741 80.435164,14.844708 80.91125,14.842603 C 81.235062,14.841171 81.5,14.9165 81.5,15.01 C 81.5,15.222997 81.222309,15.222997 80.715,15.01 z M 69.582124,14.827341 C 69.499388,14.740368 69.926961,14.67 70.538168,14.67 C 71.783375,14.67 71.789799,14.81547 70.549098,14.917482 C 70.099585,14.954442 69.664446,14.913879 69.582124,14.827341 z M 66.906632,14.128125 C 66.963599,14.017094 67.150117,13.895951 67.321115,13.85892 C 67.512328,13.817511 67.570807,13.895229 67.473016,14.060795 C 67.290498,14.369806 66.749644,14.434101 66.906632,14.128125 z M 63.777535,12.867292 C 63.864484,12.810802 64.090172,12.804763 64.279062,12.853871 C 64.487803,12.908139 64.425799,12.948422 64.120972,12.956579 C 63.845132,12.963961 63.690585,12.923781 63.777535,12.867292 z"
           id="path2539" />
        <path
           style="fill:#43322c"
           d="M 77.313333,15.165833 C 77.313333,14.515419 77.929701,14.573778 78.050297,15.23561 C 78.108976,15.557636 78.013696,15.69 77.723214,15.69 C 77.439774,15.69 77.313333,15.528305 77.313333,15.165833 z M 67.987824,14.2025 C 68.007812,14.038875 68.200792,13.80577 68.416667,13.68449 C 68.746649,13.499103 68.673711,13.480946 67.95875,13.570497 C 67.143079,13.672663 66.78233,13.460964 67.37,13.225 C 67.513917,13.167214 67.63347,13.220074 67.635674,13.342467 C 67.638355,13.491414 67.70325,13.50403 67.831924,13.380619 C 67.937657,13.27921 68.686203,13.20271 69.49536,13.210619 C 70.484793,13.220291 70.9296,13.162395 70.853705,13.033816 C 70.788377,12.923141 70.995267,12.851554 71.345012,12.863816 C 71.740522,12.877684 71.921476,12.801675 71.868986,12.643724 C 71.806396,12.455381 71.869085,12.445734 72.154728,12.599749 C 72.355986,12.708265 72.59813,12.746714 72.692826,12.685192 C 72.787522,12.62367 72.865,12.649799 72.865,12.743256 C 72.865,12.936279 73.628084,12.933932 74.112517,12.739419 C 74.670974,12.515185 74.462822,12.82926 73.780833,13.239889 C 73.421042,13.456521 73.126667,13.563319 73.126667,13.477218 C 73.126667,13.391117 72.961952,13.361735 72.760635,13.411925 C 72.559317,13.462115 72.309098,13.413296 72.204593,13.30344 C 72.082574,13.175173 71.956064,13.164946 71.851042,13.274859 C 71.761094,13.368996 71.452,13.472788 71.164167,13.505509 C 70.876333,13.538229 70.406486,13.702556 70.120061,13.87068 C 69.778764,14.071013 69.384099,14.141272 68.974882,14.074545 C 68.483782,13.994466 68.383719,14.029014 68.506192,14.236365 C 68.599747,14.394757 68.520108,14.5 68.306695,14.5 C 68.111328,14.5 67.967836,14.366125 67.987824,14.2025 z M 69.63663,13.4375 C 69.56404,13.320625 69.504649,13.41625 69.504649,13.65 C 69.504649,13.88375 69.56404,13.979375 69.63663,13.8625 C 69.70922,13.745625 69.70922,13.554375 69.63663,13.4375 z M 62.413431,14.063181 C 62.600895,13.916431 62.968563,13.832769 63.230471,13.877266 C 63.812758,13.976194 63.834748,13.85372 63.303212,13.472136 C 62.933521,13.206738 62.953681,13.1825 63.544115,13.1825 C 63.983339,13.1825 64.144519,13.256915 64.050408,13.41625 C 63.88616,13.694328 64.08715,13.711631 64.760792,13.477407 C 65.07168,13.369311 65.202704,13.194608 65.111406,13.009907 C 64.989179,12.762635 65.010126,12.75596 65.241087,12.968579 C 65.460461,13.170532 65.582687,13.179184 65.841437,13.011079 C 66.02013,12.894985 66.348846,12.801171 66.571917,12.802603 C 66.907968,12.80476 66.914889,12.830963 66.612287,12.955446 C 66.41142,13.038078 66.312214,13.215969 66.391828,13.350759 C 66.471442,13.485549 66.459163,13.666664 66.364541,13.753235 C 66.137154,13.961274 63.913243,14.33 62.885872,14.33 C 62.17661,14.33 62.116183,14.295873 62.413431,14.063181 z M 65.849063,13.533871 C 65.660172,13.484763 65.434484,13.490802 65.347535,13.547292 C 65.260585,13.603781 65.415132,13.643961 65.690972,13.636579 C 65.995799,13.628422 66.057803,13.588139 65.849063,13.533871 z M 61.875,13.48 C 61.875,13.293 61.99275,13.14 62.136667,13.14 C 62.280583,13.14 62.398333,13.293 62.398333,13.48 C 62.398333,13.667 62.280583,13.82 62.136667,13.82 C 61.99275,13.82 61.875,13.667 61.875,13.48 z M 74.435,13.485086 C 73.780833,13.374164 73.780833,13.374164 74.369583,13.166101 C 74.693396,13.051666 74.958333,13.008346 74.958333,13.069834 C 74.958333,13.131323 75.116355,13.096428 75.309492,12.992291 C 75.50263,12.888153 75.73813,12.853286 75.832826,12.914808 C 75.927522,12.97633 76.005666,12.956542 76.00648,12.870833 C 76.007295,12.785125 76.478295,12.703518 77.053147,12.689484 C 77.934179,12.667976 78.098333,12.716925 78.098333,13.001151 C 78.098333,13.198675 77.962858,13.306406 77.77125,13.26125 C 77.591354,13.218854 77.061479,13.285076 76.59375,13.408409 C 76.029337,13.557236 75.743333,13.571395 75.743333,13.45051 C 75.743333,13.33076 75.631293,13.324484 75.41625,13.432188 C 75.236354,13.522289 74.794792,13.546093 74.435,13.485086 z M 78.50309,13.014449 C 78.42439,12.881208 78.359909,12.759324 78.359797,12.743596 C 78.359627,12.719669 79.420267,12.736583 81.216528,12.789151 C 81.941777,12.810376 81.284107,12.985788 79.975326,13.120201 C 78.924282,13.228144 78.61624,13.206017 78.50309,13.014449 z M 63.777535,12.867292 C 63.864484,12.810802 64.090172,12.804763 64.279062,12.853871 C 64.487803,12.908139 64.425799,12.948422 64.120972,12.956579 C 63.845132,12.963961 63.690585,12.923781 63.777535,12.867292 z"
           id="path2537" />
      </g>
      <a
         id="a2436"
         transform="matrix(0.9860213,0.2903849,-0.2834874,1.0100121,52.565643,-21.474055)">
        <rect
           transform="matrix(0.9607734,-0.2773346,0.2773346,0.9607734,0,0)"
           y="26.457485"
           x="9.3165112"
           height="11.533309"
           width="18.52211"
           id="rect4959"
           style="fill:url(#linearGradient2571);fill-opacity:1;stroke:url(#linearGradient2573);stroke-width:0.72092301;stroke-linecap:round;stroke-linejoin:miter;stroke-miterlimit:4;stroke-dasharray:none;stroke-opacity:1" />
      </a>
    </g>
  </g>
</svg>
